<svg width="20" height="20" viewBox="0 0 20 20" fill="none" xmlns="http://www.w3.org/2000/svg">
<path d="M10.7203 0.0302736C9.28973 -0.0738612 7.85354 0.13124 6.50934 0.631634C5.16513 1.13203 3.94442 1.91598 2.9302 2.9302C1.91598 3.94442 1.13203 5.16513 0.631634 6.50934C0.13124 7.85354 -0.0738612 9.28973 0.0302736 10.7203C0.390274 16.0103 5.01027 20.0003 10.3103 20.0003H14.0003C14.5503 20.0003 15.0003 19.5503 15.0003 19.0003C15.0003 18.4503 14.5503 18.0003 14.0003 18.0003H10.3303C6.60027 18.0003 3.18027 15.5803 2.25027 11.9703C0.760274 6.17027 6.16027 0.760274 11.9603 2.26027C15.5803 3.18027 18.0003 6.60027 18.0003 10.3303V11.4303C18.0003 12.2203 17.2903 13.0003 16.5003 13.0003C15.7103 13.0003 15.0003 12.2203 15.0003 11.4303V10.1803C15.0003 7.67027 13.2203 5.41027 10.7403 5.06027C9.95123 4.94295 9.14558 5.01581 8.39039 5.27279C7.63519 5.52977 6.95232 5.96344 6.39861 6.53769C5.84491 7.11194 5.43639 7.81016 5.20708 8.57421C4.97777 9.33825 4.93429 10.146 5.08027 10.9303C5.25566 11.8752 5.6999 12.7496 6.35972 13.4484C7.01953 14.1473 7.86692 14.6409 8.80027 14.8703C10.6403 15.3003 12.3903 14.7103 13.5403 13.5403C14.4303 14.7603 16.2103 15.4003 17.8403 14.7503C19.1803 14.2203 20.0003 12.8503 20.0003 11.4103V10.3203C20.0003 5.01027 16.0103 0.390274 10.7203 0.0302736ZM10.0003 13.0003C8.34027 13.0003 7.00027 11.6603 7.00027 10.0003C7.00027 8.34027 8.34027 7.00027 10.0003 7.00027C11.6603 7.00027 13.0003 8.34027 13.0003 10.0003C13.0003 11.6603 11.6603 13.0003 10.0003 13.0003Z" fill="white"/>
</svg>
