<svg width="260" height="260" viewBox="0 0 260 260" fill="none" xmlns="http://www.w3.org/2000/svg">
<path opacity="0.15" d="M260 130C260 201.797 201.797 260 130 260C58.203 260 0 201.797 0 130C0 58.203 58.203 0 130 0C201.797 0 260 58.203 260 130ZM10.4 130C10.4 196.053 63.9467 249.6 130 249.6C196.053 249.6 249.6 196.053 249.6 130C249.6 63.9467 196.053 10.4 130 10.4C63.9467 10.4 10.4 63.9467 10.4 130Z" fill="white"/>
<path d="M140.776 0.447376C116.984 -1.53159 93.1058 3.07954 71.7611 13.7751C50.4165 24.4706 32.4294 40.8375 19.7724 61.0807C7.11537 81.324 0.27737 104.662 0.00825892 128.535C-0.260852 152.408 6.04932 175.894 18.2468 196.417L27.187 191.104C15.9654 172.222 10.16 150.615 10.4076 128.652C10.6552 106.689 16.9461 85.218 28.5906 66.5943C40.235 47.9705 56.7832 32.913 76.4202 23.0731C96.0573 13.2332 118.025 8.99094 139.914 10.8116L140.776 0.447376Z" fill="#F5DF4D"/>
<circle opacity="0.15" cx="130" cy="130" r="94.3548" fill="white"/>
</svg>
