<svg width="260" height="260" viewBox="0 0 260 260" fill="none" xmlns="http://www.w3.org/2000/svg">
<path opacity="0.15" d="M260 130C260 201.797 201.797 260 130 260C58.203 260 0 201.797 0 130C0 58.203 58.203 0 130 0C201.797 0 260 58.203 260 130ZM10.4 130C10.4 196.053 63.9467 249.6 130 249.6C196.053 249.6 249.6 196.053 249.6 130C249.6 63.9467 196.053 10.4 130 10.4C63.9467 10.4 10.4 63.9467 10.4 130Z" fill="white"/>
<path d="M140.776 0.447376C118.398 -1.41394 95.9196 2.55292 75.5306 11.9615C55.1417 21.3701 37.5374 35.8995 24.433 54.1342C11.3286 72.369 3.17095 93.6872 0.754759 116.012C-1.66143 138.337 1.74627 160.907 10.6459 181.523C19.5455 202.139 33.6334 220.098 51.5373 233.651C69.4411 247.204 90.5503 255.889 112.808 258.858C135.066 261.828 157.714 258.981 178.544 250.596C199.375 242.211 217.679 228.573 231.672 211.011L223.538 204.53C210.664 220.687 193.825 233.234 174.661 240.949C155.496 248.663 134.661 251.282 114.184 248.55C93.7063 245.818 74.2859 237.828 57.8143 225.359C41.3428 212.891 28.3818 196.368 20.1942 177.401C12.0066 158.434 8.87149 137.67 11.0944 117.131C13.3173 96.5922 20.8223 76.9794 32.8784 60.2035C44.9344 43.4275 61.1303 30.0605 79.8882 21.4046C98.646 12.7487 119.326 9.09918 139.914 10.8116L140.776 0.447376Z" fill="#F5DF4D"/>
<circle opacity="0.15" cx="130" cy="130" r="94.3548" fill="white"/>
</svg>
