<svg width="260" height="260" viewBox="0 0 260 260" fill="none" xmlns="http://www.w3.org/2000/svg">
<path opacity="0.15" d="M260 130C260 201.797 201.797 260 130 260C58.203 260 0 201.797 0 130C0 58.203 58.203 0 130 0C201.797 0 260 58.203 260 130ZM10.4 130C10.4 196.053 63.9467 249.6 130 249.6C196.053 249.6 249.6 196.053 249.6 130C249.6 63.9467 196.053 10.4 130 10.4C63.9467 10.4 10.4 63.9467 10.4 130Z" fill="white"/>
<path d="M140.776 0.447376C110.803 -2.04566 80.8932 5.93105 56.1425 23.0184C31.3917 40.1057 13.3315 65.2464 5.03895 94.1568C-3.25357 123.067 -1.26525 153.959 10.6651 181.567C22.5955 209.176 43.7297 231.794 70.4668 245.567C97.2039 259.341 127.89 263.417 157.295 257.102C186.701 250.787 213.008 234.472 231.732 210.935C250.457 187.399 260.442 158.098 259.985 128.026C259.528 97.9528 248.658 68.9688 229.227 46.0121L221.289 52.7311C239.166 73.8513 249.166 100.517 249.586 128.184C250.006 155.85 240.821 182.807 223.594 204.461C206.367 226.114 182.165 241.124 155.112 246.934C128.058 252.744 99.8276 248.993 75.2295 236.322C50.6313 223.65 31.1878 202.842 20.2119 177.442C9.23597 152.042 7.40672 123.622 15.0358 97.0243C22.6649 70.4267 39.2804 47.2972 62.0511 31.5769C84.8218 15.8566 112.339 8.51799 139.914 10.8116L140.776 0.447376Z" fill="#F5DF4D"/>
<circle opacity="0.15" cx="130" cy="130" r="94.3548" fill="white"/>
</svg>
