<svg width="64" height="64" viewBox="0 0 64 64" fill="none" xmlns="http://www.w3.org/2000/svg">
<g clip-path="url(#clip0)">
<path d="M21.9062 47.9999C20.5104 47.9999 19.2708 47.4582 18.1875 46.3749C17.0417 45.229 16.4688 43.8384 16.4688 42.203C16.4688 40.5676 17.0417 39.177 18.1875 38.0311L36.1562 18.9686C37.0729 18.0311 38.1302 17.427 39.3281 17.1561C40.526 16.8853 41.7396 16.9582 42.9688 17.3749C44.1979 17.7915 45.3333 18.5103 46.375 19.5311C46.7083 19.8853 47.0156 20.2759 47.2969 20.703C47.5781 21.1301 47.8073 21.578 47.9844 22.0468C48.1615 22.5155 48.2969 23.0103 48.3906 23.5311C48.4844 24.052 48.5312 24.5728 48.5312 25.0936C48.4896 27.302 47.7396 29.1457 46.2812 30.6249L32.6875 45.0624C32.5 45.2707 32.2708 45.3801 32 45.3905C31.7292 45.4009 31.4948 45.3124 31.2969 45.1249C31.099 44.9374 30.9948 44.703 30.9844 44.4218C30.974 44.1405 31.0625 43.8957 31.25 43.6874L44.8438 29.2499C45.9479 28.1249 46.5104 26.729 46.5312 25.0624C46.5521 23.3957 46.0208 22.0311 44.9375 20.9686C44.2708 20.2811 43.5312 19.7603 42.7188 19.4061C41.9062 19.052 41.0312 18.9374 40.0938 19.0624C39.1562 19.1874 38.3229 19.6145 37.5938 20.3436L19.625 39.4061C18.8542 40.177 18.4688 41.104 18.4688 42.1874C18.4688 43.2707 18.8542 44.1978 19.625 44.9686C19.9792 45.3228 20.3646 45.5884 20.7812 45.7655C21.1979 45.9426 21.6354 46.0103 22.0938 45.9686C23.0104 45.927 23.8646 45.4999 24.6562 44.6874L38.9375 29.4999C39.0417 29.3957 39.1406 29.2863 39.2344 29.1718C39.3281 29.0572 39.4271 28.9218 39.5312 28.7655C39.6354 28.6093 39.7188 28.4426 39.7812 28.2655C39.8438 28.0884 39.8854 27.9113 39.9062 27.7343C39.9271 27.5572 39.8958 27.3749 39.8125 27.1874C39.7292 26.9999 39.6042 26.8228 39.4375 26.6561C39.0417 26.2395 38.6562 26.052 38.2812 26.0936C37.8854 26.1353 37.4375 26.3957 36.9375 26.8749L26.1875 38.3124C26.0625 38.4374 25.9167 38.5259 25.75 38.578C25.5833 38.6301 25.4115 38.6353 25.2344 38.5936C25.0573 38.552 24.9062 38.4686 24.7812 38.3436C24.5729 38.1561 24.4688 37.927 24.4688 37.6561C24.4688 37.3853 24.5625 37.1457 24.75 36.9374L35.5 25.4686C36.3542 24.6353 37.2188 24.177 38.0938 24.0936C39.0938 24.0103 40.0104 24.3853 40.8438 25.2186C41.6354 25.9895 41.9844 26.8957 41.8906 27.9374C41.7969 28.979 41.2917 29.9582 40.375 30.8749L26.0938 46.0936C24.9271 47.2603 23.625 47.8853 22.1875 47.9686C22.1458 47.9686 22.099 47.9738 22.0469 47.9843C21.9948 47.9947 21.9479 47.9999 21.9062 47.9999Z" fill="white"/>
</g>
<circle cx="32" cy="32" r="31.5" stroke="white"/>
<defs>
<clipPath id="clip0">
<rect width="33" height="31" fill="white" transform="translate(16 17)"/>
</clipPath>
</defs>
</svg>
