<svg width="24" height="24" viewBox="0 0 24 24" fill="none" xmlns="http://www.w3.org/2000/svg">
<path d="M11.9999 5.99123C8.6747 5.99123 5.99111 8.67482 5.99111 12C5.99111 15.3252 8.6747 18.0088 11.9999 18.0088C15.3251 18.0088 18.0087 15.3252 18.0087 12C18.0087 8.67482 15.3251 5.99123 11.9999 5.99123ZM11.9999 15.9053C9.8495 15.9053 8.09462 14.1504 8.09462 12C8.09462 9.84963 9.8495 8.09474 11.9999 8.09474C14.1503 8.09474 15.9052 9.84963 15.9052 12C15.9052 14.1504 14.1503 15.9053 11.9999 15.9053ZM18.2548 4.34474C17.4784 4.34474 16.8515 4.9717 16.8515 5.74806C16.8515 6.52443 17.4784 7.15138 18.2548 7.15138C19.0311 7.15138 19.6581 6.52736 19.6581 5.74806C19.6583 5.56371 19.6222 5.38113 19.5517 5.21076C19.4813 5.0404 19.3779 4.88561 19.2476 4.75525C19.1172 4.62489 18.9624 4.52154 18.7921 4.45109C18.6217 4.38065 18.4391 4.34451 18.2548 4.34474ZM23.7128 12C23.7128 10.3828 23.7274 8.78029 23.6366 7.16603C23.5458 5.29103 23.1181 3.62697 21.747 2.25588C20.3729 0.881853 18.7118 0.457048 16.8368 0.366228C15.2196 0.275408 13.6171 0.290056 12.0028 0.290056C10.3856 0.290056 8.7831 0.275408 7.16884 0.366228C5.29384 0.457048 3.62978 0.884782 2.25868 2.25588C0.88466 3.6299 0.459856 5.29103 0.369035 7.16603C0.278215 8.78322 0.292864 10.3858 0.292864 12C0.292864 13.6143 0.278215 15.2197 0.369035 16.834C0.459856 18.709 0.88759 20.3731 2.25868 21.7442C3.63271 23.1182 5.29384 23.543 7.16884 23.6338C8.78603 23.7246 10.3886 23.71 12.0028 23.71C13.62 23.71 15.2226 23.7246 16.8368 23.6338C18.7118 23.543 20.3759 23.1153 21.747 21.7442C23.121 20.3701 23.5458 18.709 23.6366 16.834C23.7304 15.2197 23.7128 13.6172 23.7128 12ZM21.1347 18.9082C20.9208 19.4414 20.663 19.8399 20.2499 20.25C19.8368 20.6631 19.4413 20.9209 18.9081 21.1348C17.3671 21.7471 13.7079 21.6094 11.9999 21.6094C10.2919 21.6094 6.62978 21.7471 5.08876 21.1377C4.55556 20.9238 4.15712 20.666 3.74697 20.2529C3.33388 19.8399 3.07607 19.4444 2.8622 18.9112C2.25282 17.3672 2.39052 13.708 2.39052 12C2.39052 10.292 2.25282 6.6299 2.8622 5.08888C3.07607 4.55568 3.33388 4.15724 3.74697 3.74709C4.16005 3.33693 4.55556 3.07619 5.08876 2.86232C6.62978 2.25295 10.2919 2.39064 11.9999 2.39064C13.7079 2.39064 17.37 2.25295 18.911 2.86232C19.4442 3.07619 19.8427 3.334 20.2528 3.74709C20.6659 4.16017 20.9237 4.55568 21.1376 5.08888C21.747 6.6299 21.6093 10.292 21.6093 12C21.6093 13.708 21.747 17.3672 21.1347 18.9082Z" fill="white"/>
</svg>
