<svg width="220" height="30" viewBox="0 0 220 30" fill="none" xmlns="http://www.w3.org/2000/svg">
<g opacity="0.95">
<path d="M105.985 29.9963C105.461 29.9963 104.908 29.8801 104.529 29.5897C104.296 29.3865 103.976 28.9799 103.976 28.3121V14.4609H106.917V26.8311C106.917 27.0054 106.888 27.2957 107.121 27.499C107.208 27.5571 107.383 27.6732 107.849 27.6732H116.412V29.9963H105.985Z" fill="#F9FAFA"/>
<path d="M121.188 16.0255C121.741 14.7188 122.353 14.2832 123.751 14.2832C125.091 14.2832 125.761 14.7188 126.314 16.0255L132.197 29.9928H129.11L127.508 26.0726H119.994L118.421 29.9928H115.334L121.188 16.0255ZM120.751 23.9819H126.751L124.217 17.6516C124.13 17.4193 123.984 17.0128 123.78 17.0128C123.576 17.0128 123.431 17.4483 123.343 17.6516L120.751 23.9819Z" fill="white"/>
<path d="M142.68 14.4609C143.525 14.4609 144.69 14.5481 145.506 15.3902C146.379 16.2903 146.496 17.7132 146.496 18.7295C146.496 19.5716 146.438 20.4428 145.768 21.2558C145.331 21.7785 144.865 22.0108 144.311 22.0689V22.156C145.04 22.2141 145.651 22.5625 146.03 22.9691C146.758 23.7821 146.758 24.8856 146.758 25.7567C146.758 26.7731 146.758 28.0217 145.855 29.009C144.952 29.9963 143.962 29.9963 143.001 29.9963H135.545C134.759 29.9963 134.06 30.0834 133.419 29.3865C133.273 29.2122 132.895 28.6896 132.895 27.8184V16.6969C132.895 16.1161 133.04 15.5063 133.39 15.0998C133.856 14.5481 134.555 14.4609 135.05 14.4609H142.68ZM135.807 20.9655H141.515C142.098 20.9655 142.71 20.9655 143.117 20.4137C143.234 20.2685 143.438 19.891 143.438 18.8457C143.438 18.4101 143.409 17.6551 142.913 17.1905C142.477 16.784 141.952 16.784 141.457 16.784H136.652C136.419 16.784 136.156 16.7549 135.982 16.9582C135.807 17.1615 135.778 17.4809 135.778 17.6551L135.807 20.9655ZM135.807 26.5117C135.807 27.0344 135.865 27.2957 135.982 27.4119C136.215 27.6732 136.71 27.6442 136.943 27.6442H141.574C142.04 27.6442 142.855 27.6152 143.292 27.0925C143.612 26.6859 143.7 26.0181 143.7 25.5244C143.7 25.0889 143.642 24.3629 143.379 23.9564C143.205 23.7241 142.768 23.3175 141.807 23.3175H135.836L135.807 26.5117Z" fill="white"/>
<path d="M148.475 27.6732H157.125C158.523 27.6732 158.582 26.5117 158.582 25.989C158.582 25.3792 158.436 24.6533 157.067 24.2467L150.922 22.3012C150.689 22.2431 149.699 21.8947 149.087 21.1397C148.388 20.2976 148.271 19.078 148.271 18.2068C148.271 17.2776 148.388 16.1451 149.262 15.3321C150.077 14.5771 151.067 14.4609 151.825 14.4609H160.795V16.784H152.844C152.436 16.784 151.97 16.813 151.621 17.1324C151.242 17.4809 151.213 18.0326 151.213 18.323C151.213 19.0199 151.417 19.6878 152.669 20.0653L158.378 21.8656C159.426 22.1851 160.125 22.5335 160.591 22.9691C161.523 23.8693 161.611 25.234 161.611 25.96C161.611 26.9473 161.465 28.0217 160.824 28.8348C160.038 29.822 159.077 29.9382 158.028 29.9382H148.475V27.6732Z" fill="white"/>
<path d="M167.496 16.0245C168.049 14.7178 168.661 14.2822 170.059 14.2822C171.398 14.2822 172.068 14.7178 172.622 16.0245L178.505 29.9918H175.418L173.816 26.0717H166.302L164.729 29.9918H161.642L167.496 16.0245ZM167.059 23.9809H173.058L170.525 17.6506C170.437 17.4183 170.292 17.0118 170.088 17.0118C169.884 17.0118 169.738 17.4474 169.651 17.6506L167.059 23.9809Z" fill="white"/>
<path d="M181.183 29.9963C180.659 29.9963 180.106 29.8801 179.727 29.5897C179.494 29.3865 179.174 28.9799 179.174 28.3121V14.4609H182.115V26.8311C182.115 27.0054 182.086 27.2957 182.319 27.499C182.407 27.5571 182.581 27.6732 183.047 27.6732H191.61V29.9963H181.183Z" fill="white"/>
<path d="M194.872 29.996C194.202 29.996 193.59 29.996 193.095 29.5024C192.571 28.9797 192.513 28.2828 192.513 27.673V16.6676C192.513 16.0578 192.717 15.4189 193.037 15.0414C193.561 14.4897 194.318 14.4316 194.901 14.4316H204.891V16.7547H196.474C196.211 16.7547 195.891 16.7837 195.658 16.987C195.425 17.2193 195.425 17.5097 195.425 17.742V20.8781H204.687V23.2011H195.454V26.8309C195.454 27.0632 195.542 27.3245 195.687 27.4407C195.862 27.6149 196.211 27.6439 196.677 27.6439H205.007V29.967H194.872V29.996Z" fill="white"/>
<path d="M206.552 27.6732H215.173C216.571 27.6732 216.629 26.5117 216.629 25.989C216.629 25.3792 216.484 24.6533 215.115 24.2467L208.97 22.3012C208.737 22.2431 207.746 21.8947 207.135 21.1397C206.436 20.2976 206.319 19.078 206.319 18.2068C206.319 17.2776 206.436 16.1451 207.31 15.3321C208.125 14.5771 209.115 14.4609 209.873 14.4609H218.843V16.784H210.863C210.455 16.784 209.989 16.813 209.64 17.1324C209.261 17.4809 209.232 18.0326 209.232 18.323C209.232 19.0199 209.436 19.6878 210.688 20.0653L216.396 21.8656C217.445 22.1851 218.144 22.5335 218.61 22.9691C219.542 23.8693 219.629 25.234 219.629 25.96C219.629 26.9473 219.484 28.0217 218.843 28.8348C218.057 29.822 217.095 29.9382 216.047 29.9382H206.465V27.6732H206.552Z" fill="white"/>
<path d="M97.9176 13.4736L92.7917 1.16152C92.6169 0.754988 92.4713 0.464608 92.2966 0.319418C92.0927 0.116152 91.8014 0 91.452 0C91.1025 0 90.8112 0.116152 90.6073 0.319418C90.4326 0.464608 90.287 0.754988 90.1122 1.16152L84.9863 13.5027V27.7313C84.9863 28.4863 85.132 29.009 85.4523 29.3574C85.7727 29.7059 86.2387 29.8511 86.8503 29.8511H96.0827C96.6944 29.8511 97.1603 29.6768 97.4807 29.3574C97.8011 29.009 97.9467 28.4863 97.9467 27.7313L97.9176 13.4736ZM96.6652 13.4736V15.6805C96.4614 15.5644 96.2284 15.4773 95.9662 15.4482C95.5294 15.3901 95.1216 15.5063 94.8013 15.7386L92.4131 13.2413C92.5004 13.0671 92.5587 12.8929 92.5878 12.7186C92.7043 11.7894 92.0636 10.9473 91.1316 10.8312C90.1996 10.715 89.355 11.3539 89.2385 12.2831C89.1802 12.8348 89.3841 13.3575 89.7627 13.735L88.6851 15.9709C88.6269 15.9709 88.5686 15.9419 88.5104 15.9419C88.2483 15.9128 87.957 15.9419 87.724 16.029L86.3552 13.2123L91.0442 1.39382C91.1607 1.10344 91.3063 0.958254 91.452 0.958254C91.5976 0.958254 91.7141 1.10344 91.8597 1.39382L96.6652 13.4736Z" fill="white"/>
<path d="M96.6659 18.5282V27.8203C96.6659 28.1688 96.6076 28.4011 96.4911 28.5172C96.3746 28.6334 96.1416 28.6915 95.8213 28.6915H87.0839C86.7635 28.6915 86.5305 28.6334 86.414 28.5172C86.2975 28.4011 86.2393 28.1688 86.2393 27.8203V14.9275L86.9965 16.4955C86.7926 16.7278 86.6761 17.0182 86.6179 17.3667C86.5014 18.2959 87.1421 19.138 88.0741 19.2541C89.0061 19.3703 89.8507 18.7314 89.9672 17.8022C90.0255 17.2505 89.8216 16.7278 89.4721 16.3794L90.5497 14.1434C90.608 14.1434 90.6662 14.1725 90.7245 14.1725C91.1322 14.2306 91.5399 14.1144 91.8603 13.9111L94.2777 16.4084C94.1903 16.5536 94.1612 16.7278 94.132 16.902C94.0155 17.8313 94.6563 18.6734 95.5883 18.7895C95.9669 18.8186 96.3455 18.7314 96.6659 18.5282Z" fill="#EA524E"/>
</g>
<path opacity="0.95" d="M5.088 27.072C4.256 27.072 3.504 26.888 2.832 26.52C2.168 26.152 1.644 25.644 1.26 24.996C0.884 24.34 0.696 23.608 0.696 22.8C0.696 21.992 0.884 21.264 1.26 20.616C1.644 19.96 2.172 19.448 2.844 19.08C3.516 18.712 4.268 18.528 5.1 18.528C5.724 18.528 6.3 18.632 6.828 18.84C7.356 19.048 7.804 19.352 8.172 19.752L7.608 20.316C6.952 19.652 6.124 19.32 5.124 19.32C4.46 19.32 3.856 19.472 3.312 19.776C2.768 20.08 2.34 20.496 2.028 21.024C1.724 21.552 1.572 22.144 1.572 22.8C1.572 23.456 1.724 24.048 2.028 24.576C2.34 25.104 2.768 25.52 3.312 25.824C3.856 26.128 4.46 26.28 5.124 26.28C6.132 26.28 6.96 25.944 7.608 25.272L8.172 25.836C7.804 26.236 7.352 26.544 6.816 26.76C6.288 26.968 5.712 27.072 5.088 27.072ZM15.6532 26.256V28.524H14.8492V27H9.19716V28.524H8.39316V26.256H8.75316C9.17716 26.232 9.46516 25.92 9.61716 25.32C9.76916 24.72 9.87316 23.88 9.92916 22.8L10.0132 20.688H14.6692V26.256H15.6532ZM10.7092 22.848C10.6692 23.744 10.5932 24.484 10.4812 25.068C10.3692 25.644 10.1692 26.04 9.88116 26.256H13.8172V21.444H10.7812L10.7092 22.848ZM22.8336 24.108H17.5536C17.6016 24.764 17.8536 25.296 18.3096 25.704C18.7656 26.104 19.3416 26.304 20.0376 26.304C20.4296 26.304 20.7896 26.236 21.1176 26.1C21.4456 25.956 21.7296 25.748 21.9696 25.476L22.4496 26.028C22.1696 26.364 21.8176 26.62 21.3936 26.796C20.9776 26.972 20.5176 27.06 20.0136 27.06C19.3656 27.06 18.7896 26.924 18.2856 26.652C17.7896 26.372 17.4016 25.988 17.1216 25.5C16.8416 25.012 16.7016 24.46 16.7016 23.844C16.7016 23.228 16.8336 22.676 17.0976 22.188C17.3696 21.7 17.7376 21.32 18.2016 21.048C18.6736 20.776 19.2016 20.64 19.7856 20.64C20.3696 20.64 20.8936 20.776 21.3576 21.048C21.8216 21.32 22.1856 21.7 22.4496 22.188C22.7136 22.668 22.8456 23.22 22.8456 23.844L22.8336 24.108ZM19.7856 21.372C19.1776 21.372 18.6656 21.568 18.2496 21.96C17.8416 22.344 17.6096 22.848 17.5536 23.472H22.0296C21.9736 22.848 21.7376 22.344 21.3216 21.96C20.9136 21.568 20.4016 21.372 19.7856 21.372ZM29.7626 20.688V27H28.9106V21.444H25.8866L25.8026 23.004C25.7386 24.316 25.5866 25.324 25.3466 26.028C25.1066 26.732 24.6786 27.084 24.0626 27.084C23.8946 27.084 23.6906 27.052 23.4506 26.988L23.5106 26.256C23.6546 26.288 23.7546 26.304 23.8106 26.304C24.1386 26.304 24.3866 26.152 24.5546 25.848C24.7226 25.544 24.8346 25.168 24.8906 24.72C24.9466 24.272 24.9946 23.68 25.0346 22.944L25.1426 20.688H29.7626ZM34.3567 20.64C35.1807 20.64 35.8127 20.848 36.2527 21.264C36.6927 21.672 36.9127 22.28 36.9127 23.088V27H36.0967V26.016C35.9047 26.344 35.6207 26.6 35.2447 26.784C34.8767 26.968 34.4367 27.06 33.9247 27.06C33.2207 27.06 32.6607 26.892 32.2447 26.556C31.8287 26.22 31.6207 25.776 31.6207 25.224C31.6207 24.688 31.8127 24.256 32.1967 23.928C32.5887 23.6 33.2087 23.436 34.0567 23.436H36.0607V23.052C36.0607 22.508 35.9087 22.096 35.6047 21.816C35.3007 21.528 34.8567 21.384 34.2727 21.384C33.8727 21.384 33.4887 21.452 33.1207 21.588C32.7527 21.716 32.4367 21.896 32.1727 22.128L31.7887 21.492C32.1087 21.22 32.4927 21.012 32.9407 20.868C33.3887 20.716 33.8607 20.64 34.3567 20.64ZM34.0567 26.388C34.5367 26.388 34.9487 26.28 35.2927 26.064C35.6367 25.84 35.8927 25.52 36.0607 25.104V24.072H34.0807C33.0007 24.072 32.4607 24.448 32.4607 25.2C32.4607 25.568 32.6007 25.86 32.8807 26.076C33.1607 26.284 33.5527 26.388 34.0567 26.388ZM39.1808 20.688H40.0328V23.484H44.0048V20.688H44.8568V27H44.0048V24.216H40.0328V27H39.1808V20.688ZM49.8824 27.06C49.2744 27.06 48.7264 26.924 48.2384 26.652C47.7504 26.372 47.3664 25.988 47.0864 25.5C46.8064 25.012 46.6664 24.46 46.6664 23.844C46.6664 23.228 46.8064 22.676 47.0864 22.188C47.3664 21.7 47.7504 21.32 48.2384 21.048C48.7264 20.776 49.2744 20.64 49.8824 20.64C50.4904 20.64 51.0384 20.776 51.5264 21.048C52.0144 21.32 52.3944 21.7 52.6664 22.188C52.9464 22.676 53.0864 23.228 53.0864 23.844C53.0864 24.46 52.9464 25.012 52.6664 25.5C52.3944 25.988 52.0144 26.372 51.5264 26.652C51.0384 26.924 50.4904 27.06 49.8824 27.06ZM49.8824 26.304C50.3304 26.304 50.7304 26.204 51.0824 26.004C51.4424 25.796 51.7224 25.504 51.9224 25.128C52.1224 24.752 52.2224 24.324 52.2224 23.844C52.2224 23.364 52.1224 22.936 51.9224 22.56C51.7224 22.184 51.4424 21.896 51.0824 21.696C50.7304 21.488 50.3304 21.384 49.8824 21.384C49.4344 21.384 49.0304 21.488 48.6704 21.696C48.3184 21.896 48.0384 22.184 47.8304 22.56C47.6304 22.936 47.5304 23.364 47.5304 23.844C47.5304 24.324 47.6304 24.752 47.8304 25.128C48.0384 25.504 48.3184 25.796 48.6704 26.004C49.0304 26.204 49.4344 26.304 49.8824 26.304ZM62.0679 23.736C62.9239 23.936 63.3519 24.452 63.3519 25.284C63.3519 25.836 63.1479 26.26 62.7399 26.556C62.3319 26.852 61.7239 27 60.9159 27H58.0479V20.688H60.8319C61.5519 20.688 62.1159 20.828 62.5239 21.108C62.9319 21.388 63.1359 21.788 63.1359 22.308C63.1359 22.652 63.0399 22.948 62.8479 23.196C62.6639 23.436 62.4039 23.616 62.0679 23.736ZM58.8759 23.496H60.7719C61.2599 23.496 61.6319 23.404 61.8879 23.22C62.1519 23.036 62.2839 22.768 62.2839 22.416C62.2839 22.064 62.1519 21.8 61.8879 21.624C61.6319 21.448 61.2599 21.36 60.7719 21.36H58.8759V23.496ZM60.8799 26.328C61.4239 26.328 61.8319 26.24 62.1039 26.064C62.3759 25.888 62.5119 25.612 62.5119 25.236C62.5119 24.86 62.3879 24.584 62.1399 24.408C61.8919 24.224 61.4999 24.132 60.9639 24.132H58.8759V26.328H60.8799Z" fill="white"/>
</svg>
