<svg width="200" height="88" viewBox="0 0 200 88" fill="none" xmlns="http://www.w3.org/2000/svg">
<path fill-rule="evenodd" clip-rule="evenodd" d="M27.886 6.35531C28.9596 6.7868 30.8461 7.8906 34.6593 6.41552C34.9202 5.53248 32.2108 4.71969 31.0167 4.8401C29.983 5.00584 29.0127 5.44594 28.2071 6.11449L27.886 6.35531ZM21.6946 10.7103V10.5096V10.7103ZM21.6946 10.0179C21.6946 9.15495 21.6946 8.54284 21.6946 8.54284L21.5943 8.03108C21.5943 8.69336 21.6445 9.36567 21.6645 10.038L21.6946 10.0179ZM25.4877 68.6497L25.568 67.0742C23.0192 65.7296 15.5937 72.4026 11.7605 79.3565C7.92728 86.3104 12.6134 65.6794 24.9759 64.0839L25.4977 61.6556C6.26154 65.3784 11.8006 80.37 3.01036 83.3502C2.0187 83.5678 0.991661 83.5678 0 83.3502C0.0964652 82.0388 0.342228 80.7427 0.73252 79.4869C1.06366 78.3029 1.45501 77.1389 1.80621 75.9548L4.87678 65.7698L6.38196 61.5151C7.02417 59.7089 7.88714 58.003 8.56949 56.1968C8.8271 55.5547 9.12194 54.9281 9.45252 54.3204C9.70339 53.8487 9.96428 53.3771 10.2352 52.9155C10.5061 52.4539 10.6567 52.2332 10.8875 51.9121C11.7375 50.6144 12.6587 49.3649 13.647 48.1692L14.5701 47.1657C14.8511 46.8647 15.122 46.5837 15.413 46.3028C16.6868 45.0333 17.8329 43.6418 18.8348 42.1485C19.0574 42.1947 19.2625 42.3025 19.4268 42.4595C19.6609 42.6873 19.9241 42.883 20.2095 43.0415L20.6711 43.3225L23.4708 44.9481L23.6012 45.0384L24.986 45.7709L25.1465 45.8412L29.4814 47.6574C30.1319 47.8787 30.8051 48.0267 31.4883 48.0989C32.4918 48.2294 33.4953 48.3097 34.4987 48.3398C35.8132 48.3398 38.362 48.3398 39.516 47.6775C41.0613 46.674 41.4426 44.5768 41.1616 43.0014C40.9995 42.1554 40.761 41.3258 40.4492 40.5229C40.2631 39.992 40.0244 39.4811 39.7367 38.9976L38.1312 38.5962H37.9305C37.5492 38.5962 37.5291 38.8973 37.5994 39.1481L37.6596 39.399C37.7399 39.69 37.8201 39.981 37.8904 40.272C38.362 42.2287 39.1848 43.2824 37.4689 44.4263C33.8063 46.7644 25.4977 43.2121 22.4171 40.5028C18.8348 37.9039 22.4171 39.9509 22.1261 35.335C22.1261 34.462 21.9957 33.5991 21.9957 32.7261C21.9689 31.6299 22.162 30.5395 22.5635 29.5192C22.9651 28.4989 23.567 27.5694 24.3337 26.7856L25.0863 25.9929C25.156 25.8997 25.2369 25.8154 25.3271 25.742L26.5213 24.8188C26.623 24.7554 26.7305 24.7016 26.8424 24.6583C28.8493 23.6047 31.0468 23.0427 32.9634 21.8888C36.4855 19.7715 37.4589 14.684 36.6461 10.921L36.5558 10.5397H35.8534C32.1306 9.53626 27.6351 9.90754 26.3005 11.0816C26.3005 13.0885 26.1801 15.7878 25.9292 16.0988C25.588 16.8213 22.6881 16.8213 22.2666 16.7109C21.8452 16.6006 21.3635 16.0788 21.3434 15.577C21.4036 15.6473 21.4639 15.6774 21.504 15.6674C21.1829 15.3964 20.932 15.4165 20.3099 15.4265C17.7201 15.6933 15.1147 15.7772 12.5131 15.6774C22.4071 14.9248 9.5027 14.6037 19.5372 14.3027C17.3196 14.7542 12.3926 13.239 18.895 13.4698C18.7445 13.4698 8.64976 12.8677 18.1625 12.4663C7.92728 12.5366 14.6805 11.1719 19.5071 11.2923C13.1954 11.0414 6.51241 9.6366 19.2663 9.95771C7.46569 9.49612 12.3926 8.45253 18.8649 8.43246C14.2791 8.59301 7.48576 7.79025 17.3597 7.42901C13.9279 7.42901 7.8169 6.48576 16.9483 5.67297C13.4764 5.18127 7.13455 4.18786 17.6407 4.24806C13.366 3.87679 9.011 3.00378 18.5237 3.24461C6.03075 2.24116 18.604 1.47853 16.276 1.63909C16.6272 1.68926 20.641 1.36815 20.5607 1.4685C19.7781 0.304495 25.2569 -0.869545 25.2569 0.926635C25.5278 1.21764 25.6884 3.30482 25.9593 5.14114C26.8868 4.14656 28.0348 3.38355 29.3109 2.91347L29.7122 2.74288C30.5746 2.46553 31.4755 2.32666 32.3814 2.33147C33.7624 2.3572 35.1242 2.66001 36.3859 3.22194C37.6477 3.78387 38.7837 4.59347 39.7267 5.60272C41.6531 5.77123 43.5348 6.27733 45.2858 7.09787C45.3819 7.14189 45.4633 7.21258 45.5204 7.30152C45.5775 7.39046 45.6078 7.49392 45.6078 7.5996C45.6078 7.70527 45.5775 7.80873 45.5204 7.89767C45.4633 7.98661 45.3819 8.0573 45.2858 8.10132C44.5934 8.4425 43.7305 8.86395 42.727 9.26533C43.3527 10.2299 43.9125 11.2357 44.4028 12.2757C44.7985 13.1726 45.1141 14.1027 45.346 15.0552C45.7073 16.3397 45.6571 20.4237 45.8879 22.4106C45.998 23.2861 46.0583 24.1672 46.0685 25.0496V25.4209L47.7041 25.0898L47.8547 24.578C48.7477 21.8988 49.0086 18.8784 50.7145 16.721C52.1795 20.5742 51.9889 27.4178 49.3197 29.1036L47.6239 31.3915C46.0337 34.2702 45.0598 37.4482 44.764 40.7236C44.4888 45.5225 44.6197 50.3362 45.1554 55.1131C45.6 59.6179 46.4155 64.0783 47.5938 68.449C48.4668 71.6199 49.7813 75.4731 51.7581 78.1423C52.0735 78.7795 52.4287 79.3962 52.8217 79.9887C53.3034 80.7312 53.8252 81.4537 54.2968 82.1963C54.4072 82.3769 54.8889 83.1997 54.8387 83.3703C54.5276 83.8821 52.9923 84.0025 52.4806 84.0326C50.9193 84.0947 49.3555 84.0309 47.8045 83.8419C46.5 83.6914 45.1855 83.5008 43.891 83.2599C42.9878 83.1019 42.0961 82.884 41.2218 82.6077C40.4472 82.3115 39.7043 81.9384 39.0042 81.4939C38.1613 81.0022 37.3485 80.4904 36.4855 80.0388C34.2833 78.8448 31.805 78.2529 29.3008 78.3229C27.4322 78.4519 25.5979 78.8892 23.8721 79.6174C21.8652 80.3599 19.9587 81.2329 17.9819 81.9855C8.02762 85.7485 20.0691 75.5634 28.779 73.4361L28.5382 71.4894C22.0057 72.1718 19.1559 75.5032 15.0016 78.2928C12.503 79.9686 21.8953 68.2382 25.4877 68.6497ZM21.4036 4.01727C21.4036 3.29478 21.3133 2.72282 21.2632 2.38164C21.2632 1.84981 21.1528 1.27784 21.504 1.37819C22.3589 1.53247 23.2361 1.51199 24.0829 1.31798C24.3638 1.19757 24.3939 1.36815 24.6749 1.44843C25.0488 2.9166 25.2675 4.42 25.3271 5.93386C25.2067 6.11449 24.6047 6.44562 24.4842 6.62625C24.4284 5.11972 24.2539 3.61994 23.9624 2.14081C23.6563 2.14869 23.3511 2.17887 23.0493 2.23112C22.4472 2.32143 22.7081 2.23112 22.367 2.30137C22.367 2.30137 22.367 2.96364 22.6279 8.59301C22.6279 9.10478 21.9054 9.59647 21.9254 10.028C21.9254 10.028 21.7147 9.2854 21.6746 9.2854C21.6043 7.54942 21.6144 6.27504 21.4137 4.05741L21.4036 4.01727ZM25.5379 10.319V10.5096C25.4476 10.5096 24.9157 10.5096 24.8355 10.5096C24.8355 11.6435 24.8355 12.7774 24.8355 13.831C24.8355 14.4431 25.568 14.6338 25.5579 13.9213C25.5579 12.7874 25.5579 11.5632 25.5579 10.339L25.5379 10.319ZM22.5275 10.5497C22.6178 13.3795 22.7282 14.8947 22.658 15.3463C22.658 15.5269 21.7248 15.5068 21.7248 15.4065C21.785 14.3027 21.7749 12.657 21.7248 10.5698C21.7248 10.5698 22.5074 10.5698 22.5476 10.5698L22.5275 10.5497ZM25.5379 15.276C25.6282 15.1656 25.5379 14.6338 25.4777 14.7442C24.7755 14.8934 24.0578 14.9574 23.3403 14.9348C22.9289 14.9348 22.949 15.7276 23.1898 15.6975C23.8822 15.6975 25.1967 15.6975 25.5379 15.276ZM41.282 8.1816C41.4788 8.25259 41.6896 8.27596 41.8972 8.2498C42.1047 8.22364 42.3031 8.14868 42.4762 8.03108C42.5315 7.86373 42.5467 7.68571 42.5206 7.5114C42.4944 7.33709 42.4277 7.17137 42.3256 7.02763C42.1295 6.9522 41.9184 6.9238 41.7093 6.94472C41.5001 6.96563 41.2988 7.03526 41.1215 7.14804C41.0525 7.3255 41.031 7.5179 41.0592 7.70621C41.0873 7.89453 41.1641 8.07223 41.282 8.22174V8.1816ZM34.2579 26.896C32.7828 26.1033 30.5652 28.5818 30.7458 29.2441C31.0067 30.2475 33.1741 32.144 34.3281 31.542C33.7662 30.5787 33.8866 27.9496 34.2177 26.896H34.2579Z" fill="white"/>
<path fill-rule="evenodd" clip-rule="evenodd" d="M28.3676 6.38544C27.625 7.06717 26.9831 7.85102 26.4611 8.71345C26.1751 9.32232 25.9726 9.967 25.859 10.63L25.7888 10.9411H25.4677C25.2525 10.9316 25.0412 10.8805 24.8455 10.7906C24.7151 10.7204 24.6348 10.62 24.5244 10.5498C24.3729 10.49 24.2043 10.49 24.0528 10.5498C23.8499 10.6195 23.6548 10.7103 23.4708 10.8207C23.3455 10.9031 23.2147 10.9768 23.0794 11.0415C22.9092 11.1278 22.7153 11.156 22.5276 11.1217C22.176 11.0911 21.8345 10.9886 21.5241 10.8207C21.4 10.772 21.2891 10.6949 21.2002 10.5955C21.1114 10.4962 21.047 10.3774 21.0123 10.2487C21.0024 10.2194 21.0024 10.1877 21.0123 10.1584C21.0114 10.0824 21.0271 10.0071 21.0583 9.93775C21.0895 9.86842 21.1354 9.80675 21.193 9.75704C21.5121 9.52097 21.873 9.34734 22.2566 9.24528C22.4974 9.24528 22.3971 9.06466 22.5978 8.91414C22.7985 8.76362 22.8286 8.77366 22.949 8.583C23.7886 6.94044 24.7618 5.36976 25.859 3.88684L25.9895 5.14116L27.9161 6.35533L28.3676 6.38544Z" fill="white"/>
<path fill-rule="evenodd" clip-rule="evenodd" d="M25.9589 5.14111C24.9994 6.4212 24.1565 7.78465 23.4402 9.21513C23.3089 9.45482 23.1316 9.66624 22.9184 9.83727C22.6161 10.015 22.2615 10.0824 21.915 10.0279C21.739 9.99739 21.5591 9.99739 21.3832 10.0279C21.3775 10.0712 21.3775 10.1151 21.3832 10.1584C21.3832 10.2688 21.624 10.4092 21.7043 10.4594C21.9798 10.6005 22.2793 10.689 22.5873 10.7203C22.71 10.7388 22.8355 10.7214 22.9486 10.6701C23.069 10.6099 23.1994 10.5196 23.3198 10.4494C23.5291 10.3188 23.7553 10.2175 23.9921 10.1483C24.1129 10.0912 24.2449 10.0615 24.3785 10.0615C24.5121 10.0615 24.644 10.0912 24.7648 10.1483C24.8549 10.2306 24.9523 10.3045 25.0558 10.3691C25.2071 10.4385 25.371 10.4761 25.5375 10.4795C25.6592 9.78567 25.8718 9.11091 26.1696 8.47258C26.6399 7.66104 27.2322 6.92664 27.9257 6.29508L25.9589 5.14111Z" fill="white"/>
<path fill-rule="evenodd" clip-rule="evenodd" d="M13.7276 17.0622L13.8681 16.8113C13.8681 16.8113 13.9384 16.8113 13.9384 16.7009C13.9384 16.5905 13.9384 16.6206 14.0186 16.5805C17.4003 24.9092 14.4903 27.0967 13.2761 26.2739C12.0619 25.451 11.1387 25.3708 13.7276 17.0622Z" fill="white"/>
<path fill-rule="evenodd" clip-rule="evenodd" d="M19.6071 15.4767L19.4365 15.3161C19.4365 15.3161 19.3662 15.3161 19.3462 15.2559C19.3261 15.1957 19.286 15.2559 19.2559 15.1857C19.3963 16.721 19.6873 20.6043 19.8579 21.8285C20.2794 24.8389 22.0053 24.1666 22.2863 22.8822C22.5673 21.5977 19.8278 16.8113 19.6071 15.4767Z" fill="white"/>
<path fill-rule="evenodd" clip-rule="evenodd" d="M18.3534 17.8448C20.1396 21.7182 16.3465 22.7216 16.2061 17.022L16.2562 16.7812L16.4268 15.4064C17.2855 16.022 17.9532 16.8671 18.3534 17.8448Z" fill="white"/>
<path fill-rule="evenodd" clip-rule="evenodd" d="M18.0625 27.5181C16.9687 27.7088 16.6878 25.7721 16.7379 24.8891L17.059 22.5309C20.3203 25.9226 19.2566 26.8759 18.0625 27.5181Z" fill="white"/>
<path fill-rule="evenodd" clip-rule="evenodd" d="M14.831 15.8078C15.9147 16.0587 16.0552 14.9348 16.0552 14.0518L15.8545 11.6736C15.3929 12.8878 12.3926 14.8044 14.831 15.8078Z" fill="white"/>
<path fill-rule="evenodd" clip-rule="evenodd" d="M17.8819 36.3285C20.6213 37.0911 20.3805 34.1309 17.5507 31.2209C17.2397 32.8665 16.758 34.8233 17.8819 36.3285Z" fill="white"/>
<path fill-rule="evenodd" clip-rule="evenodd" d="M20.7618 31.4115C18.2732 31.4115 18.9054 29.4949 18.8552 28.4012C20.24 27.9195 22.6282 29.8261 20.7618 31.4115Z" fill="white"/>
<path fill-rule="evenodd" clip-rule="evenodd" d="M16.6275 38.8672C16.5472 38.4056 15.624 36.5091 15.5136 36.0274C12.0417 43.473 18.7147 42.6201 16.6275 38.8672Z" fill="white"/>
<path d="M73.4021 75.1152C73.5738 76.3389 74.1965 76.4248 74.4541 76.4248C75.592 76.4248 75.0553 74.4496 74.862 73.6123L74.54 72.1738C74.2823 71.0359 74.2179 70.95 73.8744 69.4685C73.6812 68.5453 73.5524 67.8798 73.3806 67.3001L73.1659 66.5701C73.08 66.291 72.9083 66.1622 72.6077 66.1622C72.028 66.1622 72.0495 66.613 71.7274 67.4504L71.298 68.5883C71.1477 68.9962 70.8686 69.7477 69.4945 73.6767C68.0131 69.9624 68.0131 68.4165 67.7555 67.5577L67.4978 66.6774C67.3046 65.9904 67.0899 66.0763 66.8967 66.0763C66.3384 66.0763 65.909 65.7972 65.4796 67.4074L65.1146 68.803C64.7497 70.1771 64.535 71.9591 64.17 75.1152L64.0841 75.8666C63.9767 76.7469 64.3847 76.8328 64.5994 76.8328C64.9644 76.8328 65.5011 76.6395 65.5226 76.1457L65.544 75.3299C65.6085 72.8179 65.5226 71.0788 66.4458 68.7386C66.7464 69.9838 67.4334 72.5388 67.8413 73.7625L68.1634 74.7287C68.464 75.6519 68.5928 75.7593 68.9148 75.7593C69.5589 75.7593 69.4516 75.3943 72.1139 68.5453C72.393 69.4685 72.8224 71.1217 72.9297 71.9161L73.4021 75.1152Z" fill="white"/>
<path d="M84.724 74.6213C85.4754 74.3637 86.3986 73.9772 86.3986 73.462C86.3986 73.2043 86.141 72.9896 85.9048 72.9896C85.6257 72.9896 85.046 73.3117 84.7884 73.5264V69.1894C84.7884 67.7295 84.8313 65.2819 81.9758 65.2819C80.022 65.2819 76.9948 66.4627 76.9948 67.2571C76.9948 67.9442 77.7033 67.6007 78.0683 67.4074C79.4423 66.656 80.6447 66.3983 81.3746 66.3983C82.942 66.3983 83.2855 67.2786 83.2855 68.3521V70.2629C79.8932 69.4471 76.1145 71.5726 76.1145 74.2564C76.1145 76.0384 78.0683 76.4463 79.0344 76.4463C80.5373 76.4463 81.8899 75.9095 83.1567 75.0722C82.7917 75.7593 82.7702 76.9616 83.6934 76.9616C84.8098 76.9616 84.724 76.0598 84.724 75.2654V74.6213ZM83.1781 74.1275C81.9114 74.8575 80.1509 75.2869 79.2276 75.2869C78.0253 75.2869 77.7033 74.3208 77.7033 73.8055C77.7033 72.5388 79.5282 71.2291 81.117 71.2291C83.3499 71.2291 83.1781 72.7964 83.1781 73.462V74.1275Z" fill="white"/>
<path d="M95.2877 64.8525C95.3521 64.831 95.3736 64.6807 95.3736 64.6163C95.3736 64.5304 95.3521 64.4231 95.2877 64.4231C94.751 64.4231 90.6287 65.2604 88.31 66.248L87.3009 66.6774C86.8071 66.8921 86.3777 67.0639 86.3777 67.6651C86.3777 68.2018 86.9573 67.9442 87.0862 67.8798L87.8806 67.5148L87.9879 70.4776C88.0953 73.7196 87.6229 77.6486 89.0185 77.6486C89.684 77.6486 89.6411 76.5751 89.6411 74.5999C89.6411 73.0111 89.5337 70.7353 89.1258 67.1283C90.8434 66.3769 92.926 65.5825 94.6007 65.0672L95.2877 64.8525Z" fill="white"/>
<path d="M101.665 74.6213C102.417 74.3637 103.34 73.9772 103.34 73.462C103.34 73.2043 103.082 72.9896 102.846 72.9896C102.567 72.9896 101.987 73.3117 101.73 73.5264V69.1894C101.73 67.7295 101.772 65.2819 98.917 65.2819C96.9632 65.2819 93.9359 66.4627 93.9359 67.2571C93.9359 67.9442 94.6444 67.6007 95.0094 67.4074C96.3835 66.656 97.5858 66.3983 98.3158 66.3983C99.8831 66.3983 100.227 67.2786 100.227 68.3521V70.2629C96.8344 69.4471 93.0557 71.5726 93.0557 74.2564C93.0557 76.0384 95.0094 76.4463 95.9756 76.4463C97.4785 76.4463 98.8311 75.9095 100.098 75.0722C99.7328 75.7593 99.7114 76.9616 100.635 76.9616C101.751 76.9616 101.665 76.0598 101.665 75.2654V74.6213ZM100.119 74.1275C98.8526 74.8575 97.092 75.2869 96.1688 75.2869C94.9665 75.2869 94.6444 74.3208 94.6444 73.8055C94.6444 72.5388 96.4694 71.2291 98.0582 71.2291C100.291 71.2291 100.119 72.7964 100.119 73.462V74.1275Z" fill="white"/>
<path d="M103.984 67.0854C103.727 67.2142 103.276 67.4289 103.276 67.8583C103.276 68.438 104.07 68.3092 104.414 68.073L105.122 67.6007C105.723 67.1927 106.518 66.8492 107.14 66.8492C108.429 66.8492 108.45 67.7939 108.45 68.1374C108.45 68.8244 107.892 69.533 106.539 70.8212L105.659 71.6585C105.444 71.8732 105.23 71.9805 105.23 72.3241C105.23 72.6676 105.573 72.8823 105.938 72.689L106.754 72.2596C107.291 71.9805 108.235 71.68 108.88 71.68C110.468 71.68 111.327 72.8823 111.327 74.4711C111.327 76.4892 109.695 79.1086 103.684 80.4612L102.245 80.7832C102.117 80.8047 101.837 80.9121 101.837 80.9979C101.837 81.1268 101.988 81.0623 102.117 81.0409L102.825 80.9765C110.082 80.3109 112.937 76.7039 112.937 73.7625C112.937 69.9409 109.459 70.0912 107.226 71.1217C108.472 70.3273 109.975 68.7171 109.975 67.386C109.975 66.3339 109.245 65.7542 108.042 65.7542C106.625 65.7542 106.088 66.1192 104.972 66.6345L103.984 67.0854Z" fill="white"/>
<path d="M121.802 73.5478C121.394 71.8947 121.416 70.1126 121.416 69.49V67.6436C121.416 66.7848 121.33 66.1622 120.707 66.1622C119.87 66.1622 119.87 67.1498 119.891 68.0301L119.934 69.8121C119.977 71.4438 120.127 74.9863 117.895 74.9863C115.876 74.9863 115.962 72.4099 115.962 71.2291V68.2448C115.962 65.9689 115.791 66.0119 115.189 66.0119C114.996 66.0119 114.266 65.9689 114.288 67.9012L114.309 70.6494C114.331 74.0417 114.739 76.4892 116.886 76.4892C118.195 76.4892 119.548 75.2225 120.235 73.9128C120.256 75.7163 120.815 76.9401 121.394 76.9401C122.79 76.9401 122.167 75.0507 122.06 74.6213L121.802 73.5478Z" fill="white"/>
<path d="M125.459 71.2506C125.438 69.2753 125.459 68.6956 125.481 68.2662C125.524 67.6436 125.567 67.2357 125.567 66.5272C125.567 65.8186 125.223 65.6469 125.008 65.6469C124.235 65.6469 124.15 66.7633 124.15 67.6651C124.15 68.1159 124.128 68.7386 124.171 71.6585C123.484 71.9376 123.119 71.9805 123.119 72.689C123.119 72.8179 123.162 73.054 123.441 73.054C123.57 73.054 124.128 72.9252 124.429 72.8393C124.515 75.566 124.6 75.3728 124.6 75.8451V76.4678C124.6 76.9401 124.686 77.2836 125.266 77.2836C125.567 77.2836 126.125 77.1548 126.125 76.4678C126.125 75.1366 125.717 73.784 125.61 72.4314C128.487 70.7997 128.701 70.4776 130.097 69.8765C130.354 70.9714 130.226 71.4008 130.247 71.9805L130.376 75.244C130.419 76.4463 131.063 76.7039 131.321 76.7039C132.48 76.7039 132.051 75.0293 131.943 73.8914L131.814 72.4099C131.707 71.1003 131.492 70.7138 131.385 67.1713C131.342 65.7542 131.514 65.8831 131.514 65.4537C131.514 64.9384 131.17 64.831 130.891 64.831C130.204 64.831 130.054 65.6469 130.14 68.803C129.045 69.6403 128.422 69.855 127.37 70.3488L125.459 71.2506Z" fill="white"/>
<path d="M145.726 67.3001C144.266 69.3827 141.797 70.5635 140.487 71.0788C140.337 68.1803 140.358 67.7724 140.294 66.978C140.229 66.1836 139.95 66.248 139.542 66.248C139.199 66.248 138.941 66.3339 138.941 67.343C138.941 67.386 138.941 67.4289 138.941 67.4718C138.941 68.0301 138.984 68.5883 139.027 69.1465C139.113 70.542 139.134 72.367 139.177 74.836C139.22 76.6825 139.177 76.983 139.993 76.983C140.938 76.983 141.024 76.3389 141.024 75.8666C141.024 75.0937 140.702 72.9252 140.616 72.4314C144.201 71.5941 146.52 74.1919 146.864 76.2531C146.928 76.5966 146.949 76.8542 147.422 76.8542C148.173 76.8542 148.195 76.2745 148.195 76.0169C148.195 73.3331 145.468 70.3918 141.002 71.5297C145.146 70.2844 147.486 67.5577 147.486 66.2051C147.486 65.6469 146.756 65.8401 146.391 66.3554L145.726 67.3001Z" fill="white"/>
<path d="M150.028 79.8171C150.114 82.3076 150.178 83.3167 150.178 84.2399C150.178 84.7552 150.114 85.2919 150.114 85.8072C150.114 86.4728 150.415 87.0954 150.908 87.0954C151.488 87.0954 152.454 86.1722 152.111 84.9484L151.918 84.2614C151.488 82.7155 151.273 76.5751 151.252 74.3208C152.132 72.3241 154.322 69.1894 155.782 68.0086L156.448 67.4718C157.521 66.613 158.466 67.2571 158.466 68.9318C158.466 70.5206 158.036 73.2043 154.752 75.0293L153.442 75.7593C153.206 75.8881 153.034 76.2316 153.034 76.4892C153.034 76.7039 153.163 76.7254 153.356 76.7254C156.212 76.7254 160.098 72.9037 160.098 68.4809C160.098 66.3125 158.595 65.8186 157.478 65.8186C155.224 65.8186 152.605 69.3612 151.23 72.0879C151.166 68.6097 151.381 67.8154 151.381 66.1622C151.381 65.1745 151.188 64.9598 150.608 64.9598C149.663 64.9598 149.556 65.5825 149.663 68.8244L150.028 79.8171Z" fill="white"/>
<path d="M169.786 74.6213C170.538 74.3637 171.461 73.9772 171.461 73.462C171.461 73.2043 171.203 72.9896 170.967 72.9896C170.688 72.9896 170.108 73.3117 169.851 73.5264V69.1894C169.851 67.7295 169.894 65.2819 167.038 65.2819C165.084 65.2819 162.057 66.4627 162.057 67.2571C162.057 67.9442 162.766 67.6007 163.131 67.4074C164.505 66.656 165.707 66.3983 166.437 66.3983C168.004 66.3983 168.348 67.2786 168.348 68.3521V70.2629C164.956 69.4471 161.177 71.5726 161.177 74.2564C161.177 76.0384 163.131 76.4463 164.097 76.4463C165.6 76.4463 166.952 75.9095 168.219 75.0722C167.854 75.7593 167.832 76.9616 168.756 76.9616C169.872 76.9616 169.786 76.0598 169.786 75.2654V74.6213ZM168.24 74.1275C166.974 74.8575 165.213 75.2869 164.29 75.2869C163.088 75.2869 162.766 74.3208 162.766 73.8055C162.766 72.5388 164.591 71.2291 166.179 71.2291C168.412 71.2291 168.24 72.7964 168.24 73.462V74.1275Z" fill="white"/>
<path d="M180.006 75.201C180.157 75.0722 180.35 74.9649 180.35 74.7502C180.35 74.5999 180.286 74.6213 180.157 74.6213C179.878 74.6213 179.727 74.7716 179.405 74.9434C178.847 75.2654 178.16 75.609 177.215 75.609C175.455 75.609 173.501 74.5569 173.501 71.9805C173.501 69.5759 175.262 66.9566 177.859 66.9566C178.096 66.9566 178.332 66.978 178.547 67.1068C178.675 67.1927 178.783 67.3001 178.933 67.3001C179.126 67.3001 179.105 67.1498 179.105 67.021C179.105 66.5272 178.783 65.6469 177.537 65.6469C175.262 65.6469 171.912 68.4809 171.912 72.2382C171.912 74.5355 173.415 76.7039 175.863 76.7039C178.117 76.7039 179.513 75.5875 180.006 75.201Z" fill="white"/>
<path d="M185.34 66.5916C187.186 66.8277 188.067 68.76 188.067 70.6494C188.067 73.419 186.714 75.1796 185.233 75.1796C184.095 75.1796 182.055 74.0417 182.055 71.272C182.055 69.9409 182.399 68.8674 183.129 67.8798L183.429 67.4718C183.494 67.4074 183.515 67.3215 183.601 67.2571L183.622 67.2357C183.622 67.1713 183.279 66.7633 183.193 66.7419C183.15 66.7204 183.086 66.7419 183.043 66.7419C181.969 66.9566 180.595 69.9624 180.595 71.7873C180.595 74.4066 182.635 76.5966 184.76 76.5966C187.079 76.5966 189.054 73.9772 189.054 70.6494C189.054 67.7724 187.551 65.8831 186.005 65.8831C185.233 65.8831 184.138 66.4413 184.825 66.5272L185.34 66.5916Z" fill="white"/>
<path d="M197.304 67.3001C195.844 69.3827 193.375 70.5635 192.065 71.0788C191.915 68.1803 191.936 67.7724 191.872 66.978C191.808 66.1836 191.528 66.248 191.121 66.248C190.777 66.248 190.519 66.3339 190.519 67.343C190.519 67.386 190.519 67.4289 190.519 67.4718C190.519 68.0301 190.562 68.5883 190.605 69.1465C190.691 70.542 190.713 72.367 190.756 74.836C190.799 76.6825 190.756 76.983 191.571 76.983C192.516 76.983 192.602 76.3389 192.602 75.8666C192.602 75.0937 192.28 72.9252 192.194 72.4314C195.78 71.5941 198.098 74.1919 198.442 76.2531C198.506 76.5966 198.528 76.8542 199 76.8542C199.752 76.8542 199.773 76.2745 199.773 76.0169C199.773 73.3331 197.046 70.3918 192.581 71.5297C196.724 70.2844 199.064 67.5577 199.064 66.2051C199.064 65.6469 198.334 65.8401 197.969 66.3554L197.304 67.3001Z" fill="white"/>
<path d="M64.3447 39.1901C64.3447 35.8458 65.0028 32.9648 66.3191 30.5473C67.6487 28.1163 69.4821 26.2695 71.8191 25.007C74.1695 23.7445 76.849 23.1132 79.8575 23.1132C80.9723 23.1132 82.0535 23.1669 83.1011 23.2744C84.1487 23.3818 85.4045 23.5296 86.8685 23.7176C87.4595 23.7982 88.0236 23.8721 88.5608 23.9392C89.098 23.9929 89.5144 24.0198 89.8099 24.0198L89.2659 34.1333H84.048L82.4766 27.2231C81.9393 26.659 80.9521 26.3769 79.515 26.3769C77.6884 26.3769 76.2714 27.391 75.2641 29.4191C74.2568 31.4337 73.7531 34.4758 73.7531 38.5454C73.7531 41.1376 73.9747 43.3873 74.418 45.2945C74.8612 47.1883 75.5193 48.659 76.3923 49.7066C77.2788 50.7408 78.36 51.2579 79.6359 51.2579C80.5895 51.2579 81.3081 51.1571 81.7916 50.9557C82.2751 50.7408 82.6915 50.4453 83.0407 50.0692L85.015 45.4355L89.7293 45.8384L89.0645 52.9703C88.5809 53.024 88.1176 53.0979 87.6744 53.1919C87.2446 53.2859 86.7006 53.4202 86.0425 53.5948C84.8874 53.9038 83.8062 54.1388 82.7989 54.3C81.805 54.4746 80.5694 54.5619 79.092 54.5619C75.8148 54.5619 73.0749 53.9373 70.8722 52.6883C68.6829 51.4257 67.0444 49.6461 65.9564 47.3494C64.882 45.0527 64.3447 42.333 64.3447 39.1901Z" fill="white"/>
<path d="M118.901 50.5729L122.83 51.0362V54.0985H106.31V51.0362L110.682 50.5527L110.661 27.3238H103.63V29.9026C103.63 34.4557 103.415 38.6462 102.986 42.474C102.569 46.3018 101.891 49.1693 100.951 51.0765C99.8495 53.2926 98.1908 54.4007 95.9747 54.4007C94.5645 54.4007 93.3892 54.3067 92.4491 54.1187L91.9253 49.8879C92.0461 49.9013 92.4222 49.9282 93.0535 49.9685C93.6982 50.0088 94.4167 50.0289 95.2091 50.0289C95.7867 50.0289 96.2702 49.908 96.6597 49.6663C97.0492 49.4111 97.4051 48.9209 97.7274 48.1956C98.4259 46.6376 98.9765 44.361 99.3795 41.3659C99.7958 38.3574 100.004 34.1199 100.004 28.6535V27.3238L94.7055 26.6993V23.4356H122.669V26.6993L118.901 27.3238V50.5729Z" fill="white"/>
<path d="M124.099 38.767C124.099 35.5839 124.67 32.8104 125.812 30.4465C126.967 28.0692 128.619 26.2359 130.768 24.9465C132.93 23.6572 135.482 23.0125 138.423 23.0125C143.339 23.0125 146.912 24.322 149.141 26.941C151.384 29.5467 152.506 33.2939 152.506 38.1828C152.506 41.3794 151.921 44.2133 150.753 46.6846C149.598 49.1559 147.939 51.0832 145.777 52.4666C143.614 53.85 141.069 54.5484 138.141 54.5619C133.266 54.5753 129.707 53.1986 127.464 50.4318C125.221 47.6516 124.099 43.7634 124.099 38.767ZM133.266 38.7267C133.266 43.2664 133.689 46.5369 134.535 48.5381C135.395 50.5259 136.637 51.5198 138.262 51.5198C139.887 51.5198 141.136 50.3781 142.009 48.0949C142.882 45.8116 143.319 42.5143 143.319 38.2029C143.319 35.1541 143.117 32.7365 142.715 30.9502C142.325 29.1639 141.768 27.9014 141.042 27.1627C140.317 26.424 139.411 26.0546 138.323 26.0546C136.671 26.0546 135.415 27.1022 134.555 29.1975C133.696 31.2927 133.266 34.4691 133.266 38.7267Z" fill="white"/>
<path d="M157.683 50.5729V27.2835L154.883 26.6993V23.4356H169.308V26.6993L166.024 27.2835V36.5711H175.755V27.3037L172.733 26.6993V23.4356H187.037V26.6993L184.095 27.2835V50.5729L187.037 51.0362V54.0985H172.753V51.0362L175.755 50.5527V40.5198H166.024V50.5729L169.308 51.0362V54.0985H154.843V51.0362L157.683 50.5729Z" fill="white"/>
</svg>
