<svg width="55" height="71" viewBox="0 0 55 71" fill="none" xmlns="http://www.w3.org/2000/svg">
<path d="M27.5 70.3053C27.3088 70.1191 27.0419 69.857 26.7093 69.5247C25.9847 68.8008 24.9486 67.7444 23.7047 66.4166C21.2165 63.7604 17.9 60.0212 14.5846 55.6875C11.2681 51.3523 7.96037 46.4319 5.48352 41.4134C3.00397 36.3894 1.375 31.3026 1.375 26.625C1.375 19.6962 4.12745 13.0512 9.02684 8.15184C13.9262 3.25245 20.5712 0.5 27.5 0.5C34.4288 0.5 41.0738 3.25245 45.9732 8.15184C50.8726 13.0512 53.625 19.6962 53.625 26.625C53.625 31.3026 51.996 36.3894 49.5165 41.4134C47.0396 46.4319 43.7319 51.3523 40.4154 55.6875C37.1 60.0212 33.7835 63.7604 31.2953 66.4166C30.0514 67.7444 29.0153 68.8008 28.2907 69.5247C27.9581 69.857 27.6912 70.1191 27.5 70.3053ZM27.5 40.4375C31.1633 40.4375 34.6766 38.9823 37.2669 36.3919C39.8573 33.8016 41.3125 30.2883 41.3125 26.625C41.3125 22.9617 39.8573 19.4484 37.2669 16.8581C34.6766 14.2677 31.1633 12.8125 27.5 12.8125C23.8367 12.8125 20.3234 14.2677 17.7331 16.8581C15.1427 19.4484 13.6875 22.9617 13.6875 26.625C13.6875 30.2883 15.1427 33.8016 17.7331 36.3919C20.3234 38.9823 23.8367 40.4375 27.5 40.4375Z" fill="#F5DF4D" stroke="black"/>
</svg>
