<svg width="51" height="51" viewBox="0 0 51 51" fill="none" xmlns="http://www.w3.org/2000/svg">
<g clip-path="url(#clip0)">
<path d="M50.2739 13.3924C50.2738 13.3924 50.2738 13.3924 50.2737 13.3924L50.272 13.3907L46.9801 12.921C46.5174 12.8551 46.1958 12.4266 46.2617 11.9639C46.2933 11.7415 46.4121 11.541 46.5917 11.4062L49.2523 9.41077C49.6262 9.13034 49.702 8.59996 49.4215 8.22603L46.3751 4.16405C46.0946 3.79012 45.5643 3.71438 45.1903 3.9948L42.5306 5.99025C42.1582 6.27279 41.6274 6.20001 41.3449 5.82766C41.2077 5.64688 41.1489 5.4185 41.1817 5.19393L41.6522 1.90204C41.7185 1.43935 41.3972 1.01063 40.9347 0.944196C40.9343 0.944196 40.934 0.94409 40.9337 0.94409L35.9104 0.226474C35.4478 0.160044 35.0189 0.481194 34.9525 0.943878C34.9525 0.943984 34.9525 0.943984 34.9525 0.94409L34.4819 4.23598C34.416 4.69867 33.9875 5.02035 33.5248 4.95444C33.3025 4.92282 33.1019 4.80402 32.9672 4.62441L30.9726 1.96381C30.6921 1.58988 30.1618 1.51414 29.7878 1.79457L27.2449 3.70285C26.0944 3.58057 24.9342 3.58057 23.7837 3.70285C16.2494 4.56401 10.341 10.5726 9.60657 18.1203C9.58372 18.3598 9.57526 18.5976 9.56341 18.8354H9.30954C8.908 18.8361 8.5622 19.119 8.48191 19.5124L7.89716 22.2932L5.55475 20.6777C5.21858 20.4457 4.76457 20.4871 4.47579 20.7758L1.93706 23.3146C1.6487 23.6032 1.60744 24.0566 1.83889 24.3927L3.44676 26.7309L0.66515 27.3156C0.276089 27.4009 -0.000844311 27.7458 1.93412e-06 28.1441V31.5291C-0.000209627 31.9293 0.280215 32.275 0.67192 32.3575L3.45353 32.9423L1.84566 35.2805C1.61421 35.6165 1.65547 36.0699 1.94383 36.3586L4.48256 38.8973C4.77134 39.1861 5.22535 39.2275 5.56152 38.9955L7.8997 37.3834L8.48445 40.165C8.56474 40.5584 8.91054 40.8413 9.31208 40.842H12.6971C13.0973 40.8422 13.443 40.5618 13.5255 40.1701L14.1103 37.3885L16.4485 38.9963C16.7845 39.2278 17.2379 39.1865 17.5266 38.8982L18.8408 37.5797V39.9915C18.8446 41.1954 19.4895 42.306 20.5333 42.906V47.6077C20.5333 49.4772 22.0488 50.9927 23.9183 50.9927H27.3032C29.1727 50.9927 30.6882 49.4772 30.6882 47.6077V42.906C31.732 42.306 32.3769 41.1954 32.3807 39.9915V36.6421C32.4037 35.2328 33.141 33.9317 34.3381 33.1877C35.0404 32.7321 35.7064 32.2228 36.3301 31.6645L35.2012 30.4036C34.6433 30.9037 34.0471 31.3595 33.4182 31.7669C31.7379 32.8215 30.7093 34.6583 30.6882 36.6421V39.9915C30.6882 40.9263 29.9305 41.684 28.9957 41.684H22.2258C21.291 41.684 20.5333 40.9263 20.5333 39.9915V36.5718C20.5137 34.6256 19.5013 32.8242 17.849 31.7956C11.1418 27.5811 9.12093 18.7274 13.3354 12.0202C15.9503 7.85865 20.5139 5.32573 25.4288 5.30817C25.4162 5.33832 25.4051 5.3691 25.3958 5.40042C25.3644 5.62255 25.4226 5.84818 25.5574 6.02748L27.552 8.68723C27.7623 8.9594 27.7825 9.33323 27.6028 9.62656C27.4298 9.92169 27.0952 10.0827 26.7566 10.0336L23.4647 9.56309C23.002 9.49677 22.5733 9.81802 22.5068 10.2806C22.5068 10.2809 22.5067 10.2812 22.5067 10.2816L21.7883 15.3074C21.7219 15.77 22.0432 16.1988 22.5058 16.2652C22.5061 16.2652 22.5064 16.2654 22.5067 16.2654L25.7986 16.7359C26.2613 16.8018 26.583 17.2303 26.5171 17.693C26.4855 17.9153 26.3667 18.1159 26.187 18.2506L23.5273 20.2452C23.1534 20.5257 23.0776 21.0561 23.358 21.43L26.4045 25.492C26.685 25.8659 27.2153 25.9416 27.5893 25.6612L30.2499 23.6666C30.6241 23.3867 31.1545 23.4632 31.4344 23.8376C31.5683 24.0166 31.626 24.2415 31.5946 24.4629L31.1249 27.7548C31.0585 28.2174 31.3796 28.6463 31.8423 28.7128C31.8424 28.7128 31.8424 28.7128 31.8425 28.7128L36.8692 29.4312C36.9088 29.4363 36.9486 29.4388 36.9885 29.4388C37.4098 29.4394 37.7673 29.1299 37.8271 28.7128L38.2968 25.4209C38.3627 24.9582 38.7912 24.6365 39.2539 24.7024C39.4763 24.734 39.6768 24.8528 39.8116 25.0324L41.807 27.6922C42.0875 28.0661 42.6178 28.1419 42.9918 27.8614L47.0538 24.815C47.4277 24.5345 47.5034 24.0042 47.223 23.6302L45.2284 20.9705C45.0191 20.6979 44.9989 20.3247 45.1776 20.0311C45.347 19.7321 45.6846 19.57 46.0239 19.6249L49.3158 20.0946C49.7783 20.161 50.2073 19.8398 50.2737 19.3772C50.2737 19.3771 50.2737 19.3771 50.2737 19.377L50.9913 14.3503C51.0578 13.8876 50.7366 13.4588 50.2739 13.3924ZM22.2258 43.3765H28.9957V45.069H22.2258V43.3765ZM22.2258 46.7615H28.9957V47.6077C28.9957 48.5425 28.238 49.3002 27.3032 49.3002H23.9183C22.9835 49.3002 22.2258 48.5425 22.2258 47.6077V46.7615ZM15.4888 32.168C15.9509 32.5458 16.4337 32.8977 16.9351 33.2216C17.7346 33.7269 18.3365 34.4914 18.6402 35.3871L16.825 37.1989L15.0674 35.9871C14.2977 35.4567 13.2438 35.6507 12.7133 36.4204C12.5862 36.605 12.4969 36.8129 12.4508 37.0322L12.0074 39.1453H9.99585L9.55241 37.0356C9.35989 36.1209 8.46234 35.5354 7.54766 35.7279C7.32838 35.774 7.12041 35.8633 6.93582 35.9905L5.17733 37.1989L3.63547 35.6604L4.84645 33.9036C5.37736 33.1343 5.18399 32.0803 4.41465 31.5494C4.22996 31.4219 4.02178 31.3324 3.80218 31.2862L1.69249 30.8419V28.8312L3.80218 28.387C4.71655 28.1931 5.30067 27.2947 5.10677 26.3802C5.06076 26.1632 4.97264 25.9575 4.84729 25.7746L3.63547 24.0127L5.17733 22.4743L6.93667 23.6861C7.70665 24.2159 8.76054 24.0213 9.29039 23.2513C9.41733 23.0669 9.5064 22.8592 9.55241 22.6401L9.70051 21.936C9.83612 22.9111 10.0607 23.8716 10.3716 24.8057C7.58711 25.1376 5.59897 27.6641 5.93091 30.4485C6.26285 33.233 8.78931 35.2211 11.5738 34.8892C13.25 34.6893 14.7173 33.6694 15.4888 32.168ZM14.1746 30.9756C13.5427 32.7321 11.6066 33.6437 9.85008 33.0119C8.09359 32.38 7.18198 30.4439 7.8138 28.6874C8.29722 27.3437 9.57304 26.4486 11.0011 26.4516C11.0121 26.4516 11.0222 26.4516 11.0332 26.4516C11.8115 28.1296 12.8742 29.6601 14.1746 30.9756ZM48.7132 18.2972L46.2591 17.9468C44.8711 17.7486 43.5852 18.7132 43.387 20.1012C43.2918 20.7677 43.4653 21.4448 43.8693 21.9834L45.3562 23.9662L42.6482 25.9972L41.1605 24.0153C40.3193 22.8935 38.7281 22.6659 37.6064 23.5071C37.0677 23.911 36.7116 24.5123 36.6162 25.1788L36.2734 27.6363L32.9232 27.1574L33.2735 24.7033C33.4723 23.3153 32.5082 22.029 31.1202 21.8304C30.4533 21.7348 29.7759 21.9083 29.2369 22.3126L27.2542 23.7995L25.2232 21.0915L27.2051 19.6038C28.3269 18.7626 28.5544 17.1714 27.7133 16.0497C27.3094 15.511 26.708 15.1549 26.0415 15.0595L23.5874 14.7091L24.0664 11.3588L26.5205 11.7092C27.9084 11.9079 29.1947 10.9438 29.3934 9.5559C29.4889 8.88895 29.3154 8.21153 28.9111 7.67258L27.4192 5.68814L30.1272 3.65715L31.6149 5.6399C32.456 6.76171 34.0473 6.98924 35.169 6.14807C35.7076 5.7442 36.0638 5.14284 36.1592 4.47632L36.5095 2.02221L39.8598 2.50033L39.5095 4.95444C39.3112 6.3425 40.2758 7.62837 41.6638 7.8266C42.3303 7.9218 43.0074 7.74832 43.5461 7.34424L45.5288 5.85739L47.5598 8.56537L45.5771 10.0531C44.4553 10.8942 44.2277 12.4855 45.0689 13.6072C45.4728 14.1458 46.0741 14.502 46.7406 14.5974L49.1948 14.9478L48.7132 18.2972Z" fill="#F5DF4D"/>
<path d="M36.3881 8.05762C32.6492 8.05762 29.6182 11.0887 29.6182 14.8276C29.6182 18.5665 32.6492 21.5975 36.3881 21.5975C40.127 21.5975 43.1581 18.5665 43.1581 14.8276C43.1538 11.0903 40.1253 8.06174 36.3881 8.05762ZM36.3881 19.905C33.5839 19.905 31.3107 17.6318 31.3107 14.8276C31.3107 12.0233 33.5839 9.75011 36.3881 9.75011C39.1924 9.75011 41.4656 12.0233 41.4656 14.8276C41.4623 17.6304 39.191 19.9018 36.3881 19.905Z" fill="#F5DF4D"/>
<path d="M26.4571 37.4526H24.7646V39.9914H26.4571V37.4526Z" fill="#F5DF4D"/>
<path d="M21.909 29.1415C16.685 27.1008 14.1045 21.2116 16.1453 15.9876C16.9361 13.9634 18.3554 12.2462 20.1945 11.0886L19.2898 9.65674C13.7537 13.1444 12.0931 20.4597 15.5807 25.9958C16.9315 28.1399 18.9341 29.7944 21.2946 30.7164C23.384 31.5169 24.7637 33.5225 24.7642 35.76H26.4567C26.4593 32.8244 24.6503 30.1916 21.909 29.1415Z" fill="#F5DF4D"/>
<path d="M47.6132 31.5288H41.6895V33.2213H47.6132V31.5288Z" fill="#F5DF4D"/>
<path d="M41.3851 35.9555L40.3018 37.2559L45.3796 41.4864L46.4629 40.186L41.3851 35.9555Z" fill="#F5DF4D"/>
<path d="M38.3048 38.2988H36.6123V44.2225H38.3048V38.2988Z" fill="#F5DF4D"/>
<path d="M7.63375 12.9367L0.864258 14.6289L1.27448 16.27L8.04397 14.5778L7.63375 12.9367Z" fill="#F5DF4D"/>
<path d="M3.25271 4.60789L2.26953 5.98438L8.19277 10.2152L9.17596 8.83867L3.25271 4.60789Z" fill="#F5DF4D"/>
<path d="M11.1602 0.00703985L9.52051 0.42627L11.2513 7.1957L12.891 6.77647L11.1602 0.00703985Z" fill="#F5DF4D"/>
</g>
<defs>
<clipPath id="clip0">
<rect width="51" height="51" fill="white"/>
</clipPath>
</defs>
</svg>
