<svg width="51" height="51" viewBox="0 0 51 51" fill="none" xmlns="http://www.w3.org/2000/svg">
<g clip-path="url(#clip0)">
<path d="M4.95117 40.3514C4.95117 43.493 7.50677 46.0486 10.6484 46.0486C13.7899 46.0486 16.3459 43.493 16.3459 40.3514C16.3459 37.2098 13.7899 34.6538 10.6484 34.6538C7.50677 34.6538 4.95117 37.2098 4.95117 40.3514ZM14.8518 40.3514C14.8518 42.6689 12.9662 44.5544 10.6484 44.5544C8.33089 44.5544 6.44531 42.6689 6.44531 40.3514C6.44531 38.0335 8.33089 36.1479 10.6484 36.1479C12.9662 36.1479 14.8518 38.0335 14.8518 40.3514Z" fill="#F5DF4D"/>
<path d="M9.90115 37.8765V38.0737C8.94396 38.3885 8.25098 39.2905 8.25098 40.3515C8.25098 41.6733 9.32645 42.7488 10.6482 42.7488C11.9704 42.7488 13.0455 41.6733 13.0455 40.3515C13.0455 39.2905 12.3525 38.3885 11.3953 38.0737V37.8765C11.3953 37.4636 11.0607 37.1294 10.6482 37.1294C10.2358 37.1294 9.90115 37.4636 9.90115 37.8765ZM10.6482 41.2546C10.1502 41.2546 9.74512 40.8496 9.74512 40.3515C9.74512 39.8535 10.1502 39.4484 10.6482 39.4484C11.1463 39.4484 11.5513 39.8535 11.5513 40.3515C11.5513 40.8496 11.1463 41.2546 10.6482 41.2546Z" fill="#F5DF4D"/>
<path d="M17.9967 30.4505V4.04736C17.9967 3.63453 17.662 3.30029 17.2496 3.30029H4.04785C3.63541 3.30029 3.30078 3.63453 3.30078 4.04736V30.4505C3.30078 30.8629 3.63541 31.1975 4.04785 31.1975H17.2496C17.662 31.1975 17.9967 30.8629 17.9967 30.4505ZM4.79492 13.5955H16.5025V20.9024H4.79492V13.5955ZM16.5025 4.79443V12.1013H4.79492V4.79443H16.5025ZM4.79492 29.7034V22.3965H16.5025V29.7034H4.79492Z" fill="#F5DF4D"/>
<path d="M46.9526 29.7034L36.3555 29.703L43.8487 22.2102C44.6133 21.4456 45.0343 20.4293 45.0343 19.348C45.0343 18.267 44.6133 17.2507 43.8487 16.4861L34.5139 7.15164C32.9361 5.57346 30.3684 5.57346 28.7902 7.15164L21.2966 14.6449V10.0131C21.2966 9.60063 20.9619 9.26601 20.5495 9.26601C20.1367 9.26601 19.8024 9.60063 19.8024 10.0131V16.4484V16.4492V23.7965V23.8101V36.2481V36.2524V40.3519C19.8024 45.3892 15.7122 49.4887 10.6788 49.5055H10.6481C10.6461 49.5055 10.6442 49.5059 10.6423 49.5059C5.59719 49.5024 1.49414 45.3974 1.49414 40.3519L1.49453 4.04741C1.49453 2.63965 2.64004 1.49414 4.0478 1.49414H17.2488C18.6569 1.49414 19.8024 2.63965 19.8024 4.04741V6.95126C19.8024 7.3637 20.1367 7.69833 20.5495 7.69833C20.9619 7.69833 21.2966 7.3637 21.2966 6.95126V4.04741C21.2966 1.81554 19.4806 0 17.2488 0H4.0478C1.81593 0 0.000389099 1.81554 0.000389099 4.04741L0 40.3519C0 46.2234 4.77658 51 10.6481 51C10.6586 51 10.6687 50.9996 10.6788 50.9996H46.9526C49.1845 50.9996 51 49.1841 51 46.9522V33.7508C51 31.5194 49.1845 29.7034 46.9526 29.7034ZM29.8466 8.20805C30.8419 7.21234 32.4618 7.21234 33.4575 8.20805L42.792 17.5429C43.2744 18.025 43.5398 18.6663 43.5398 19.348C43.5398 20.03 43.2744 20.6713 42.792 21.1534L20.9686 42.9772C21.1826 42.1371 21.2966 41.2573 21.2966 40.3519V38.0539L21.7888 38.5461C21.9347 38.692 22.1257 38.7648 22.3172 38.7648C22.5082 38.7648 22.6993 38.692 22.8452 38.5461L29.068 32.3232C29.0684 32.3229 29.0684 32.3229 29.0684 32.3229L35.2913 26.1L35.2917 26.0996C35.2917 26.0996 35.2917 26.0996 35.2921 26.0992L41.5149 19.8764C41.655 19.7363 41.7336 19.5464 41.7336 19.348C41.7336 19.1499 41.655 18.96 41.5149 18.8199L32.1797 9.48468C31.8882 9.19324 31.4151 9.19324 31.1233 9.48468L21.2962 19.3122V16.7581L29.8466 8.20805ZM46.2051 34.4979V46.2055H38.8986V34.4979H46.2051ZM37.4045 46.2055H30.0976V35.9613L31.561 34.4979H37.4045V46.2055ZM21.2966 46.2055V44.7624L28.6035 37.4555V46.2055H21.2966ZM34.7637 24.5148L26.4852 16.2367L31.652 11.0699L39.9301 19.3483L34.7637 24.5148ZM25.4284 17.2931L33.7069 25.5716L28.5404 30.7384L21.2966 23.4942V21.4254L25.4284 17.2931ZM27.4836 31.7948L22.3172 36.9613L21.2966 35.9407V25.6074L27.4836 31.7948ZM49.5059 46.9522C49.5059 48.36 48.3604 49.5055 46.9526 49.5055H16.0822C16.82 49.0658 17.5005 48.5397 18.1095 47.9409C18.1328 47.9226 18.1558 47.9028 18.1775 47.881L19.8024 46.2565V46.9522C19.8024 47.365 20.137 47.6993 20.5495 47.6993H46.9526C47.365 47.6993 47.6997 47.365 47.6997 46.9522V33.7508C47.6997 33.3384 47.365 33.0038 46.9526 33.0038H33.0551L34.8613 31.1972L46.9526 31.1976C48.3607 31.1976 49.5059 32.3431 49.5059 33.7508V46.9522Z" fill="#F5DF4D"/>
</g>
<defs>
<clipPath id="clip0">
<rect width="51" height="51" fill="white"/>
</clipPath>
</defs>
</svg>
