<svg width="51" height="51" viewBox="0 0 51 51" fill="none" xmlns="http://www.w3.org/2000/svg">
<path d="M50.9078 41.2887C50.6685 40.137 49.9915 39.1529 49.0012 38.5175C48.0109 37.8825 46.8347 37.6775 45.6876 37.9397L40.3718 39.1568V36.9837C41.4379 35.9794 42.548 34.6682 43.3375 33.4697C44.7219 31.3682 45.7016 29.0605 46.2495 26.6119C46.9008 23.6987 46.9148 20.6147 46.2896 17.6922C46.1744 17.1544 45.6448 16.8112 45.1071 16.9268C44.569 17.0416 44.2266 17.5712 44.3413 18.1093C44.9071 20.7524 44.8946 23.5423 44.3052 26.1769C43.8102 28.3893 42.9246 30.4745 41.6737 32.3737C41.3029 32.9367 40.8531 33.5273 40.3718 34.0915V23.0505C40.3718 22.5003 39.9258 22.0544 39.3757 22.0544H31.496V11.4172C31.496 10.8685 31.0521 10.423 30.5034 10.4211L21.6277 10.3911C21.6265 10.3911 21.6257 10.3911 21.6246 10.3911C21.3608 10.3911 21.1078 10.4954 20.9215 10.6818C20.7339 10.8685 20.6285 11.1222 20.6285 11.3872V16.9206H12.7477C12.1979 16.9206 11.7516 17.3665 11.7516 17.9167V27.7807H9.53215V26.4278C9.53215 25.878 9.08624 25.4321 8.53606 25.4321H7.51428C7.34035 24.4746 7.23958 23.5018 7.21584 22.5306C7.15748 20.1692 7.53179 17.8587 8.32789 15.6626C8.51349 15.1506 8.72438 14.6401 8.95434 14.1459C9.18663 13.6471 8.97029 13.0545 8.47186 12.8222C7.97303 12.5907 7.38043 12.8063 7.14853 13.3051C6.89367 13.8521 6.66021 14.4171 6.45515 14.9837C5.57423 17.4136 5.16023 19.9696 5.22404 22.5796C5.24778 23.5337 5.33883 24.4886 5.4933 25.4321H0.996094C0.445908 25.4321 0 25.878 0 26.4282V43.9369C0 44.4871 0.445908 44.933 0.996094 44.933H8.53606C9.08624 44.933 9.53215 44.4871 9.53215 43.9369V42.9898H13.2792L28.4575 48.9431C29.8746 49.4991 31.3591 49.7788 32.8512 49.7788C33.8462 49.7788 34.8454 49.6543 35.8294 49.4041L47.7261 46.3804C49.9845 45.8065 51.3817 43.57 50.9078 41.2887ZM38.38 24.0465V39.6128L35.717 40.2226C35.4306 40.2879 35.1411 40.3397 34.8501 40.3801C33.7403 40.5331 32.6081 40.5008 31.51 40.2833C31.5054 40.2821 31.5007 40.2813 31.496 40.2802V38.7697C32.2555 37.6366 32.5073 36.2001 32.1092 34.8888C31.9983 34.523 31.8408 34.1701 31.6404 33.8445C31.5948 33.7705 31.5474 33.6982 31.498 33.6273C31.4976 33.6262 31.4968 33.6254 31.496 33.6242V24.0462H38.38V24.0465ZM22.6207 12.3868L29.5042 12.4098V32.0421L25.6572 30.45L22.6207 29.1928V12.3868ZM13.7438 18.9128H20.6273V28.3675L19.3919 27.8562C19.2709 27.806 19.1413 27.7803 19.011 27.7803H13.7438V18.9128ZM7.53996 42.9408H1.99219V27.4239H6.69173C6.69367 27.4239 6.69601 27.4243 6.69834 27.4243C6.70029 27.4243 6.70184 27.4239 6.70379 27.4239H7.53996V42.9408ZM47.2355 44.4497L35.3388 47.4734C33.2851 47.9952 31.1571 47.8617 29.1848 47.0886L13.8313 41.0665C13.7154 41.021 13.592 40.998 13.4675 40.998H9.53215V29.7729H18.8126L25.2576 32.4406L28.7844 33.9005C30.0322 34.418 30.6295 35.8818 30.1178 37.1281C30.0151 37.3783 29.8879 37.616 29.719 37.828C29.0953 38.6152 28.0684 38.9623 27.1081 38.7288C27.1004 38.7269 27.0926 38.7249 27.0848 38.723C27.0272 38.7086 26.97 38.6918 26.9132 38.6732L20.211 36.0966C20.1565 36.0755 20.1277 36.0647 20.1277 36.0647C19.6145 35.867 19.0382 36.1234 18.8406 36.637C18.6433 37.1502 18.8993 37.7269 19.4129 37.9242C19.4129 37.9242 23.1919 39.3771 26.0735 40.4883C26.1315 40.5109 26.1891 40.5319 26.2471 40.5514L28.4599 41.4023C29.1287 41.6595 29.7945 41.9155 30.4906 42.0934C31.6727 42.3953 32.8995 42.5167 34.1182 42.4502C34.8053 42.4128 35.4913 42.3179 36.1621 42.1646L39.5982 41.3782C39.6017 41.3774 39.6052 41.3759 39.6087 41.3751L46.1324 39.8817C46.753 39.7397 47.3899 39.8506 47.9253 40.1942C48.4615 40.5381 48.8277 41.0708 48.9572 41.6941C49.214 42.9287 48.4576 44.1392 47.2355 44.4497Z" fill="#F5DF4D"/>
<path d="M12.7375 8.37964C12.9757 8.37964 13.2146 8.29481 13.4048 8.12283C15.1822 6.51741 17.3048 5.23688 19.544 4.41939C21.9701 3.5338 24.6296 3.15598 27.2354 3.32718C29.1003 3.44975 30.9275 3.8478 32.666 4.51005C33.1796 4.70576 33.7555 4.44818 33.9512 3.93379C34.1473 3.41979 33.8894 2.84431 33.375 2.6486C31.4513 1.91553 29.4295 1.47507 27.3661 1.33928C24.486 1.15017 21.5448 1.56807 18.8608 2.54821C16.3834 3.45247 14.0352 4.86918 12.0698 6.64425C11.6613 7.01312 11.6294 7.64307 11.9982 8.05124C12.1947 8.26913 12.4655 8.37964 12.7375 8.37964Z" fill="#F5DF4D"/>
<path d="M35.3506 15.4885C35.5393 15.6523 35.772 15.7325 36.0035 15.7325C36.2817 15.7325 36.5587 15.6165 36.756 15.39L44.9512 5.95634C45.3123 5.54117 45.2679 4.912 44.8528 4.5513C44.4372 4.19061 43.8084 4.23458 43.4477 4.64975L35.2521 14.0835C34.8911 14.4986 34.9354 15.1278 35.3506 15.4885Z" fill="#F5DF4D"/>
<path d="M42.6941 11.23C41.3151 11.23 40.1934 12.3518 40.1934 13.7307C40.1934 15.1097 41.3151 16.2315 42.6941 16.2315C44.0731 16.2315 45.1948 15.1093 45.1948 13.7307C45.1948 12.3518 44.0731 11.23 42.6941 11.23ZM42.6941 14.2393C42.4136 14.2393 42.1855 14.0113 42.1855 13.7307C42.1855 13.4506 42.4136 13.2222 42.6941 13.2222C42.9743 13.2222 43.2027 13.4506 43.2027 13.7307C43.2027 14.0113 42.9743 14.2393 42.6941 14.2393Z" fill="#F5DF4D"/>
<path d="M37.1628 9.01222C38.5418 9.01222 39.6636 7.89045 39.6636 6.51148C39.6636 5.13252 38.5418 4.01074 37.1628 4.01074C35.7839 4.01074 34.6621 5.13252 34.6621 6.51148C34.6621 7.89045 35.7839 9.01222 37.1628 9.01222ZM37.1628 6.00254C37.4434 6.00254 37.6714 6.23094 37.6714 6.51148C37.6714 6.79163 37.4434 7.02004 37.1628 7.02004C36.8823 7.02004 36.6543 6.79163 36.6543 6.51148C36.6543 6.23094 36.8823 6.00254 37.1628 6.00254Z" fill="#F5DF4D"/>
<path d="M9.19649 10.7202C9.35602 11.1031 9.74862 11.356 10.1646 11.3342C10.5758 11.3128 10.9362 11.0346 11.0634 10.644C11.1918 10.2498 11.0517 9.80078 10.7222 9.54903C10.3864 9.293 9.91477 9.27705 9.56302 9.5109C9.17276 9.77043 9.01634 10.2879 9.19649 10.7202Z" fill="#F5DF4D"/>
</svg>
