<svg width="51" height="51" viewBox="0 0 51 51" fill="none" xmlns="http://www.w3.org/2000/svg">
<g clip-path="url(#clip0)">
<path d="M50.7923 21.7504L42.2562 10.6618C41.9403 10.2517 41.364 10.1506 40.9271 10.4284L35.4159 13.9334H28.228C28.135 13.9334 28.0424 13.9532 27.9529 13.9793L22.3799 15.5835L16.5971 14.0019L10.9781 10.4284C10.5485 10.1552 9.98279 10.2478 9.66334 10.6439L0.221844 22.3387C-0.11745 22.7589 -0.06142 23.3725 0.347912 23.7247L5.29648 27.9834L9.7361 33.9662C8.43767 35.3494 8.46297 37.5311 9.81392 38.8824C10.4127 39.4809 11.1742 39.819 11.9575 39.8976C11.9302 40.075 11.9162 40.2552 11.9162 40.438C11.9162 41.382 12.2839 42.2695 12.9512 42.9368C13.6189 43.6045 14.5065 43.9722 15.4504 43.9722C15.4632 43.9722 15.4757 43.9715 15.4882 43.9711C15.4878 43.9952 15.4866 44.0189 15.4866 44.043C15.4866 44.987 15.8543 45.8745 16.5216 46.5422C17.1893 47.2095 18.0768 47.5772 19.0208 47.5772C19.2072 47.5772 19.3916 47.5621 19.5725 47.534C19.6492 48.32 19.9881 49.085 20.5889 49.6858C21.2776 50.3749 22.1826 50.7192 23.0876 50.7192C23.9927 50.7192 24.8977 50.3749 25.5868 49.6858L26.1273 49.1453L26.3541 49.3282C27.0374 49.99 27.9245 50.3208 28.8117 50.3208C29.7167 50.3208 30.6218 49.9764 31.3105 49.2873C32.0136 48.5842 32.3579 47.6562 32.3435 46.7329C33.2665 46.7469 34.1949 46.4029 34.898 45.7002C35.6003 44.9975 35.9447 44.0703 35.931 43.1473C36.8925 43.1625 37.8045 42.7933 38.4851 42.1127C39.1882 41.4096 39.5325 40.4816 39.5181 39.5583C40.4419 39.5723 41.3695 39.2283 42.0726 38.5252C43.2726 37.3252 43.427 35.4704 42.5372 34.1012L45.7787 27.3122L50.6522 23.1185C51.0549 22.7718 51.1164 22.171 50.7923 21.7504ZM10.6583 12.5953L14.6987 15.1645L5.90931 25.8725L2.38718 22.841L10.6583 12.5953ZM11.2283 35.2984L12.4477 34.079C12.4847 34.042 12.5236 34.007 12.5633 33.9743C12.8018 33.7798 13.0905 33.6638 13.3964 33.6362C13.4049 33.6354 13.4139 33.6354 13.4224 33.635C13.466 33.6315 13.5096 33.6292 13.5536 33.6296C13.9714 33.6354 14.3598 33.8062 14.6477 34.1101C15.2127 34.7074 15.1823 35.6832 14.58 36.2856L13.3975 37.468C12.7995 38.0661 11.8263 38.0661 11.2283 37.468C10.6302 36.8696 10.6302 35.8965 11.2283 35.2984ZM14.3656 41.5225C14.0757 41.233 13.9162 40.8478 13.9162 40.438C13.9162 40.0283 14.0757 39.6431 14.3656 39.3532L16.7302 36.9887C17.1831 36.5358 17.8951 36.4116 18.4741 36.6875C19.071 36.9719 19.4068 37.6198 19.3192 38.2715C19.2725 38.6194 19.1107 38.947 18.8624 39.1956L16.5352 41.5225C16.2453 41.8123 15.8601 41.9719 15.4504 41.9719C15.0407 41.9719 14.6555 41.8123 14.3656 41.5225ZM17.936 45.1275C17.6461 44.838 17.4866 44.4528 17.4866 44.043C17.4866 43.6333 17.6461 43.2481 17.936 42.9582L20.3001 40.5937C20.7846 40.1096 21.5616 40.0054 22.1546 40.3505C22.6962 40.6657 22.9799 41.2843 22.8869 41.9007C22.8359 42.2396 22.6748 42.5582 22.4324 42.8007L20.1056 45.1275C19.8157 45.4173 19.4305 45.5769 19.0208 45.5769C18.6111 45.5769 18.2259 45.4173 17.936 45.1275ZM22.0028 48.2714C21.4048 47.6733 21.4048 46.7002 22.0028 46.1022L23.2223 44.8827C23.2592 44.8458 23.2978 44.8111 23.3375 44.7784C23.3386 44.7777 23.3394 44.7769 23.3402 44.7761C23.5386 44.615 23.7717 44.5072 24.0203 44.4602C24.0262 44.4594 24.032 44.4586 24.0378 44.4578C24.0806 44.45 24.1242 44.4438 24.1678 44.4399C24.1853 44.4384 24.2028 44.4384 24.2207 44.4372C24.2565 44.4353 24.2919 44.4329 24.3281 44.4333C24.7456 44.4391 25.1343 44.6096 25.4222 44.9138C25.4577 44.9512 25.4907 44.9901 25.5211 45.0302C25.981 45.6313 25.9191 46.5243 25.3483 47.0955L24.1721 48.2718C23.574 48.8698 22.6009 48.8694 22.0028 48.2714ZM40.6582 37.1109C40.0602 37.7093 39.087 37.7089 38.489 37.1109C38.4672 37.0891 38.4442 37.0688 38.4209 37.0498L31.9906 30.5518C31.6019 30.1592 30.9689 30.1561 30.5763 30.5448C30.1837 30.9331 30.1805 31.5662 30.5689 31.9588L37.0688 38.5264C37.0695 38.5272 37.0703 38.528 37.0711 38.5287C37.6691 39.1268 37.6691 40.1003 37.0711 40.6983C36.7812 40.9882 36.396 41.1478 35.9863 41.1478C35.5762 41.1478 35.191 40.9882 34.9015 40.6983L30.5533 36.305C30.165 35.9124 29.5319 35.9093 29.1393 36.2976C28.7467 36.6863 28.7436 37.3194 29.1319 37.712L33.4136 42.038C33.4354 42.0653 33.4587 42.0913 33.4836 42.1162C34.0816 42.7143 34.0816 43.6878 33.4836 44.2858C32.8852 44.8839 31.9116 44.8835 31.3136 44.2855L28.9405 41.8874C28.5518 41.4948 27.9187 41.4913 27.5261 41.88C27.1335 42.2684 27.1304 42.9014 27.5187 43.294L29.8257 45.6247C29.8475 45.652 29.8708 45.6784 29.8961 45.7033C30.4942 46.3014 30.4942 47.2749 29.8961 47.8729C29.2981 48.4714 28.3249 48.471 27.7269 47.8729C27.658 47.8041 27.5771 47.7512 27.5 47.692C27.4347 47.6422 27.4175 47.6076 27.4502 47.5282C27.4833 47.4477 27.5327 47.3749 27.5658 47.294C27.6024 47.2037 27.6319 47.1107 27.6607 47.0173C27.814 46.5232 27.8592 45.9917 27.7903 45.4788C27.658 44.4948 27.1168 43.6069 26.2965 43.045C25.8534 42.7419 25.3405 42.5431 24.809 42.4684C25.0666 41.3322 24.7573 40.1003 23.9526 39.2501C23.2904 38.5505 22.3958 38.1579 21.4336 38.1447C21.3986 38.1443 21.3636 38.1443 21.3281 38.1447C21.3495 37.2264 21.0157 36.314 20.3826 35.6451C19.72 34.9455 18.8255 34.5529 17.8636 34.5397C17.5776 34.5358 17.2889 34.5661 17.0103 34.6303C16.8912 33.802 16.4737 33.0354 15.8415 32.4872C15.2131 31.9432 14.4228 31.6413 13.5812 31.6296C12.6952 31.6168 11.8248 31.9436 11.1668 32.5378L7.30112 27.3289L16.5492 16.0621L19.4967 16.8684L15.6473 23.6609C15.1819 24.4822 15.0644 25.4355 15.3162 26.3453C15.5679 27.2554 16.1586 28.0125 16.98 28.4779C17.0313 28.5071 17.0831 28.5347 17.1356 28.5612C17.1395 28.5631 17.1434 28.5651 17.1477 28.567C17.2858 28.6359 17.4278 28.695 17.5718 28.7448C18.2422 28.9771 18.9663 29.0024 19.6647 28.8094C20.5745 28.5577 21.3316 27.9666 21.797 27.1456L24.2985 22.7313L28.765 23.048L40.6586 34.9412C41.2562 35.5397 41.2562 36.5128 40.6582 37.1109ZM41.0726 32.5269L29.9152 21.3698C29.8942 21.3484 29.872 21.3282 29.849 21.3091C29.6883 21.1753 29.4891 21.0944 29.279 21.0796L23.8102 20.6916C23.432 20.6656 23.0561 20.8667 22.8694 21.1963L20.057 26.1597C19.855 26.5161 19.5262 26.7725 19.1313 26.8818C18.7367 26.9912 18.3227 26.9398 17.9659 26.7379C17.6095 26.5359 17.3531 26.2071 17.2438 25.8122C17.1344 25.4173 17.1854 25.0033 17.3877 24.6468L21.1422 18.0209L22.6635 17.5831C22.6736 17.58 22.6834 17.5761 22.6935 17.573L28.3716 15.9333H35.2322L43.7971 26.8211L41.0726 32.5269ZM45.1072 25.2515L37.1867 15.1773L41.229 12.6065L48.6301 22.22L45.1072 25.2515Z" fill="#F5DF4D"/>
<path d="M30.8974 12.056C31.1535 12.056 31.4095 11.9583 31.6048 11.763L38.4359 4.93198C38.8265 4.54132 38.8265 3.90826 38.4359 3.5176C38.0452 3.12695 37.4121 3.12695 37.0215 3.5176L30.1905 10.3486C29.7998 10.7393 29.7998 11.3723 30.1905 11.763C30.3858 11.9583 30.6418 12.056 30.8974 12.056Z" fill="#F5DF4D"/>
<path d="M19.3955 11.763C19.5908 11.9583 19.8469 12.056 20.1029 12.056C20.3585 12.056 20.6146 11.9583 20.8099 11.763C21.2005 11.3723 21.2005 10.7393 20.8099 10.3486L13.9789 3.5176C13.5882 3.12695 12.9551 3.12695 12.5645 3.5176C12.1738 3.90826 12.1738 4.54132 12.5645 4.93198L19.3955 11.763Z" fill="#F5DF4D"/>
<path d="M25.5 12.056C26.0521 12.056 26.4999 11.6082 26.4999 11.056V5.40282C26.4999 4.85069 26.0521 4.40283 25.5 4.40283C24.9478 4.40283 24.5 4.85069 24.5 5.40282V11.056C24.5 11.6082 24.9478 12.056 25.5 12.056Z" fill="#F5DF4D"/>
<path d="M24.5774 1.77817C24.7362 2.16299 25.1319 2.41552 25.5494 2.39373C25.9619 2.37233 26.3241 2.09373 26.4517 1.70113C26.5797 1.30542 26.4404 0.854453 26.1089 0.602317C25.7708 0.344733 25.2992 0.330336 24.9455 0.564185C24.551 0.824881 24.3981 1.34394 24.5774 1.77817Z" fill="#F5DF4D"/>
</g>
<defs>
<clipPath id="clip0">
<rect width="51" height="51" fill="white"/>
</clipPath>
</defs>
</svg>
