<svg width="164" height="52" viewBox="0 0 164 52" fill="none" xmlns="http://www.w3.org/2000/svg">
<path d="M22.2479 50.9996V0.599609H0.503906V9.95961H10.5839V50.9996H22.2479Z" fill="#F5DF4D"/>
<path d="M63.9792 23.7836C60.6192 20.9516 55.3872 19.5356 48.2832 19.5356H44.1792L44.9712 9.95961H65.9952V0.599609H35.2512L32.6592 28.9676H45.5472C49.8672 28.9676 52.8912 29.5196 54.6192 30.6236C56.3952 31.7276 57.2832 33.3596 57.2832 35.5196C57.2832 37.5836 56.4432 39.1916 54.7632 40.3436C53.0832 41.4956 50.7792 42.0716 47.8512 42.0716C45.2112 42.0716 42.6432 41.6876 40.1472 40.9196C37.6512 40.1036 35.4432 38.9756 33.5232 37.5356L28.9152 46.4636C31.3152 48.1916 34.2192 49.5356 37.6272 50.4956C41.0832 51.4076 44.5872 51.8636 48.1392 51.8636C52.7472 51.8636 56.6112 51.1196 59.7312 49.6316C62.8992 48.0956 65.2512 46.0796 66.7872 43.5836C68.3232 41.0396 69.0912 38.2316 69.0912 35.1596C69.0912 30.4076 67.3872 26.6156 63.9792 23.7836Z" fill="#F5DF4D"/>
<path d="M87.0882 19.9996V10.5316H80.1582L79.9962 13.9156C79.9362 15.0196 79.8642 15.9076 79.7802 16.5796C79.6962 17.2516 79.5282 17.8156 79.2762 18.2716C79.0242 18.7276 78.6522 18.9556 78.1602 18.9556C78.0762 18.9556 77.9262 18.9316 77.7102 18.8836L77.6202 19.9816C77.9802 20.0776 78.2862 20.1256 78.5382 20.1256C79.4622 20.1256 80.1042 19.5976 80.4642 18.5416C80.8242 17.4856 81.0522 15.9736 81.1482 14.0056L81.2742 11.6656H85.8102V19.9996H87.0882Z" fill="#F5DF4D"/>
<path fill-rule="evenodd" clip-rule="evenodd" d="M91.0812 15.6616H99.0012L99.0192 15.2656C99.0192 14.3296 98.8212 13.5016 98.4252 12.7816C98.0292 12.0496 97.4832 11.4796 96.7872 11.0716C96.0912 10.6636 95.3052 10.4596 94.4292 10.4596C93.5532 10.4596 92.7612 10.6636 92.0532 11.0716C91.3572 11.4796 90.8052 12.0496 90.3972 12.7816C90.0012 13.5136 89.8032 14.3416 89.8032 15.2656C89.8032 16.1896 90.0132 17.0176 90.4332 17.7496C90.8532 18.4816 91.4352 19.0576 92.1792 19.4776C92.9352 19.8856 93.7992 20.0896 94.7712 20.0896C95.5272 20.0896 96.2172 19.9576 96.8412 19.6936C97.4772 19.4296 98.0052 19.0456 98.4252 18.5416L97.7052 17.7136C97.3452 18.1216 96.9192 18.4336 96.4272 18.6496C95.9352 18.8536 95.3952 18.9556 94.8072 18.9556C93.7632 18.9556 92.8992 18.6556 92.2152 18.0556C91.5312 17.4436 91.1532 16.6456 91.0812 15.6616ZM92.1252 12.4396C92.7492 11.8516 93.5172 11.5576 94.4292 11.5576C95.3532 11.5576 96.1212 11.8516 96.7332 12.4396C97.3572 13.0156 97.7112 13.7716 97.7952 14.7076H91.0812C91.1652 13.7716 91.5132 13.0156 92.1252 12.4396Z" fill="#F5DF4D"/>
<path d="M104.504 11.6656H108.086V10.5316H99.6443V11.6656H103.226V19.9996H104.504V11.6656Z" fill="#F5DF4D"/>
<path d="M80.6262 32.5316H79.3482V41.9996H80.6262V37.8236H86.5842V41.9996H87.8622V32.5316H86.5842V36.7256H80.6262V32.5316Z" fill="#F5DF4D"/>
<path fill-rule="evenodd" clip-rule="evenodd" d="M97.5967 33.3956C96.9367 32.7716 95.9887 32.4596 94.7527 32.4596C94.0087 32.4596 93.3007 32.5736 92.6287 32.8016C91.9567 33.0176 91.3807 33.3296 90.9007 33.7376L91.4767 34.6916C91.8727 34.3436 92.3467 34.0736 92.8987 33.8816C93.4507 33.6776 94.0267 33.5756 94.6267 33.5756C95.5027 33.5756 96.1687 33.7916 96.6247 34.2236C97.0807 34.6436 97.3087 35.2616 97.3087 36.0776V36.6536H94.3027C93.0307 36.6536 92.1007 36.8996 91.5127 37.3916C90.9367 37.8836 90.6487 38.5316 90.6487 39.3356C90.6487 40.1636 90.9607 40.8296 91.5847 41.3336C92.2087 41.8376 93.0487 42.0896 94.1047 42.0896C94.8727 42.0896 95.5327 41.9516 96.0847 41.6756C96.6487 41.3996 97.0747 41.0156 97.3627 40.5236V41.9996H98.5867V36.1316C98.5867 34.9196 98.2567 34.0076 97.5967 33.3956ZM96.1567 40.5956C95.6407 40.9196 95.0227 41.0816 94.3027 41.0816C93.5467 41.0816 92.9587 40.9256 92.5387 40.6136C92.1187 40.2896 91.9087 39.8516 91.9087 39.2996C91.9087 38.1716 92.7187 37.6076 94.3387 37.6076H97.3087V39.1556C97.0567 39.7796 96.6727 40.2596 96.1567 40.5956Z" fill="#F5DF4D"/>
<path fill-rule="evenodd" clip-rule="evenodd" d="M113.99 33.0716C113.27 32.6636 112.466 32.4596 111.578 32.4596C110.786 32.4596 110.072 32.6276 109.436 32.9636C108.812 33.2996 108.308 33.7796 107.924 34.4036V32.5316H106.7V45.4916H107.978V40.2176C108.374 40.8296 108.878 41.2976 109.49 41.6216C110.114 41.9336 110.81 42.0896 111.578 42.0896C112.478 42.0896 113.282 41.8916 113.99 41.4956C114.71 41.0876 115.274 40.5176 115.682 39.7856C116.09 39.0536 116.294 38.2136 116.294 37.2656C116.294 36.3296 116.09 35.4956 115.682 34.7636C115.274 34.0316 114.71 33.4676 113.99 33.0716ZM113.288 40.5056C112.748 40.8056 112.148 40.9556 111.488 40.9556C110.816 40.9556 110.21 40.8056 109.67 40.5056C109.142 40.1936 108.722 39.7556 108.41 39.1916C108.11 38.6276 107.96 37.9856 107.96 37.2656C107.96 36.5456 108.11 35.9096 108.41 35.3576C108.722 34.7936 109.142 34.3556 109.67 34.0436C110.21 33.7316 110.816 33.5756 111.488 33.5756C112.148 33.5756 112.748 33.7316 113.288 34.0436C113.828 34.3556 114.248 34.7936 114.548 35.3576C114.86 35.9096 115.016 36.5456 115.016 37.2656C115.016 37.9856 114.86 38.6276 114.548 39.1916C114.248 39.7556 113.828 40.1936 113.288 40.5056Z" fill="#F5DF4D"/>
<path fill-rule="evenodd" clip-rule="evenodd" d="M125.736 36.6716C125.112 36.1556 124.206 35.8916 123.018 35.8796L120.318 35.8436V32.5316H119.04V41.9996L122.784 42.0176C124.032 42.0296 124.992 41.7656 125.664 41.2256C126.336 40.6856 126.672 39.9116 126.672 38.9036C126.672 37.9316 126.36 37.1876 125.736 36.6716ZM124.692 40.5236C124.248 40.8836 123.588 41.0576 122.712 41.0456L120.318 41.0096V36.7976L122.712 36.8336C123.6 36.8456 124.266 37.0196 124.71 37.3556C125.154 37.6916 125.376 38.2076 125.376 38.9036C125.376 39.6116 125.148 40.1516 124.692 40.5236Z" fill="#F5DF4D"/>
<path d="M129.534 32.5316H128.256V41.9996H129.534V32.5316Z" fill="#F5DF4D"/>
<path d="M134.45 32.5316H133.172V41.9996H134.45V37.8236H140.408V41.9996H141.686V32.5316H140.408V36.7256H134.45V32.5316Z" fill="#F5DF4D"/>
<path d="M146.597 37.7876H148.757L152.249 41.9996H153.761L149.765 37.1216L153.491 32.5316H152.105L148.775 36.6896H146.597V32.5316H145.319V41.9996H146.597V37.7876Z" fill="#F5DF4D"/>
<path fill-rule="evenodd" clip-rule="evenodd" d="M155.804 37.6616H163.724L163.742 37.2656C163.742 36.3296 163.544 35.5016 163.148 34.7816C162.752 34.0496 162.206 33.4796 161.51 33.0716C160.814 32.6636 160.028 32.4596 159.152 32.4596C158.276 32.4596 157.484 32.6636 156.776 33.0716C156.08 33.4796 155.528 34.0496 155.12 34.7816C154.724 35.5136 154.526 36.3416 154.526 37.2656C154.526 38.1896 154.736 39.0176 155.156 39.7496C155.576 40.4816 156.158 41.0576 156.902 41.4776C157.658 41.8856 158.522 42.0896 159.494 42.0896C160.25 42.0896 160.94 41.9576 161.564 41.6936C162.2 41.4296 162.728 41.0456 163.148 40.5416L162.428 39.7136C162.068 40.1216 161.642 40.4336 161.15 40.6496C160.658 40.8536 160.118 40.9556 159.53 40.9556C158.486 40.9556 157.622 40.6556 156.938 40.0556C156.254 39.4436 155.876 38.6456 155.804 37.6616ZM156.848 34.4396C157.472 33.8516 158.24 33.5576 159.152 33.5576C160.076 33.5576 160.844 33.8516 161.456 34.4396C162.08 35.0156 162.434 35.7716 162.518 36.7076H155.804C155.888 35.7716 156.236 35.0156 156.848 34.4396Z" fill="#F5DF4D"/>
</svg>
