<svg width="240" height="57" viewBox="0 0 240 57" fill="none" xmlns="http://www.w3.org/2000/svg">
<path d="M71.9598 45.4158H63.7518V55.9998H52.3758V45.4158H25.2318V37.5678L48.9918 5.59979H61.2318L39.1998 35.9118H52.7358V26.4798H63.7518V35.9118H71.9598V45.4158Z" fill="#F5DF4D"/>
<path d="M97.0484 56.8638C92.8724 56.8638 89.1524 55.8318 85.8884 53.7678C82.6244 51.7038 80.0564 48.7278 78.1844 44.8398C76.3604 40.9038 75.4484 36.2238 75.4484 30.7998C75.4484 25.3758 76.3604 20.7198 78.1844 16.8318C80.0564 12.8958 82.6244 9.89579 85.8884 7.83179C89.1524 5.76779 92.8724 4.73579 97.0484 4.73579C101.224 4.73579 104.944 5.76779 108.208 7.83179C111.472 9.89579 114.016 12.8958 115.84 16.8318C117.712 20.7198 118.648 25.3758 118.648 30.7998C118.648 36.2238 117.712 40.9038 115.84 44.8398C114.016 48.7278 111.472 51.7038 108.208 53.7678C104.944 55.8318 101.224 56.8638 97.0484 56.8638ZM97.0484 46.9998C100.12 46.9998 102.52 45.6798 104.248 43.0398C106.024 40.3998 106.912 36.3198 106.912 30.7998C106.912 25.2798 106.024 21.1998 104.248 18.5598C102.52 15.9198 100.12 14.5998 97.0484 14.5998C94.0244 14.5998 91.6244 15.9198 89.8484 18.5598C88.1204 21.1998 87.2564 25.2798 87.2564 30.7998C87.2564 36.3198 88.1204 40.3998 89.8484 43.0398C91.6244 45.6798 94.0244 46.9998 97.0484 46.9998Z" fill="#F5DF4D"/>
<path d="M145.916 56.8638C141.74 56.8638 138.02 55.8318 134.756 53.7678C131.492 51.7038 128.924 48.7278 127.052 44.8398C125.228 40.9038 124.316 36.2238 124.316 30.7998C124.316 25.3758 125.228 20.7198 127.052 16.8318C128.924 12.8958 131.492 9.89579 134.756 7.83179C138.02 5.76779 141.74 4.73579 145.916 4.73579C150.092 4.73579 153.812 5.76779 157.076 7.83179C160.34 9.89579 162.884 12.8958 164.708 16.8318C166.58 20.7198 167.516 25.3758 167.516 30.7998C167.516 36.2238 166.58 40.9038 164.708 44.8398C162.884 48.7278 160.34 51.7038 157.076 53.7678C153.812 55.8318 150.092 56.8638 145.916 56.8638ZM145.916 46.9998C148.988 46.9998 151.388 45.6798 153.116 43.0398C154.892 40.3998 155.78 36.3198 155.78 30.7998C155.78 25.2798 154.892 21.1998 153.116 18.5598C151.388 15.9198 148.988 14.5998 145.916 14.5998C142.892 14.5998 140.492 15.9198 138.716 18.5598C136.988 21.1998 136.124 25.2798 136.124 30.7998C136.124 36.3198 136.988 40.3998 138.716 43.0398C140.492 45.6798 142.892 46.9998 145.916 46.9998Z" fill="#F5DF4D"/>
<path d="M188.248 46.2478C188.248 47.7238 187.762 48.8818 186.79 49.7218C185.818 50.5618 184.444 51.0178 182.668 51.0898V54.4918H181.426V51.1078C179.662 51.0358 178.294 50.5798 177.322 49.7398C176.362 48.8878 175.882 47.7238 175.882 46.2478C175.882 44.7838 176.362 43.6378 177.322 42.8098C178.294 41.9818 179.662 41.5318 181.426 41.4598V37.6438H182.668V41.4598C184.444 41.5438 185.818 41.9998 186.79 42.8278C187.762 43.6558 188.248 44.7958 188.248 46.2478ZM177.142 46.2478C177.142 47.3758 177.502 48.2578 178.222 48.8938C178.954 49.5298 180.022 49.8898 181.426 49.9738V42.5938C180.034 42.6658 178.972 43.0198 178.24 43.6558C177.508 44.2798 177.142 45.1438 177.142 46.2478ZM182.668 49.9738C184.072 49.9018 185.14 49.5478 185.872 48.9118C186.616 48.2758 186.988 47.3878 186.988 46.2478C186.988 45.1318 186.616 44.2618 185.872 43.6378C185.14 43.0138 184.072 42.6658 182.668 42.5938V49.9738Z" fill="#F5DF4D"/>
<path d="M194.156 41.4598C195.392 41.4598 196.34 41.7718 197 42.3958C197.66 43.0078 197.99 43.9198 197.99 45.1318V50.9998H196.766V49.5238C196.478 50.0158 196.052 50.3998 195.488 50.6758C194.936 50.9518 194.276 51.0898 193.508 51.0898C192.452 51.0898 191.612 50.8378 190.988 50.3338C190.364 49.8298 190.052 49.1638 190.052 48.3358C190.052 47.5318 190.34 46.8838 190.916 46.3918C191.504 45.8998 192.434 45.6538 193.706 45.6538H196.712V45.0778C196.712 44.2618 196.484 43.6438 196.028 43.2238C195.572 42.7918 194.906 42.5758 194.03 42.5758C193.43 42.5758 192.854 42.6778 192.302 42.8818C191.75 43.0738 191.276 43.3438 190.88 43.6918L190.304 42.7378C190.784 42.3298 191.36 42.0178 192.032 41.8018C192.704 41.5738 193.412 41.4598 194.156 41.4598ZM193.706 50.0818C194.426 50.0818 195.044 49.9198 195.56 49.5958C196.076 49.2598 196.46 48.7798 196.712 48.1558V46.6078H193.742C192.122 46.6078 191.312 47.1718 191.312 48.2998C191.312 48.8518 191.522 49.2898 191.942 49.6138C192.362 49.9258 192.95 50.0818 193.706 50.0818Z" fill="#F5DF4D"/>
<path d="M204.83 46.7878H202.67V50.9998H201.392V41.5318H202.67V45.6898H204.848L208.178 41.5318H209.564L205.838 46.1218L209.834 50.9998H208.322L204.83 46.7878Z" fill="#F5DF4D"/>
<path d="M218.318 42.6658H214.736V50.9998H213.458V42.6658H209.876V41.5318H218.318V42.6658Z" fill="#F5DF4D"/>
<path d="M228.247 41.5318L223.513 52.1338C223.129 53.0218 222.685 53.6518 222.181 54.0238C221.677 54.3958 221.071 54.5818 220.363 54.5818C219.907 54.5818 219.481 54.5098 219.085 54.3658C218.689 54.2218 218.347 54.0058 218.059 53.7178L218.653 52.7638C219.133 53.2438 219.709 53.4838 220.381 53.4838C220.813 53.4838 221.179 53.3638 221.479 53.1238C221.791 52.8838 222.079 52.4758 222.343 51.8998L222.757 50.9818L218.527 41.5318H219.859L223.423 49.5778L226.987 41.5318H228.247Z" fill="#F5DF4D"/>
<path d="M235.116 41.4598C236.004 41.4598 236.808 41.6638 237.528 42.0718C238.248 42.4678 238.812 43.0318 239.22 43.7638C239.628 44.4958 239.832 45.3298 239.832 46.2658C239.832 47.2138 239.628 48.0538 239.22 48.7858C238.812 49.5178 238.248 50.0878 237.528 50.4958C236.82 50.8918 236.016 51.0898 235.116 51.0898C234.348 51.0898 233.652 50.9338 233.028 50.6218C232.416 50.2978 231.912 49.8298 231.516 49.2178V54.4918H230.238V41.5318H231.462V43.4038C231.846 42.7798 232.35 42.2998 232.974 41.9638C233.61 41.6278 234.324 41.4598 235.116 41.4598ZM235.026 49.9558C235.686 49.9558 236.286 49.8058 236.826 49.5058C237.366 49.1938 237.786 48.7558 238.086 48.1918C238.398 47.6278 238.554 46.9858 238.554 46.2658C238.554 45.5458 238.398 44.9098 238.086 44.3578C237.786 43.7938 237.366 43.3558 236.826 43.0438C236.286 42.7318 235.686 42.5758 235.026 42.5758C234.354 42.5758 233.748 42.7318 233.208 43.0438C232.68 43.3558 232.26 43.7938 231.948 44.3578C231.648 44.9098 231.498 45.5458 231.498 46.2658C231.498 46.9858 231.648 47.6278 231.948 48.1918C232.26 48.7558 232.68 49.1938 233.208 49.5058C233.748 49.8058 234.354 49.9558 235.026 49.9558Z" fill="#F5DF4D"/>
<path d="M4.76581 49.5918C4.76581 48.7158 4.96381 47.9358 5.35981 47.2518C5.7438 46.5558 6.2898 46.0158 6.9978 45.6318C7.6938 45.2478 8.4918 45.0558 9.3918 45.0558C10.3158 45.0558 11.1378 45.2598 11.8578 45.6678C12.5658 46.0638 13.1178 46.6218 13.5138 47.3418C13.9098 48.0618 14.1078 48.8898 14.1078 49.8258C14.1078 51.3978 13.5558 52.6158 12.4518 53.4798C11.3478 54.3438 9.8238 54.7758 7.87981 54.7758C5.85181 54.7758 4.2978 54.3918 3.2178 53.6238C2.1378 52.8438 1.40581 51.6318 1.02181 49.9878L0.0498047 45.7398L1.2198 45.5238L2.1378 49.5198C2.4378 50.8758 2.9718 51.8718 3.7398 52.5078C4.4958 53.1438 5.6178 53.4918 7.1058 53.5518C6.3738 53.1678 5.8038 52.6338 5.3958 51.9498C4.9758 51.2658 4.76581 50.4798 4.76581 49.5918ZM13.0458 49.7898C13.0458 49.1298 12.8958 48.5418 12.5958 48.0258C12.2838 47.4978 11.8518 47.0898 11.2998 46.8018C10.7478 46.5018 10.1238 46.3518 9.4278 46.3518C8.7318 46.3518 8.11981 46.4958 7.59181 46.7838C7.06381 47.0718 6.65581 47.4798 6.36781 48.0078C6.0678 48.5238 5.9178 49.1178 5.9178 49.7898C5.9178 50.4618 6.0678 51.0618 6.36781 51.5898C6.65581 52.1058 7.06381 52.5138 7.59181 52.8138C8.11981 53.1018 8.7318 53.2458 9.4278 53.2458C10.1238 53.2458 10.7478 53.1018 11.2998 52.8138C11.8518 52.5138 12.2838 52.0998 12.5958 51.5718C12.8958 51.0438 13.0458 50.4498 13.0458 49.7898Z" fill="#F5DF4D"/>
<path d="M14.0898 38.4106C14.0898 39.3226 13.8858 40.1446 13.4778 40.8766C13.0578 41.6086 12.4818 42.1846 11.7498 42.6046C11.0178 43.0246 10.1898 43.2346 9.26581 43.2346C8.34181 43.2346 7.51381 43.0246 6.78181 42.6046C6.04981 42.1846 5.4798 41.6086 5.07181 40.8766C4.66381 40.1446 4.4598 39.3226 4.4598 38.4106C4.4598 37.4986 4.66381 36.6766 5.07181 35.9446C5.4798 35.2126 6.04981 34.6426 6.78181 34.2346C7.51381 33.8146 8.34181 33.6046 9.26581 33.6046C10.1898 33.6046 11.0178 33.8146 11.7498 34.2346C12.4818 34.6426 13.0578 35.2126 13.4778 35.9446C13.8858 36.6766 14.0898 37.4986 14.0898 38.4106ZM12.9558 38.4106C12.9558 37.7386 12.8058 37.1386 12.5058 36.6106C12.1938 36.0706 11.7558 35.6506 11.1918 35.3506C10.6278 35.0506 9.98581 34.9006 9.26581 34.9006C8.5458 34.9006 7.9038 35.0506 7.33981 35.3506C6.7758 35.6506 6.3438 36.0706 6.0438 36.6106C5.7318 37.1386 5.5758 37.7386 5.5758 38.4106C5.5758 39.0826 5.7318 39.6886 6.0438 40.2286C6.3438 40.7566 6.7758 41.1766 7.33981 41.4886C7.9038 41.7886 8.5458 41.9386 9.26581 41.9386C9.98581 41.9386 10.6278 41.7886 11.1918 41.4886C11.7558 41.1766 12.1938 40.7566 12.5058 40.2286C12.8058 39.6886 12.9558 39.0826 12.9558 38.4106Z" fill="#F5DF4D"/>
<path d="M4.53181 23.1859H13.9998V24.4639H5.6658V28.9999L8.00581 29.1259C9.9738 29.2219 11.4858 29.4499 12.5418 29.8099C13.5978 30.1699 14.1258 30.8119 14.1258 31.7359C14.1258 31.9879 14.0778 32.2939 13.9818 32.6539L12.8838 32.5639C12.9318 32.3479 12.9558 32.1979 12.9558 32.1139C12.9558 31.6219 12.7278 31.2499 12.2718 30.9979C11.8158 30.7459 11.2518 30.5779 10.5798 30.4939C9.90781 30.4099 9.0198 30.3379 7.9158 30.2779L4.53181 30.1159V23.1859Z" fill="#F5DF4D"/>
<path d="M9.66181 11.2729V19.1929C10.6458 19.1209 11.4438 18.7429 12.0558 18.0589C12.6558 17.3749 12.9558 16.5109 12.9558 15.4669C12.9558 14.8789 12.8538 14.3389 12.6498 13.8469C12.4338 13.3549 12.1218 12.9289 11.7138 12.5689L12.5418 11.8489C13.0458 12.2689 13.4298 12.7969 13.6938 13.4329C13.9578 14.0569 14.0898 14.7469 14.0898 15.5029C14.0898 16.4749 13.8858 17.3389 13.4778 18.0949C13.0578 18.8389 12.4818 19.4209 11.7498 19.8409C11.0178 20.2609 10.1898 20.4709 9.26581 20.4709C8.34181 20.4709 7.51381 20.2729 6.78181 19.8769C6.04981 19.4689 5.4798 18.9169 5.07181 18.2209C4.66381 17.5129 4.4598 16.7209 4.4598 15.8449C4.4598 14.9689 4.66381 14.1829 5.07181 13.4869C5.4798 12.7909 6.04981 12.2449 6.78181 11.8489C7.50181 11.4529 8.32981 11.2549 9.26581 11.2549L9.66181 11.2729ZM5.55781 15.8449C5.55781 16.7569 5.85181 17.5249 6.43981 18.1489C7.01581 18.7609 7.77181 19.1089 8.70781 19.1929V12.4789C7.77181 12.5629 7.01581 12.9169 6.43981 13.5409C5.85181 14.1529 5.55781 14.9209 5.55781 15.8449Z" fill="#F5DF4D"/>
<path d="M9.66181 0.145929V8.06593C10.6458 7.99393 11.4438 7.61593 12.0558 6.93193C12.6558 6.24793 12.9558 5.38393 12.9558 4.33993C12.9558 3.75193 12.8538 3.21193 12.6498 2.71993C12.4338 2.22793 12.1218 1.80193 11.7138 1.44193L12.5418 0.72193C13.0458 1.14193 13.4298 1.66993 13.6938 2.30593C13.9578 2.92993 14.0898 3.61993 14.0898 4.37593C14.0898 5.34793 13.8858 6.21193 13.4778 6.96793C13.0578 7.71193 12.4818 8.29393 11.7498 8.71393C11.0178 9.13393 10.1898 9.34393 9.26581 9.34393C8.34181 9.34393 7.51381 9.14593 6.78181 8.74993C6.04981 8.34193 5.4798 7.78993 5.07181 7.09393C4.66381 6.38593 4.4598 5.59393 4.4598 4.71793C4.4598 3.84193 4.66381 3.05593 5.07181 2.35993C5.4798 1.66393 6.04981 1.11793 6.78181 0.72193C7.50181 0.32593 8.32981 0.12793 9.26581 0.12793L9.66181 0.145929ZM5.55781 4.71793C5.55781 5.62993 5.85181 6.39793 6.43981 7.02193C7.01581 7.63393 7.77181 7.98193 8.70781 8.06593V1.35193C7.77181 1.43593 7.01581 1.78993 6.43981 2.41393C5.85181 3.02593 5.55781 3.79393 5.55781 4.71793Z" fill="#F5DF4D"/>
</svg>
