<svg width="216" height="51" viewBox="0 0 216 51" fill="none" xmlns="http://www.w3.org/2000/svg">
<path d="M46.9594 40.4156H38.7514V50.9996H27.3754V40.4156H0.231445V32.5676L23.9914 0.599609H36.2314L14.1994 30.9116H27.7354V21.4796H38.7514V30.9116H46.9594V40.4156Z" fill="#F5DF4D"/>
<path d="M62.4774 16.6656H58.8954V24.9996H57.6174V16.6656H54.0354V15.5316H62.4774V16.6656Z" fill="#F5DF4D"/>
<path d="M67.7918 25.0896C66.8798 25.0896 66.0578 24.8856 65.3258 24.4776C64.5938 24.0576 64.0178 23.4816 63.5978 22.7496C63.1778 22.0176 62.9678 21.1896 62.9678 20.2656C62.9678 19.3416 63.1778 18.5136 63.5978 17.7816C64.0178 17.0496 64.5938 16.4796 65.3258 16.0716C66.0578 15.6636 66.8798 15.4596 67.7918 15.4596C68.7038 15.4596 69.5258 15.6636 70.2578 16.0716C70.9898 16.4796 71.5598 17.0496 71.9678 17.7816C72.3878 18.5136 72.5978 19.3416 72.5978 20.2656C72.5978 21.1896 72.3878 22.0176 71.9678 22.7496C71.5598 23.4816 70.9898 24.0576 70.2578 24.4776C69.5258 24.8856 68.7038 25.0896 67.7918 25.0896ZM67.7918 23.9556C68.4638 23.9556 69.0638 23.8056 69.5918 23.5056C70.1318 23.1936 70.5518 22.7556 70.8518 22.1916C71.1518 21.6276 71.3018 20.9856 71.3018 20.2656C71.3018 19.5456 71.1518 18.9036 70.8518 18.3396C70.5518 17.7756 70.1318 17.3436 69.5918 17.0436C69.0638 16.7316 68.4638 16.5756 67.7918 16.5756C67.1198 16.5756 66.5138 16.7316 65.9738 17.0436C65.4458 17.3436 65.0258 17.7756 64.7138 18.3396C64.4138 18.9036 64.2638 19.5456 64.2638 20.2656C64.2638 20.9856 64.4138 21.6276 64.7138 22.1916C65.0258 22.7556 65.4458 23.1936 65.9738 23.5056C66.5138 23.8056 67.1198 23.9556 67.7918 23.9556Z" fill="#F5DF4D"/>
<path d="M82.4752 15.5316V24.9996H81.1972V21.0576C80.1052 21.5376 79.0312 21.7776 77.9752 21.7776C76.8352 21.7776 75.9472 21.5196 75.3112 21.0036C74.6752 20.4756 74.3572 19.6896 74.3572 18.6456V15.5316H75.6352V18.5736C75.6352 19.2816 75.8632 19.8216 76.3192 20.1936C76.7752 20.5536 77.4052 20.7336 78.2092 20.7336C79.0972 20.7336 80.0932 20.4996 81.1972 20.0316V15.5316H82.4752Z" fill="#F5DF4D"/>
<path d="M89.5426 20.7876H87.3826V24.9996H86.1046V15.5316H87.3826V19.6896H89.5606L92.8906 15.5316H94.2766L90.5506 20.1216L94.5466 24.9996H93.0346L89.5426 20.7876Z" fill="#F5DF4D"/>
<path d="M96.5635 15.5316H97.8415V23.0556L104.16 15.5316H105.294V24.9996H104.016V17.4756L97.7155 24.9996H96.5635V15.5316Z" fill="#F5DF4D"/>
<path d="M64.3134 37.5316V46.9996H63.0354V38.6656H57.0954V46.9996H55.8174V37.5316H64.3134Z" fill="#F5DF4D"/>
<path d="M72.8243 37.4596C73.7123 37.4596 74.5163 37.6636 75.2364 38.0716C75.9564 38.4676 76.5204 39.0316 76.9284 39.7636C77.3363 40.4956 77.5404 41.3296 77.5404 42.2656C77.5404 43.2136 77.3363 44.0536 76.9284 44.7856C76.5204 45.5176 75.9564 46.0876 75.2364 46.4956C74.5284 46.8916 73.7243 47.0896 72.8243 47.0896C72.0564 47.0896 71.3604 46.9336 70.7364 46.6216C70.1244 46.2976 69.6204 45.8296 69.2243 45.2176V50.4916H67.9464V37.5316H69.1703V39.4036C69.5544 38.7796 70.0583 38.2996 70.6824 37.9636C71.3184 37.6276 72.0323 37.4596 72.8243 37.4596ZM72.7344 45.9556C73.3944 45.9556 73.9944 45.8056 74.5344 45.5056C75.0744 45.1936 75.4943 44.7556 75.7943 44.1916C76.1064 43.6276 76.2624 42.9856 76.2624 42.2656C76.2624 41.5456 76.1064 40.9096 75.7943 40.3576C75.4943 39.7936 75.0744 39.3556 74.5344 39.0436C73.9944 38.7316 73.3944 38.5756 72.7344 38.5756C72.0624 38.5756 71.4564 38.7316 70.9164 39.0436C70.3884 39.3556 69.9683 39.7936 69.6563 40.3576C69.3563 40.9096 69.2064 41.5456 69.2064 42.2656C69.2064 42.9856 69.3563 43.6276 69.6563 44.1916C69.9683 44.7556 70.3884 45.1936 70.9164 45.5056C71.4564 45.8056 72.0624 45.9556 72.7344 45.9556Z" fill="#F5DF4D"/>
<path d="M84.1922 47.0896C83.2802 47.0896 82.4582 46.8856 81.7262 46.4776C80.9942 46.0576 80.4182 45.4816 79.9982 44.7496C79.5782 44.0176 79.3682 43.1896 79.3682 42.2656C79.3682 41.3416 79.5782 40.5136 79.9982 39.7816C80.4182 39.0496 80.9942 38.4796 81.7262 38.0716C82.4582 37.6636 83.2802 37.4596 84.1922 37.4596C85.1042 37.4596 85.9262 37.6636 86.6582 38.0716C87.3902 38.4796 87.9602 39.0496 88.3682 39.7816C88.7882 40.5136 88.9982 41.3416 88.9982 42.2656C88.9982 43.1896 88.7882 44.0176 88.3682 44.7496C87.9602 45.4816 87.3902 46.0576 86.6582 46.4776C85.9262 46.8856 85.1042 47.0896 84.1922 47.0896ZM84.1922 45.9556C84.8642 45.9556 85.4642 45.8056 85.9922 45.5056C86.5322 45.1936 86.9522 44.7556 87.2522 44.1916C87.5522 43.6276 87.7022 42.9856 87.7022 42.2656C87.7022 41.5456 87.5522 40.9036 87.2522 40.3396C86.9522 39.7756 86.5322 39.3436 85.9922 39.0436C85.4642 38.7316 84.8642 38.5756 84.1922 38.5756C83.5202 38.5756 82.9142 38.7316 82.3742 39.0436C81.8462 39.3436 81.4262 39.7756 81.1142 40.3396C80.8142 40.9036 80.6642 41.5456 80.6642 42.2656C80.6642 42.9856 80.8142 43.6276 81.1142 44.1916C81.4262 44.7556 81.8462 45.1936 82.3742 45.5056C82.9142 45.8056 83.5202 45.9556 84.1922 45.9556Z" fill="#F5DF4D"/>
<path d="M100.911 45.8836V49.2856H99.7048V46.9996H91.2268V49.2856H90.0208V45.8836H90.5608C91.1968 45.8476 91.6288 45.3796 91.8568 44.4796C92.0848 43.5796 92.2408 42.3196 92.3248 40.6996L92.4508 37.5316H99.4348V45.8836H100.911ZM93.4948 40.7716C93.4348 42.1156 93.3208 43.2256 93.1528 44.1016C92.9848 44.9656 92.6848 45.5596 92.2528 45.8836H98.1568V38.6656H93.6028L93.4948 40.7716Z" fill="#F5DF4D"/>
<path d="M106.659 37.4596C107.895 37.4596 108.843 37.7716 109.503 38.3956C110.163 39.0076 110.493 39.9196 110.493 41.1316V46.9996H109.269V45.5236C108.981 46.0156 108.555 46.3996 107.991 46.6756C107.439 46.9516 106.779 47.0896 106.011 47.0896C104.955 47.0896 104.115 46.8376 103.491 46.3336C102.867 45.8296 102.555 45.1636 102.555 44.3356C102.555 43.5316 102.843 42.8836 103.419 42.3916C104.007 41.8996 104.937 41.6536 106.209 41.6536H109.215V41.0776C109.215 40.2616 108.987 39.6436 108.531 39.2236C108.075 38.7916 107.409 38.5756 106.533 38.5756C105.933 38.5756 105.357 38.6776 104.805 38.8816C104.253 39.0736 103.779 39.3436 103.383 39.6916L102.807 38.7376C103.287 38.3296 103.863 38.0176 104.535 37.8016C105.207 37.5736 105.915 37.4596 106.659 37.4596ZM106.209 46.0816C106.929 46.0816 107.547 45.9196 108.063 45.5956C108.579 45.2596 108.963 44.7796 109.215 44.1556V42.6076H106.245C104.625 42.6076 103.815 43.1716 103.815 44.2996C103.815 44.8516 104.025 45.2896 104.445 45.6136C104.865 45.9256 105.453 46.0816 106.209 46.0816Z" fill="#F5DF4D"/>
<path d="M122.194 42.7876H120.142V46.9996H118.864V42.7876H116.812L113.914 46.9996H112.384L115.786 42.1216L112.654 37.5316H114.04L116.812 41.6896H118.864V37.5316H120.142V41.6896H122.194L124.984 37.5316H126.37L123.238 42.1396L126.64 46.9996H125.11L122.194 42.7876Z" fill="#F5DF4D"/>
<path d="M137.384 47.0896C136.472 47.0896 135.65 46.8856 134.918 46.4776C134.186 46.0576 133.61 45.4816 133.19 44.7496C132.77 44.0176 132.56 43.1896 132.56 42.2656C132.56 41.3416 132.77 40.5136 133.19 39.7816C133.61 39.0496 134.186 38.4796 134.918 38.0716C135.65 37.6636 136.472 37.4596 137.384 37.4596C138.296 37.4596 139.118 37.6636 139.85 38.0716C140.582 38.4796 141.152 39.0496 141.56 39.7816C141.98 40.5136 142.19 41.3416 142.19 42.2656C142.19 43.1896 141.98 44.0176 141.56 44.7496C141.152 45.4816 140.582 46.0576 139.85 46.4776C139.118 46.8856 138.296 47.0896 137.384 47.0896ZM137.384 45.9556C138.056 45.9556 138.656 45.8056 139.184 45.5056C139.724 45.1936 140.144 44.7556 140.444 44.1916C140.744 43.6276 140.894 42.9856 140.894 42.2656C140.894 41.5456 140.744 40.9036 140.444 40.3396C140.144 39.7756 139.724 39.3436 139.184 39.0436C138.656 38.7316 138.056 38.5756 137.384 38.5756C136.712 38.5756 136.106 38.7316 135.566 39.0436C135.038 39.3436 134.618 39.7756 134.306 40.3396C134.006 40.9036 133.856 41.5456 133.856 42.2656C133.856 42.9856 134.006 43.6276 134.306 44.1916C134.618 44.7556 135.038 45.1936 135.566 45.5056C136.106 45.8056 136.712 45.9556 137.384 45.9556Z" fill="#F5DF4D"/>
<path d="M156.351 42.2476C156.351 43.7236 155.865 44.8816 154.893 45.7216C153.921 46.5616 152.547 47.0176 150.771 47.0896V50.4916H149.529V47.1076C147.765 47.0356 146.397 46.5796 145.425 45.7396C144.465 44.8876 143.985 43.7236 143.985 42.2476C143.985 40.7836 144.465 39.6376 145.425 38.8096C146.397 37.9816 147.765 37.5316 149.529 37.4596V33.6436H150.771V37.4596C152.547 37.5436 153.921 37.9996 154.893 38.8276C155.865 39.6556 156.351 40.7956 156.351 42.2476ZM145.245 42.2476C145.245 43.3756 145.605 44.2576 146.325 44.8936C147.057 45.5296 148.125 45.8896 149.529 45.9736V38.5936C148.137 38.6656 147.075 39.0196 146.343 39.6556C145.611 40.2796 145.245 41.1436 145.245 42.2476ZM150.771 45.9736C152.175 45.9016 153.243 45.5476 153.975 44.9116C154.719 44.2756 155.091 43.3876 155.091 42.2476C155.091 41.1316 154.719 40.2616 153.975 39.6376C153.243 39.0136 152.175 38.6656 150.771 38.5936V45.9736Z" fill="#F5DF4D"/>
<path d="M170.484 42.2476C170.484 43.7236 169.998 44.8816 169.026 45.7216C168.054 46.5616 166.68 47.0176 164.904 47.0896V50.4916H163.662V47.1076C161.898 47.0356 160.53 46.5796 159.558 45.7396C158.598 44.8876 158.118 43.7236 158.118 42.2476C158.118 40.7836 158.598 39.6376 159.558 38.8096C160.53 37.9816 161.898 37.5316 163.662 37.4596V33.6436H164.904V37.4596C166.68 37.5436 168.054 37.9996 169.026 38.8276C169.998 39.6556 170.484 40.7956 170.484 42.2476ZM159.378 42.2476C159.378 43.3756 159.738 44.2576 160.458 44.8936C161.19 45.5296 162.258 45.8896 163.662 45.9736V38.5936C162.27 38.6656 161.208 39.0196 160.476 39.6556C159.744 40.2796 159.378 41.1436 159.378 42.2476ZM164.904 45.9736C166.308 45.9016 167.376 45.5476 168.108 44.9116C168.852 44.2756 169.224 43.3876 169.224 42.2476C169.224 41.1316 168.852 40.2616 168.108 39.6376C167.376 39.0136 166.308 38.6656 164.904 38.5936V45.9736Z" fill="#F5DF4D"/>
<path d="M180.874 37.5316V46.9996H179.596V38.6656H175.06L174.934 41.0056C174.838 42.9736 174.61 44.4856 174.25 45.5416C173.89 46.5976 173.248 47.1256 172.324 47.1256C172.072 47.1256 171.766 47.0776 171.406 46.9816L171.496 45.8836C171.712 45.9316 171.862 45.9556 171.946 45.9556C172.438 45.9556 172.81 45.7276 173.062 45.2716C173.314 44.8156 173.482 44.2516 173.566 43.5796C173.65 42.9076 173.722 42.0196 173.782 40.9156L173.944 37.5316H180.874Z" fill="#F5DF4D"/>
<path d="M187.765 37.4596C189.001 37.4596 189.949 37.7716 190.609 38.3956C191.269 39.0076 191.599 39.9196 191.599 41.1316V46.9996H190.375V45.5236C190.087 46.0156 189.661 46.3996 189.097 46.6756C188.545 46.9516 187.885 47.0896 187.117 47.0896C186.061 47.0896 185.221 46.8376 184.597 46.3336C183.973 45.8296 183.661 45.1636 183.661 44.3356C183.661 43.5316 183.949 42.8836 184.525 42.3916C185.113 41.8996 186.043 41.6536 187.315 41.6536H190.321V41.0776C190.321 40.2616 190.093 39.6436 189.637 39.2236C189.181 38.7916 188.515 38.5756 187.639 38.5756C187.039 38.5756 186.463 38.6776 185.911 38.8816C185.359 39.0736 184.885 39.3436 184.489 39.6916L183.913 38.7376C184.393 38.3296 184.969 38.0176 185.641 37.8016C186.313 37.5736 187.021 37.4596 187.765 37.4596ZM187.315 46.0816C188.035 46.0816 188.653 45.9196 189.169 45.5956C189.685 45.2596 190.069 44.7796 190.321 44.1556V42.6076H187.351C185.731 42.6076 184.921 43.1716 184.921 44.2996C184.921 44.8516 185.131 45.2896 185.551 45.6136C185.971 45.9256 186.559 46.0816 187.315 46.0816Z" fill="#F5DF4D"/>
<path d="M195.001 37.5316H196.279V45.0556L202.597 37.5316H203.731V46.9996H202.453V39.4756L196.153 46.9996H195.001V37.5316ZM199.303 36.1636C198.487 36.1636 197.839 35.9596 197.359 35.5516C196.879 35.1436 196.633 34.5676 196.621 33.8236H197.539C197.551 34.2916 197.719 34.6696 198.043 34.9576C198.367 35.2336 198.787 35.3716 199.303 35.3716C199.819 35.3716 200.239 35.2336 200.563 34.9576C200.899 34.6696 201.073 34.2916 201.085 33.8236H202.003C201.991 34.5676 201.739 35.1436 201.247 35.5516C200.767 35.9596 200.119 36.1636 199.303 36.1636Z" fill="#F5DF4D"/>
<path d="M207.394 37.5316H208.672V41.7256H214.63V37.5316H215.908V46.9996H214.63V42.8236H208.672V46.9996H207.394V37.5316Z" fill="#F5DF4D"/>
</svg>
