<svg width="34" height="23" viewBox="0 0 34 23" fill="none" xmlns="http://www.w3.org/2000/svg">
<path d="M0.101562 3.16071C0.101562 2.02232 0.748884 1.40848 2.04353 1.3192L7.03237 1.35268C7.36719 1.35268 7.5904 1.52009 7.70201 1.85491C8.2154 3.52902 8.79018 4.97433 9.42634 6.19085C10.0625 7.40737 10.894 8.80804 11.9208 10.3929C12.01 10.5938 12.1551 10.6942 12.356 10.6942C12.5123 10.6942 12.635 10.6161 12.7243 10.4598L12.8248 10.0915L12.8583 4.29911C12.8583 3.89732 12.7634 3.62946 12.5737 3.49554C12.3839 3.36161 12.0324 3.26116 11.519 3.1942C11.1172 3.12723 10.9163 2.8817 10.9163 2.45759C10.9163 2.3683 10.9275 2.30134 10.9498 2.2567C11.4185 0.805804 12.7578 0.0803571 14.9676 0.0803571L16.8426 0.046875C17.6908 0.046875 18.394 0.258929 18.952 0.683036C19.51 1.10714 19.7891 1.77679 19.7891 2.69196V10.2924C19.9453 10.404 20.0904 10.4598 20.2243 10.4598C20.5592 10.4598 20.8493 10.2589 21.0949 9.85714C23.5502 6.41964 24.8783 4.12054 25.0792 2.95982C25.0792 2.9375 25.1016 2.8817 25.1462 2.79241C25.3025 2.45759 25.5592 2.16741 25.9163 1.92188C26.2734 1.67634 26.5859 1.50893 26.8538 1.41964C26.9431 1.375 27.0435 1.35268 27.1551 1.35268H32.3449L32.6797 1.38616C33.1261 1.38616 33.4721 1.59821 33.7176 2.02232C33.8069 2.15625 33.8683 2.30134 33.9018 2.45759C33.9353 2.61384 33.9576 2.77009 33.9688 2.92634C33.9799 3.08259 33.9855 3.17188 33.9855 3.1942V3.42857C33.8292 4.34375 33.433 5.32031 32.7969 6.35826C32.1607 7.39621 31.3516 8.51786 30.3694 9.72322C29.3873 10.9286 28.7734 11.721 28.5279 12.1004C28.327 12.3683 28.2266 12.6138 28.2266 12.8371C28.2266 13.0156 28.3158 13.2165 28.4944 13.4397L33.3828 19.6004C33.6507 19.9576 33.7846 20.3482 33.7846 20.7723C33.7846 21.2857 33.5837 21.7098 33.1819 22.0446C32.7801 22.3795 32.3002 22.5692 31.7422 22.6138L31.173 22.6473H26.0837C26.0614 22.6473 26.0167 22.6529 25.9498 22.6641C25.8828 22.6752 25.8382 22.6808 25.8158 22.6808C25.3248 22.6808 24.8672 22.4688 24.4431 22.0446C24.2868 21.8661 23.2377 20.5491 21.2958 18.0938C21.1842 17.9375 21.0279 17.7924 20.827 17.6585C20.7377 18.0156 20.6205 18.529 20.4754 19.1987C20.3304 19.8683 20.2243 20.3482 20.1574 20.6384L20.0569 21.2076C19.8337 21.9888 19.365 22.4576 18.6507 22.6138L18.1819 22.6473H14.9007C13.048 22.6473 11.2009 21.7991 9.35938 20.1027C7.51786 18.4063 5.86049 16.2132 4.38728 13.5234C2.91406 10.8337 1.54129 7.70313 0.268973 4.1317C0.157366 3.84152 0.101562 3.51786 0.101562 3.16071ZM20.2243 11.8326C19.7556 11.8326 19.3315 11.7042 18.952 11.4475C18.5725 11.1908 18.3828 10.8393 18.3828 10.3929V2.69196C18.3828 2.24554 18.2712 1.92746 18.048 1.73772C17.8248 1.54799 17.4342 1.45313 16.8761 1.45313L14.9676 1.52009C14.0078 1.52009 13.2824 1.6875 12.7913 2.02232C13.7734 2.49107 14.2645 3.25 14.2645 4.29911V10.192C14.2199 10.75 13.9967 11.2132 13.5949 11.5815C13.1931 11.9498 12.7467 12.1339 12.2556 12.1339C11.5859 12.1339 11.0725 11.8103 10.7154 11.1629C8.97433 8.52902 7.67969 6.02902 6.83147 3.66295L6.53013 2.79241L2.07701 2.75893C1.78683 2.75893 1.625 2.77567 1.59152 2.80915C1.55804 2.84263 1.54129 2.9375 1.54129 3.09375C1.54129 3.29464 1.56362 3.5067 1.60826 3.72991L2.31138 5.60491C4.18638 10.4487 6.22321 14.2656 8.42188 17.0558C10.6205 19.846 12.7801 21.2411 14.9007 21.2411H18.2489C18.3828 21.2411 18.4833 21.202 18.5502 21.1239C18.6172 21.0458 18.673 20.8951 18.7176 20.6719L18.7846 20.3371L19.4208 17.3906C19.5993 16.9888 19.7556 16.721 19.8895 16.5871C20.135 16.3415 20.4252 16.2188 20.76 16.2188C21.2958 16.2188 21.8426 16.5424 22.4007 17.1897L25.2467 20.8058C25.4252 21.096 25.615 21.2411 25.8158 21.2411H31.3404C32.01 21.2411 32.3449 21.0737 32.3449 20.7388C32.3449 20.6272 32.3114 20.5156 32.2444 20.404L27.3895 14.3438C27.01 13.875 26.8203 13.3728 26.8203 12.8371C26.8203 12.3013 26.9989 11.7879 27.356 11.2969C27.6462 10.8504 28.2098 10.1083 29.0469 9.07031C29.8839 8.03237 30.615 7.06138 31.24 6.15737C31.865 5.25335 32.2779 4.43304 32.4788 3.69643L32.5792 3.26116C32.5569 3.21652 32.5458 3.14397 32.5458 3.04353C32.5458 2.94308 32.5346 2.85938 32.5123 2.79241H27.2556C26.9208 2.92634 26.6529 3.12723 26.452 3.39509L26.2511 4.03125C25.6931 5.57143 24.231 7.94866 21.865 11.1629C21.3962 11.6094 20.8493 11.8326 20.2243 11.8326Z" fill="white"/>
</svg>
