<svg width="260" height="260" fill="none" xmlns="http://www.w3.org/2000/svg"><path opacity=".15" d="M260 130c0 71.797-58.203 130-130 130S0 201.797 0 130 58.203 0 130 0s130 58.203 130 130zm-249.6 0c0 66.053 53.547 119.6 119.6 119.6S249.6 196.053 249.6 130 196.053 10.4 130 10.4 10.4 63.947 10.4 130z" fill="#fff"/><path d="M140.776.447a130.001 130.001 0 00-122.53 195.97l8.941-5.313A119.602 119.602 0 0176.42 23.074a119.6 119.6 0 0163.494-12.262l.862-10.365z" fill="#F5DF4D"/><circle opacity=".15" cx="130" cy="130" r="94.355" fill="#fff"/></svg>