<svg width="260" height="260" fill="none" xmlns="http://www.w3.org/2000/svg"><path opacity=".15" d="M260 130c0 71.797-58.203 130-130 130S0 201.797 0 130 58.203 0 130 0s130 58.203 130 130zm-249.6 0c0 66.053 53.547 119.6 119.6 119.6S249.6 196.053 249.6 130 196.053 10.4 130 10.4 10.4 63.947 10.4 130z" fill="#fff"/><path d="M140.776.447a130 130 0 1088.451 45.565l-7.938 6.72a119.597 119.597 0 012.305 151.729A119.604 119.604 0 0175.23 236.322 119.602 119.602 0 0162.05 31.577a119.6 119.6 0 0177.863-20.765l.862-10.365z" fill="#F5DF4D"/><circle opacity=".15" cx="130" cy="130" r="94.355" fill="#fff"/></svg>