<svg width="64" height="64" fill="none" xmlns="http://www.w3.org/2000/svg"><path d="M21.906 48c-1.396 0-2.635-.542-3.718-1.625-1.146-1.146-1.72-2.537-1.72-4.172 0-1.635.574-3.026 1.72-4.172L36.156 18.97c.917-.938 1.974-1.542 3.172-1.813 1.198-.27 2.412-.198 3.64.219 1.23.416 2.365 1.135 3.407 2.156.333.354.64.745.922 1.172.281.427.51.875.687 1.344a8.8 8.8 0 01.547 3.047c-.041 2.208-.791 4.052-2.25 5.53L32.688 45.063a.942.942 0 01-.688.329.932.932 0 01-.703-.266.982.982 0 01-.313-.703c-.01-.281.078-.526.266-.735L44.844 29.25c1.104-1.125 1.666-2.521 1.687-4.188.021-1.666-.51-3.03-1.593-4.093a6.952 6.952 0 00-2.22-1.563c-.812-.354-1.687-.469-2.624-.344-.938.125-1.771.552-2.5 1.282L19.625 39.406c-.77.771-1.156 1.698-1.156 2.781 0 1.084.385 2.01 1.156 2.782.354.354.74.62 1.156.797.417.177.854.244 1.313.203.916-.042 1.77-.47 2.562-1.282L38.938 29.5a4.466 4.466 0 00.593-.735c.104-.156.188-.322.25-.5.063-.177.104-.354.125-.53.021-.178-.01-.36-.093-.548a1.772 1.772 0 00-.376-.53c-.395-.418-.78-.605-1.156-.563-.396.041-.843.302-1.343.78l-10.75 11.438a1.055 1.055 0 01-.438.266.96.96 0 01-.516.016.928.928 0 01-.453-.25.89.89 0 01-.312-.688c0-.27.093-.51.281-.719L35.5 25.47c.854-.834 1.719-1.292 2.594-1.375 1-.084 1.916.291 2.75 1.125.791.77 1.14 1.677 1.047 2.718-.094 1.042-.6 2.021-1.516 2.938L26.094 46.094c-1.167 1.166-2.469 1.791-3.907 1.875a.718.718 0 00-.14.015.726.726 0 01-.14.016z" fill="#fff"/><circle cx="32" cy="32" r="31.5" stroke="#fff"/><defs><clipPath id="clip0"><path fill="#fff" transform="translate(16 17)" d="M0 0h33v31H0z"/></clipPath></defs></svg>