<svg width="194" height="86" fill="none" xmlns="http://www.w3.org/2000/svg"><path fill-rule="evenodd" clip-rule="evenodd" d="M28.357 7.433c1.094.44 3.013 1.556 6.893.061.258-.89-2.497-1.72-3.704-1.587a5.905 5.905 0 00-2.859 1.26l-.33.245v.02zm-6.295 4.392v-.194.204-.01zm0-.696V9.112c0 .676 0 1.351.073 2.047l-.073-.03zm3.87 59.155l.072-1.597c-2.59-1.351-10.133 5.386-14.034 12.399-3.9 7.013.867-13.801 13.415-15.409l.537-2.457C6.367 66.978 12.002 82.11 3.096 85.11a6.978 6.978 0 01-3.096 0c.1-1.324.35-2.633.743-3.901.34-1.198.733-2.376 1.094-3.563l3.096-10.238 1.516-4.3c.65-1.823 1.538-3.553 2.24-5.345.258-.648.554-1.28.887-1.894.258-.48.526-.952.805-1.423.279-.47.423-.686.66-1.024a43.325 43.325 0 012.807-3.747l.94-1.024c.278-.297.557-.583.856-.86a29.342 29.342 0 003.488-4.269c.225.05.432.16.598.318.235.23.503.427.795.583l.475.287 2.837 1.648.134.082 1.404.737.165.072 4.416 1.832c.669.228 1.361.38 2.064.45 1.027.135 2.06.217 3.096.247 1.331 0 3.932 0 5.077-.676 1.569-1.024 1.95-3.123 1.662-4.72-.16-.85-.399-1.682-.713-2.488a8.484 8.484 0 00-.732-1.546l-1.6-.42h-.206c-.382 0-.413.308-.34.564.019.083.043.165.072.245.072.297.154.584.227.88.485 1.977 1.31 3.072-.423 4.199-3.726 2.354-12.187-1.23-15.324-3.963-3.643-2.62 0-.553-.29-5.21 0-.881-.144-1.752-.133-2.642a8.133 8.133 0 01.577-3.214 8.183 8.183 0 011.796-2.735l.753-.808a1.86 1.86 0 01.248-.246l1.218-.932c.102-.072.213-.13.33-.174 2.002-1.024 4.272-1.628 6.191-2.785 3.581-2.14 4.582-7.269 3.756-11.067l-.113-.389h-.712c-3.787-1.024-8.359-.635-9.731.553a25.582 25.582 0 01-.361 5.119c-.351.716-3.302.716-3.725.614-.424-.102-.919-.645-.94-1.146.073.071.124.102.166.092-.32-.277-.578-.256-1.218-.246a57.66 57.66 0 01-7.925.256c10.061-.768-3.024-1.085 7.11-1.393-2.26.461-7.224-1.075-.66-.839-.155 0-10.423-.614-.744-1.024-10.401.062-3.54-1.31 1.373-1.188-6.367-.317-13.157-1.71-.176-1.382-12.011-.46-6.996-1.525-.412-1.546-4.665.174-11.578-.645-1.528-1.023-3.488 0-9.7-.963-.412-1.772-3.54-.491-9.99-1.505.691-1.443-4.344-.379-8.771-1.25.908-1.024-12.662-.942.072-1.74-2.342-1.577.36 0 4.437-.276 4.354-.174-.753-1.187 4.82-2.365 4.82-.553.268.297.443 2.396.711 4.25a8.973 8.973 0 013.416-2.253l.402-.164a9 9 0 012.714-.42c1.405.03 2.79.337 4.073.905A10.535 10.535 0 0140.4 6.675c1.96.167 3.876.68 5.654 1.515a.566.566 0 01.331.512.56.56 0 01-.33.512 30.53 30.53 0 01-2.601 1.167 24.224 24.224 0 011.713 3.072c.392.874.713 1.778.96 2.703.371 1.3.31 5.416.546 7.422a23.1 23.1 0 01.186 2.662v.38l1.641-.257.155-.512c.877-2.703 1.187-5.754 2.94-7.934 1.445 3.86 1.27 10.75-1.444 12.46l-1.713 2.313a23.413 23.413 0 00-2.91 9.41 84.392 84.392 0 00.392 14.527 82.898 82.898 0 002.477 13.463c.887 3.194 2.229 7.075 4.23 9.767.325.647.69 1.273 1.094 1.874.486.747 1.032 1.474 1.497 2.221.254.361.442.763.557 1.188-.32.512-1.878.635-2.404.665a29.55 29.55 0 01-4.758-.194 47.077 47.077 0 01-3.972-.594 18.69 18.69 0 01-2.714-.655 12.863 12.863 0 01-2.26-1.116c-.857-.502-1.693-1.024-2.57-1.464a14.539 14.539 0 00-7.306-1.74 17.19 17.19 0 00-5.52 1.31c-2.013.747-3.973 1.628-5.986 2.385-10.081 3.799 2.064-6.48 10.98-8.62l-.248-1.966c-6.635.686-9.534 4.095-13.765 6.86-2.539 1.689 7.017-10.238 10.67-9.727h.01zM21.763 5.12c0-.727-.093-1.3-.134-1.648 0-.533-.114-1.116.237-1.024a6.707 6.707 0 002.632-.123c.289-.133.32 0 .608.133.394 1.49.626 3.017.692 4.556-.124.174-.743.502-.857.696a28.456 28.456 0 00-.536-4.525c-.308.002-.615.03-.919.082-.619.102-.35 0-.701.072 0 0 0 .675.268 6.347 0 .522-.733 1.024-.722 1.454 0 0-.217-.747-.258-.747C22 8.64 22.01 7.32 21.804 5.109l-.04.01zm4.21 6.368l-.051.184h-.712c0 1.157.051 2.294 0 3.359 0 .614.732.808.732.081v-3.603l.031-.02zm-3.095.236c.092 2.846.196 4.382.134 4.832 0 .184-.95.164-.95.061.062-1.115.052-2.774 0-4.883h.836l-.02-.01zm3.023 4.76c.093-.112 0-.645-.072-.532a8.987 8.987 0 01-2.167.194c-.413 0-.392.789-.145.768.702 0 2.064 0 2.384-.43zm16.057-7.166a1.35 1.35 0 001.217-.123 1.118 1.118 0 00-.154-1.085 1.382 1.382 0 00-1.197.081 1.118 1.118 0 00.154 1.086l-.02.04zm-7.224 18.889c-1.496-.809-3.746 1.69-3.57 2.365.268 1.024 2.466 2.918 3.653 2.314a8.474 8.474 0 01-.02-4.72l-.063.041z" fill="#fff"/><path fill-rule="evenodd" clip-rule="evenodd" d="M28.894 7.464a11.15 11.15 0 00-1.95 2.344 7.972 7.972 0 00-.61 1.935l-.071.317h-.32a1.629 1.629 0 01-.63-.153c-.144-.072-.216-.174-.33-.236a.552.552 0 00-.475 0 2.43 2.43 0 00-.598.267 4.307 4.307 0 01-.413.235.977.977 0 01-.567.082 2.803 2.803 0 01-1.032-.307c-.217-.113-.485-.318-.516-.574a.285.285 0 010-.092.53.53 0 01.196-.399c.323-.243.691-.42 1.083-.522.238 0 .134-.184.34-.338.207-.153.238-.133.352-.328a36.32 36.32 0 012.961-4.75l.134 1.27 1.961 1.228.485.02z" fill="#fff"/><path fill-rule="evenodd" clip-rule="evenodd" d="M26.396 6.204a28.087 28.087 0 00-2.56 4.096 1.838 1.838 0 01-.536.624c-.31.182-.675.251-1.032.195a1.62 1.62 0 00-.547 0 .286.286 0 00-.051.143c0 .112.237.256.32.297.28.144.584.234.898.266.12.035.25.035.371 0l.372-.215c.211-.133.44-.236.68-.307a.913.913 0 01.785 0c.113.061.196.164.3.225.154.062.318.096.484.102a8.8 8.8 0 01.65-2.047 8.972 8.972 0 011.785-2.201l-1.919-1.178zm-12.434 12.02l.145-.256s.072-.051.072-.113c0-.061 0-.071.082-.112 3.437 8.405.475 10.606-.753 9.777-1.228-.83-2.157-.9.454-9.296zm5.985-1.587l-.186-.164s-.072 0-.082-.061c-.01-.062-.073-.031-.073-.031.155 1.546.444 5.477.62 6.696.423 3.071 2.187 2.365 2.476 1.075.29-1.29-2.538-6.174-2.755-7.515zm-1.29 2.396c1.816 3.9-2.064 4.904-2.177-.83v-.245l.175-1.393a5.558 5.558 0 012.002 2.468zm-.299 9.747c-1.114.194-1.393-1.751-1.341-2.642l.31-2.386c3.312 3.42 2.28 4.393 1.031 5.027zm-3.272-11.815c1.094.245 1.239-.88 1.228-1.772l-.196-2.395c-.464 1.218-3.519 3.153-1.032 4.167zm3.107 20.711c2.776.768 2.528-2.221-.35-5.119-.3 1.628-.795 3.604.35 5.12zm2.92-4.914c-2.528 0-1.888-1.925-1.94-3.072 1.466-.501 3.839 1.424 1.94 3.072zm-4.2 7.474c-.082-.471-1.031-2.386-1.135-2.867-3.508 7.515 3.261 6.655 1.135 2.867z" fill="#fff"/><path d="M79.905 68.817l-.31.207-.145.33-.145.228-.33.745-.187.248-.166.207-.124.228-.186.227-.186.207-.145.186-.186.166-.207.124-.228.083-.372.02-.352-.123-.186-.249-.083-.248-.041-.248-.021-.228-.083-.269v-.29l-.041-.269.041-.227v-.29l-.062-.248-.02-.248.062-.29-.021-.248v-.27l-.041-.537.04-.27-.02-.248.042-.29-.021-.496.02-.269-.02-.434-.166-.373-.186-.124-.33-.02-.25.103-.206.352-.124.393-.042.269-.062.248-.103.27-.041.31-.063.248-.103.269-.062.29-.083.268-.103.249-.042.269-.207.538-.082.268-.145.228-.104.248-.103.207-.186.207-.104.228-.227.124-.27.02-.289-.144-.165-.207-.104-.27-.041-.268-.083-.228-.041-.538-.063-.29-.02-.516v-.29l-.041-.249.04-.248-.02-.269v-.538l.062-.558-.02-.249.02-.29v-.392l-.103-.331-.228-.124h-.29l-.269.04-.206.311-.104.373-.103.29-.02.248v.269l-.063.269-.083.29-.082.537-.125.27v.247l-.062.27-.083.268-.103.27-.041.248-.124.29-.063.268-.082.27-.062.268-.124.228-.083.269-.104.248-.124.269-.083.248-.124.207-.145.186-.227.207-.207.145-.31.041-.331-.062-.166-.165-.145-.27-.083-.247-.082-.29-.021-.248.02-.29.042-.269v-.269l.041-.29-.02-.393-.062-.372-.249-.124-.33.02-.228.31-.104.373-.02.29-.042.269v.269l-.02.269v.269l.04.29v.248l.104.269.062.269.042.269.165.227.083.228.124.186.228.145.186.145.269.082.228.063.724-.042.248-.124.186-.124.27-.166.206-.144.166-.207.145-.207.165-.228.124-.248.083-.249.145-.227.103-.248.145-.476.124-.27.062-.268.042-.29.082-.248.021-.083.124.104v.269l.041.269.104.248.083.29.041.248.124.227.145.228.124.207.186.186.228.145.186.103.393.042.373-.042.207-.103.248-.186.228-.187.372-.413.165-.207.207-.497.166-.248.083-.27.103-.268.104-.393.062.145.041.807.02.537.042.27.103.248.063.517.082.248.104.249.145.227.103.249.207.186.207.145.186.082.393.083.497-.02.434-.125.249-.145.455-.29.124-.206.33-.29.435-.538.104-.227.269-.435.186-.248.145-.228.186-.496.124-.27.104-.372-.042-.351-.165-.145-.29-.062zm-4.407-3.021v-.083h.062v.062l-.062.02zm-4.18.165v.145h-.103l-.02-.145h.124zm4.573.104l-.083.041-.02-.124.103-.02v.103zm-.33.228l.02.124h-.145v-.124h.124zm-4.035.124v-.104l.082.02v.084h-.082zm-.373.248l.104-.02v.123h-.104v-.103zm4.614.083l.02-.104h.084l-.021.104h-.083zm-4.759.186v.124l-.124-.02v-.104h.124zm4.594.186l-.166-.02.02-.166.146.02v.166zm-4.325.29l-.124.02v-.124l.124-.02v.124zm3.931 0h-.103v-.124l.124.02-.02.104zm.373.33l-.186.042-.021-.145.166-.041.04.145zm-4.738-.02l.02-.083h.083l-.02.104-.083-.02zm4.096 0l-.082.02v-.103h.062l.02.083zm.932.29h-.125v-.124l.125.02v.104zm-.642.02l-.124.063-.02-.145.144-.042v.124zm-4.034 0v-.082l.082-.021.021.103h-.103zm4.386.352l-.145.02v-.165l.145-.02v.165zm-4.655-.02h-.062l.02-.083.062.02-.02.063zm.682 0h-.103l.02-.083h.083v.083zm3.29-.042v.062h-.083l.021-.083.062.021zm-3.6.393l-.145.02-.02-.165.144-.02.021.165zm3.972 0l-.186.042-.02-.166.165-.041.041.165zm-4.613-.103v.124l-.124-.02v-.125l.124.02zm5.193-.02v.123h-.104v-.124h.104zm-4.842.454h-.165v-.186h.165v.186zm3.766 0l.02-.124.083.02v.125l-.103-.02zm.828.02l-.145.022-.02-.166h.123l.042.145zm.29.187v.124h-.125v-.103l.124-.02zm-5.235.104h-.104v-.083h.104v.083zm.641.062l-.103-.042.041-.103.103.041-.04.104zm.269.227h-.083v-.103l.083.02v.083zm3.931.042v-.042l.062-.02v.041l-.062.02zm.248.31v-.083h.083v.083h-.083zm-6.062.931l-.082.041v-.062l.062-.02.02.041zm3.517.372l-.061-.02v-.062l.082.02-.02.063zm-.62.042l-.104-.02.021-.063h.103l-.02.083zm3.62.248l-.082.02v-.082l.083.02v.042zm-6.6 0l.042.041-.083.021v-.041l.041-.02zm9.063.124l.062-.103.062.062-.104.062-.103.124-.103.062.062-.124.124-.083zm-9.373.27h-.083l.021-.084h.062v.083zm7.51.31l-.061-.063.04-.062.104.042-.082.083zm-7.84.02l-.084-.02v-.083h.104l-.02.103zm-1.925-.082v.082l-.062-.02v-.063h.062zm10.448 0l.021.082h-.083v-.062l.062-.02zm-10.138.393h-.124l.02-.145.125.02-.02.125zm10.51-.124v.124l-.103-.042-.02-.103.124.02zm-9.868.124h-.083v-.104l.083.02v.084zm8.545.041l-.104-.02.02-.125.084.02v.125zm-7.842 0l-.083-.02v-.083h.104l-.02.103zm8.4 0v-.103h.083v.103h-.083zm-.29.207v-.062l.104.02-.02.063-.083-.021zm-9.103.062h-.083v-.103l.083.02v.083zm.641.02l-.062-.02v-.041l.083.02-.02.042z" fill="#fff"/><path d="M82.055 73.327l.765-.083.29-.062.455-.207.207-.124.414-.33.228-.146.144-.207.207-.207.145-.227.145-.186.124-.104.145.145.186.766.124.207.145.207.29.248.31.186.228.062.393-.02.414-.083.558-.29.373-.228.165-.145.228-.227.145-.207.165-.186.166-.228.124-.227.145-.207.124-.228.145-.228.269-.496.103-.228.145-.227.083-.373-.042-.372-.207-.166-.269-.082-.227.207-.207.33-.186.27-.124.248-.104.227-.186.249-.104.248-.186.207-.165.248-.186.186-.31.435-.27.145-.186.103-.373.083-.351-.083-.207-.207-.062-.29-.062-.227-.042-.269-.02-.269.02-.29-.041-.29v-.392l.041-.373v-.29l-.02-.248.02-.29.083-.558.041-.786.042-.29.062-.558.02-.249-.02-.269-.02-.393-.104-.29-.393-.103-.393.02-.166.208-.227.227-.228-.02-.27-.125-.227-.062-.269-.103-.496-.062-.373-.02-.413.02-.27.041-.268.104-.27.082-.206.104-.58.372-.496.476-.186.228-.145.207-.145.248-.414.724-.103.248-.062.27-.083.227-.062.269-.041.269-.021.29-.083.248-.02.248.04.29-.02.29v.289l.062.248.062.27.104.248.02.29.124.227.104.248.372.455.187.187.206.144.228.124.248.125.27.082.248.042.31.041zm3.89-7.82l-.083-.021.02-.104.083.02-.02.104zm-3.104-.084v.125l-.124-.021v-.124l.124.02zm.6.145h-.124l.02-.103h.104v.103zm.6-.041l-.062.02v-.082h.062v.062zm-.952.331l-.103.02-.02-.144.123-.02v.144zm2.607-.02h-.144l.02-.125h.124v.124zm.58.04l-.124-.02.02-.145.124.02-.02.146zm-1.883-.02l-.104.02-.02-.144h.124v.124zm.538 0l.02-.124h.125l-.042.145-.103-.021zm-2.42-.104v.104h-.104v-.104h.103zm1.24 0v.104h-.103v-.104h.103zm-1.034.373l-.02-.124h.123v.103l-.103.021zm2.648-.103v.165l-.144-.02v-.166l.144.02zm-.703 0h.083v.062h-.083v-.063zm1.262.165h-.145l.02-.145h.146l-.021.145zm-3.766-.103l.021.082h-.083l-.02-.082h.082zm.787 5.876l-.373.082-.393.062-.29-.041-.206-.103-.228-.166-.207-.186-.124-.228-.104-.269-.082-.248-.042-.269-.02-.538-.042-.269.104-.517.041-.27.166-.496.103-.248.352-.765.186-.187.145-.248.207-.166.207-.186.186-.145.269-.144.29-.104.392-.062.621.02.518.146.248.082.227.228.104.352-.042.248v.538l-.062.29-.02.248-.331 1.572-.104.27-.103.248-.435.682-.207.207-.165.207-.228.124-.248.124-.31.124zm-1.221-5.504l-.02-.124h.144v.124h-.124zm3.972.02h-.144l.02-.144h.145l-.02.145zm.58 0l-.124-.02.02-.124h.124l-.02.145zm-5.131-.02v-.083h.082v.083h-.082zm4.882.352l-.144.02-.042-.165.166-.02.02.165zm-5.172-.021v-.083l.062.021v.083l-.062-.021zm5.4.207l-.02.062-.063-.041.02-.042.063.02zm-5.028.083h-.103l-.02-.083h.103l.02.083zm4.345.02v-.062l.062-.02v.062l-.062.02zm.435.207l.062.083.041.083.124.124-.103.083-.228-.145-.103-.145.062-.124.145.041zm-5.131.083h-.042v-.041h.042v.041zm4.655.373l.02-.166h.145l-.02.145-.145.02zm-4.945-.021l-.103.02v-.124l.103-.02v.124zm5.42.269l-.123.02v-.103l.103-.02.02.103zm-5.751-.062l.02.082-.103.021v-.103h.083zm.62.103h-.082l.02-.103h.063v.103zm4.76.331l-.125-.02.041-.104.125.02-.042.104zm-5.05-.083l.022.042-.083.02-.02-.04.082-.022zm4.677.393l.02-.103h.083v.103h-.103zm.62 0v-.103l.104.02-.02.084h-.083zm-5.337.145v-.145l.124-.02v.145l-.124.02zm5.151.042v.124l-.124.02-.02-.124.144-.02zm-.31.476h-.124v-.145l.124.02v.125zm.6-.145l.02.124-.144.02v-.144h.124zm-.31.31l-.021.145-.145-.041v-.125l.166.021zm-5.09.104l-.083-.021.02-.062h.084l-.021.083zm4.614.372l.02-.186h.166l-.02.165-.166.021zm.807-.165l-.021.165h-.166l.021-.165h.166zm-.29.455l-.186.02-.02-.186h.185l.021.166zm-5.731-.021l-.124.02-.02-.123.123-.021.02.124zm5.069.02h-.124v-.144l.124.02v.125zm.331.311l-.165-.02v-.145l.144.02.021.145zm.6-.103l-.041.124h-.124l.04-.145.125.02zm-1.2.103l.124.083.083.041.083.062-.042.145-.145-.02-.062-.063-.062-.103-.041-.124.062-.021zm.91.331h-.186v-.186h.186v.186zm-5.586-.103l-.103.041v-.083l.082-.02.021.062zm5.255.413l-.144.021v-.145l.144-.02v.144zm.456-.02l.02-.124.124.02-.02.124-.124-.02zm3.31-.021h-.083v-.083h.104l-.021.083zm-4.552.083v-.104l.104-.02v.103l-.104.02zm4.22.227l-.123-.02v-.145l.124.041v.124zm-3.103.124l-.062-.02-.124-.124.104-.104.103.104.041.082.104.104.124.062v.124h-.124l-.062-.165-.104-.063zm-1.303-.103l-.062-.041.02-.042.042.021v.062zm1.758 0l.021-.062.083.02-.02.042h-.084zm-5.482.269v-.124l.124-.02v.123l-.124.021zm-.373.062h-.103v-.124h.103v.124zm8.173 0l-.083-.041.02-.062.084.02-.021.083zm-4.47 0v-.083l.063.021-.041.062H84zm-2.772.352h-.165v-.166h.165v.166zm4.676.227l.062-.144.083-.063.062-.082.124-.104.083.062-.062.145-.041.062-.104.083-.062.041h-.145zm2.297-.393v.104l-.083.02v-.082l.083-.042zm-7.614.187h-.124l-.02-.145.123-.021.02.166zm3.165-.021l-.103-.02v-.104h.103v.124zm3.125.02h-.062v-.082l.082.02-.02.063zm-.393.29l-.021-.165.165-.021.021.165-.165.021zm-5.607-.062h-.083v-.083h.083v.083zm6.393.083l-.145-.02v-.146l.145.021v.145zm-4.428-.124l-.02.124-.104-.041v-.104l.124.02zm-1.262.124l-.165.02v-.144h.144l.021.124zm.58-.124v.062l-.042.02-.02-.082h.061zm1.261.062h-.082l.02-.062h.083l-.02.062zm-1.634.31l-.02-.124h.123v.124h-.103zm1.345.02l-.124-.02v-.124l.124.02v.125zm3.807-.02l-.145.041.02-.165h.145l-.02.124zm-5.71-.083v.083l-.083-.02.02-.083.062.02zm5.048.083h-.083l-.02-.103h.103v.103zm-3.787.041h-.144v-.103l.144-.02v.124z" fill="#fff"/><path d="M96.134 68.775l-.249.228-.393.538-.124.248-.144.228-.187.186-.29.455-.537.538-.642.455-.476.249-.475.165-.29.062-.62.041-.415-.04-.227-.084-.27-.124-.185-.124-.145-.186-.104-.27-.083-.247.021-.394.042-.372.207-.476.144-.227.207-.187.145-.186.228-.145.372-.186.331-.228.228-.124.227-.103.414-.331.207-.186.186-.186.166-.187.145-.227.062-.249.103-.269v-.806l-.083-.27-.124-.206-.165-.228-.207-.186-.228-.145-.248-.124-.807-.124-.434.062-.394.041-.517.186-.248.124-.248.166-.187.145-.206.207-.249.31-.062.352.145.186.228.124.269-.103.579-.373.29-.165.248-.083.269-.062.248-.02.269.02.228.103.227.228.062.331-.041.393-.166.207-.186.207-.207.166-.207.124-.455.206-.33.228-.353.207-.165.124-.228.145-.227.186-.145.186-.186.207-.104.207-.165.228-.124.269-.125.62.021.414-.062.27.02.268.063.248.207.518.124.207.33.413.25.207.206.125.248.103.31.083.249.082.641.042.683-.062.538-.083.269-.062.228-.083.207-.103.29-.124.661-.414.166-.166.227-.165.207-.186.186-.187.332-.455.29-.434.165-.228.124-.186.103-.248.166-.228.103-.269.124-.372-.041-.331-.186-.166-.27-.083zm-3.538-3.434l-.145-.042.02-.124.145.02-.02.146zm-.331.227h-.083l-.02-.082h.103v.082zm.62-.062l-.02.083-.062-.02.02-.083.063.02zm-.269.393l-.144.042-.021-.124.145-.042.02.124zm.621.021h-.103l-.02-.083.123-.02v.103zm-.414.352l.021-.104.104.021-.021.104-.104-.021zm.414.207v.082h-.082l.02-.082h.062zm-.352.29v.123h-.082v-.103l.082-.02zm-.269.31l.021.124-.145.02V67.1l.124-.02zm.31.434l-.103.02-.02-.103.103-.02.02.103zm-.723.02l.02-.082.063.02v.063h-.083zm-.6.642h-.062l.02-.062.062.02-.02.042zm-.373.331v-.082h.062v.082h-.062zm-.993.352v-.124h.124v.103l-.124.021zm.393.269l-.082-.02.02-.083.083.02-.02.083zm-1.013.331v-.062h.082v.062h-.082zm.703-.02h-.041v-.042h.062l-.021.041zm-.31.289v.041l-.063.021v-.041l.063-.021zm-.683.703l-.042-.062.042-.082.062.103-.062.041zm.683-.144v.103l-.104.02v-.123h.104zm-.352.496l-.062-.02.02-.063h.063l-.021.083zm5.172.62l-.082-.02V71.3l.082.021v.083zm-5.38.208v.145h-.144v-.166l.145.02zm5.07.02v.083h-.083v-.082h.083zm-4.841.394l-.104.02-.041-.124.144-.02v.124zm4.49.041h-.104l.02-.103h.104l-.02.103zm-4.077.186v.145l-.144.02-.021-.165h.165zm3.807.104h-.103l-.02-.104h.103l.02.104zm-1.324.02l-.041-.041.041-.041.041.041-.04.041zm.662.021l-.062-.02.041-.063.021.042v.041zm-2.876.269h-.165v-.124l.145-.02.02.144zm.662.02l-.144.021v-.165h.124l.02.145zm1.883 0h-.103l.02-.144.104.02-.02.125zm-1.386-.123h.145l.02.144-.144.021-.021-.165zm.662.124l-.041-.124h.124l.041.124h-.124zm1.303-.021l.021-.083.062.02v.063h-.082zm-2.813.331l-.124-.02.02-.104.104.02v.104zm.62-.103l-.02.124-.104-.021v-.124l.124.02zm.724.144l-.165-.02-.041-.124.165-.021.041.165zm.476-.144l.124.02v.083h-.103l-.02-.103z" fill="#fff"/><path d="M98.28 73.327l.765-.083.29-.062.455-.207.207-.124.414-.33.227-.146.145-.207.207-.207.145-.227.145-.186.124-.104.145.145.186.766.124.207.145.207.289.248.311.186.227.062.394-.02.413-.083.559-.29.372-.228.166-.145.227-.227.145-.207.166-.186.165-.228.124-.227.145-.207.124-.228.145-.228.269-.496.104-.228.145-.227.082-.373-.041-.372-.207-.166-.269-.082-.228.207-.206.33-.187.27-.124.248-.103.227-.186.249-.104.248-.186.207-.166.248-.186.186-.31.435-.269.145-.186.103-.373.083-.352-.083-.206-.207-.062-.29-.063-.227-.041-.269-.021-.269.021-.29-.041-.29v-.392l.041-.373v-.29l-.021-.248.021-.29.083-.558.041-.786.042-.29.062-.558.02-.249-.02-.269-.021-.393-.103-.29-.394-.103-.393.02-.165.208-.228.227-.227-.02-.269-.125-.228-.062-.269-.103-.496-.062-.373-.02-.414.02-.269.041-.269.104-.269.082-.206.104-.58.372-.496.476-.187.228-.144.207-.145.248-.414.724-.103.248-.063.27-.082.227-.062.269-.042.269-.02.29-.083.248-.021.248.041.29-.02.29v.289l.062.248.062.27.103.248.021.29.124.227.104.248.372.455.186.187.207.144.228.124.248.125.269.082.248.042.31.041zm3.889-7.82l-.082-.021.02-.104.083.02-.021.104zm-3.103-.084v.125l-.124-.021v-.124l.124.02zm.6.145h-.124l.02-.103h.104v.103zm.6-.041l-.062.02v-.082h.062v.062zm-.952.331l-.103.02-.021-.144.124-.02v.144zm2.607-.02h-.145l.021-.125h.124v.124zm.579.04l-.124-.02.021-.145.124.02-.021.146zm-1.882-.02l-.104.02-.021-.144h.125v.124zm.538 0l.02-.124h.124l-.041.145-.103-.021zm-2.421-.104v.104h-.104v-.104h.104zm1.241 0v.104h-.103v-.104h.103zm-1.034.373l-.021-.124h.124v.103l-.103.021zm2.648-.103v.165l-.145-.02v-.166l.145.02zm-.703 0h.082v.062h-.082v-.063zm1.262.165h-.145l.02-.145h.145l-.02.145zm-3.766-.103l.02.082h-.082l-.02-.082h.082zm.786 5.876l-.372.082-.393.062-.29-.041-.207-.103-.227-.166-.207-.186-.124-.228-.104-.269-.083-.248-.041-.269-.02-.538-.042-.269.103-.517.042-.27.165-.496.104-.248.351-.765.187-.187.145-.248.206-.166.207-.186.186-.145.27-.144.29-.104.392-.062.621.02.517.146.248.082.228.228.103.352-.041.248v.538l-.062.29-.021.248-.331 1.572-.103.27-.104.248-.434.682-.207.207-.165.207-.228.124-.248.124-.31.124zm-1.22-5.504l-.021-.124h.145v.124h-.124zm3.972.02h-.145l.021-.144h.145l-.021.145zm.579 0l-.124-.02.021-.124h.124l-.021.145zm-5.13-.02v-.083h.082v.083h-.083zm4.882.352l-.145.02-.041-.165.165-.02.021.165zm-5.172-.021v-.083l.062.021v.083l-.062-.021zm5.4.207l-.021.062-.062-.041.021-.042.062.02zm-5.028.083h-.103l-.021-.083h.103l.021.083zm4.345.02v-.062l.062-.02v.062l-.062.02zm.434.207l.062.083.042.083.124.124-.103.083-.228-.145-.104-.145.063-.124.144.041zm-5.13.083h-.042v-.041h.041v.041zm4.655.373l.02-.166h.145l-.021.145-.144.02zm-4.945-.021l-.104.02v-.124l.104-.02v.124zm5.42.269l-.124.02v-.103l.104-.02.02.103zm-5.751-.062l.02.082-.103.021v-.103h.083zm.62.103h-.082l.02-.103h.062v.103zm4.759.331l-.124-.02.041-.104.124.02-.041.104zm-5.048-.083l.02.042-.082.02-.021-.04.083-.022zm4.676.393l.02-.103h.083v.103h-.103zm.62 0v-.103l.104.02-.021.084h-.083zm-5.338.145v-.145l.124-.02v.145l-.124.02zm5.152.042v.124l-.124.02-.021-.124.145-.02zm-.31.476h-.124v-.145l.124.02v.125zm.6-.145l.02.124-.144.02v-.144h.124zm-.311.31l-.02.145-.145-.041v-.125l.165.021zm-5.09.104l-.082-.021.02-.062h.083l-.02.083zm4.614.372l.021-.186h.166l-.021.165-.166.021zm.807-.165l-.02.165h-.166l.021-.165h.165zm-.289.455l-.186.02-.021-.186h.186l.021.166zm-5.731-.021l-.124.02-.021-.123.124-.021.02.124zm5.069.02h-.124v-.144l.124.02v.125zm.331.311l-.166-.02v-.145l.145.02.021.145zm.6-.103l-.042.124h-.124l.042-.145.124.02zm-1.2.103l.124.083.083.041.082.062-.041.145-.145-.02-.062-.063-.062-.103-.041-.124.062-.021zm.91.331h-.186v-.186h.186v.186zm-5.586-.103l-.104.041v-.083l.083-.02.02.062zm5.255.413l-.145.021v-.145l.145-.02v.144zm.455-.02l.021-.124.124.02-.021.124-.124-.02zm3.311-.021h-.083v-.083h.103l-.02.083zm-4.552.083v-.104l.103-.02v.103l-.103.02zm4.221.227l-.125-.02v-.145l.125.041v.124zm-3.104.124l-.062-.02-.124-.124.103-.104.104.104.041.082.104.104.124.062v.124h-.124l-.063-.165-.103-.063zm-1.303-.103l-.062-.041.02-.042.042.021v.062zm1.758 0l.021-.062.083.02-.021.042h-.083zm-5.483.269v-.124l.124-.02v.123l-.124.021zm-.372.062h-.103v-.124h.103v.124zm8.173 0l-.083-.041.02-.062.083.02-.02.083zm-4.47 0v-.083l.063.021-.042.062h-.021zm-2.772.352h-.165v-.166h.165v.166zm4.676.227l.062-.144.083-.063.062-.082.124-.104.083.062-.062.145-.042.062-.103.083-.062.041h-.145zm2.297-.393v.104l-.083.02v-.082l.083-.042zm-7.614.187h-.125l-.02-.145.124-.021.02.166zm3.165-.021l-.103-.02v-.104h.103v.124zm3.124.02h-.062v-.082l.083.02-.021.063zm-.393.29l-.02-.165.165-.021.021.165-.166.021zm-5.607-.062h-.082v-.083h.082v.083zm6.393.083l-.144-.02v-.146l.144.021v.145zm-4.427-.124l-.02.124-.104-.041v-.104l.124.02zm-1.262.124l-.166.02v-.144h.145l.02.124zm.579-.124v.062l-.041.02-.021-.082h.062zm1.262.062h-.083l.021-.062h.083l-.02.062zm-1.634.31l-.021-.124h.124v.124h-.103zm1.345.02l-.125-.02v-.124l.125.02v.125zm3.806-.02l-.144.041.02-.165h.145l-.021.124zm-5.71-.083v.083l-.083-.02.02-.083.063.02zm5.048.083h-.082l-.021-.103h.103v.103zm-3.786.041h-.145v-.103l.145-.02v.124z" fill="#fff"/><path d="M108.655 70.265l-.579.352-.207.248.02.248.042.249.207.144.372.021.311-.041.372-.021.538.165.227.145.187.228.124.228.041.248.083.29.062.29-.124.33-.228.248-.269.145-.248.166-.248.124-.186.145-.228.103-.517.31-.207.166-.228.145-.207.186-.165.207-.207.186-.166.228-.186.33-.186.373-.021.27-.02.248-.021.29.062.248.31.455.145.186.228.145.227.124.249.083h.765l.29-.063.269-.062.207-.124.186-.145.269-.124.186-.186.228-.186.165-.186.228-.476.124-.207.124-.248.062-.27.166-.537.041-.249.103-.269.063-.248.082-.517.145-.331.186-.29.228-.186.352-.352.186-.207.186-.165.352-.414.145-.227.186-.187.124-.227.186-.207.104-.207.186-.248.103-.207.166-.228.248-.496.083-.207.124-.228.124-.393-.062-.352-.145-.145-.227-.082-.331.145-.228.351-.228.455-.144.249-.125.248-.165.207-.104.228-.227.227-.104.228-.144.207-.207.227-.124.228-.207.207-.352.393-.228.041-.103-.186-.041-.228-.187-.476-.165-.227-.145-.186-.414-.331-.248-.124-.207-.083-.145-.145.083-.145.165-.186.249-.166.31-.413.414-.683.207-.517.062-.27.124-.496.041-.828-.103-.269-.041-.227-.104-.27-.083-.227-.145-.227-.413-.352-.228-.124-.248-.104-.269-.082-.248-.021h-.394l-.455.041-.496.124-.207.124-.186.145-.228.166-.186.186-.145.186-.207.207-.29.455-.393.725-.124.248-.083.248-.227.476-.145.248-.062.248-.104.228-.124.373.042.351.165.166.269.103.269-.165.248-.331.104-.249.103-.269.104-.248.124-.269.165-.248.104-.27.372-.723.124-.228.145-.207.207-.207.207-.186.207-.124.228-.083.434-.041.352.041.207.145.207.207.082.207.062.269.062.29.021.29-.103.268-.021.248-.124.249-.062.248-.228.393-.145.352-.165.207-.166.248-.393.372-.248.166zm.952-4.841l.02-.145h.125l-.021.124-.124.02zm-.518 0h-.124l.021-.125h.124l-.021.124zm1.283.02h-.103v-.124h.103v.124zm-.351.27l-.083-.042.062-.083.062.062-.041.062zm-1.283 0l-.083-.022.021-.082.082.02-.02.083zm.579-.084l.062-.02.021.041-.062.041-.021-.062zm1.345 0l.021.083-.104.02v-.082l.083-.02zm.228.414v-.124l.124-.02v.123l-.124.021zm-.497.02h-.124l-.021-.103.124-.02.021.124zm.269.29l-.145-.02.062-.166.145.062-.062.125zm.6 0h-.062v-.061h.062v.062zm-.248.29h-.104v-.103h.124l-.02.103zm-.311.248v.145l-.145-.02.021-.145.124.02zm.58.145l-.104-.02.021-.104h.103l-.02.124zm-.393.27v-.104h.103v.103h-.103zm-.249.31l-.062-.021.021-.062.062.02-.021.063zm.352.33l-.124-.02.021-.124.103.02v.125zm-.352.311l-.083.02v-.103l.083-.02v.103zm-.269.331l-.083-.02v-.083l.083.02v.083zm-.248.786l-.041.104-.125.02.021-.144.083-.042.145-.124.207-.207.062-.083.082-.124.104.062-.083.124-.062.063-.062.082-.041.062-.083.063-.083.04-.124.104zm-.476.456l.021-.042.062.02-.042.042-.041-.02zm-.248.393h-.083v-.104l.083.02v.084zm-.331.29l-.104-.021.021-.104.103.02-.02.104zm.6-.125l.02.083h-.082v-.083h.062zm-.89.435h-.103V70.7l.103.02v.104zm.621-.124l.083.103.082.083.104.041.145.083-.083.145-.145-.104-.124-.041-.083-.062-.103-.145.041-.103h.083zm.6.103l-.062-.02.02-.063.063.02-.021.063zm-.911.207l.021.103h-.103l-.021-.103h.103zm.973.455l-.083-.02.021-.083.083.04-.021.063zm.579-.062l-.02.062-.042-.02.021-.042h.041zm-.372.331l.02-.083.083.02-.02.063h-.083zm.621.041v-.062l.041-.02.021.062-.062.02zm-.207.331l-.104-.02.021-.104.103.02-.02.104zm.579-.041l-.124.166-.062.062-.042.082-.144.062.02-.165.062-.083.083-.062.062-.062h.145zm-.062.704l-.021-.125.124-.062.021.145-.124.041zm.662-.063v-.082h.083v.082h-.083zm-1.262.021v-.062h.083v.062h-.083zm.414.352l-.166.02v-.186h.166v.166zm.62-.02h-.103v-.125l.124.02-.021.104zm.642-.042l-.083.02-.021-.082.083-.021.021.083zm-1.573.352l-.124-.021.021-.124.103.041v.103zm.6.103l-.082-.041-.063-.063.021-.144h.124l.062.082.021.083.062.083.104.02.062.042v.124h-.124l-.083-.062-.104-.124zm.6-.103h-.082v-.083l.082-.021v.103zm-.869.33l-.165-.02v-.166l.165.021v.165zm-.351.352h-.145l.02-.186.145.041-.02.145zm.62-.041l-.103-.02.021-.125.103.062-.021.083zm-1.034.31v-.124l.103-.02.021.123-.124.021zm.579.02v-.165h.145l-.021.166h-.124zm-.807.27l-.103.02-.021-.144h.104l.02.124zm.642.041h-.125l.021-.145h.124l-.02.145zm.62-.02h-.103v-.083l.083-.042.02.125zm-.269.186l-.02.103h-.104l.021-.124.103.02zm-2.172 2.462l-.331.062-.352-.103-.103-.228v-.29l.082-.269.166-.227.434-.518.766-.579.352-.207.331-.062.082.207-.103.248-.062.29-.062.248-.104.249-.124.248-.124.269-.558.558-.29.104zm1.821-1.986h-.104v-.104h.104v.104zm-2.256.269h-.082v-.083h.082v.083zm2.463-.021l.02-.062h.062v.062h-.082zm-2.732.331l-.124.02-.02-.123.124-.042.02.145zm2.525 0l-.125-.02.042-.125h.103l-.02.145zm-2.856.207l.021.103h-.124v-.103h.103zm-.331.31l.021.124h-.103l-.021-.124h.103zm3.145 0l.021.104h-.083v-.104h.062zm-2.855.414l-.083-.041.021-.042h.062v.083zm2.586.02l-.103.021v-.103l.083-.02.02.103zm-2.834.332l-.145.082-.062.042-.145.145-.062-.042.062-.103.062-.062.041-.083.063-.083.144-.103.042.207zm2.42.041v-.083h.083v.083h-.083zm-2.11.186l-.021.145-.144-.041.02-.124.145.02zm1.841.021l.021.083h-.103l.02-.062.062-.021zm-2.296.352l.021-.145.103.02v.125h-.124zm1.262-.042l.103-.02v.124h-.082l-.021-.104zm-.662.042l.103-.042.021.145-.124.02v-.123zm.434.207l.042.144-.145-.04-.041-.146.144.042zm-.558.124l-.104-.02.021-.084h.083v.104z" fill="#fff"/><path d="M115.737 73.265l.807-.02.269-.042.248-.083.269-.124.434-.248.476-.331.186-.166.145-.207.373-.434.248-.414.145-.103.041.165.021.27.083.289.041.269.207.496.186.249.207.186.207.145.434.082.538-.041.373-.103.248-.083.248-.145.186-.186.249-.166.207-.207.165-.186.145-.227.186-.187.145-.227.145-.249.186-.227.124-.27.083-.227.186-.248.083-.228.145-.248.124-.393-.042-.372-.206-.166-.249-.041-.31.207-.248.31-.062.207-.166.248-.269.497-.103.227-.187.228-.082.248-.269.29-.29.269-.165.207-.228.124-.228.082-.393.021-.31-.124-.124-.248-.062-.248-.104-.518v-.558l.021-.31v-.27l-.021-.248.062-.269.042-.269v-.29l.041-.268-.021-.249.062-.558.063-.27v-.268l.103-.538v-.29l.041-.248-.02-.393-.166-.31-.248-.104-.186-.02-.29.02-.228.269-.082.33-.042.27-.062.29.042.227-.021.29-.062.248-.042.248-.062.559-.082.393-.021.393-.104.27-.041.247-.062.27-.145.268-.103.249-.083.248-.145.227-.124.228-.145.207-.165.248-.373.373-.186.144-.248.145-.29.104-.207.103-.434.02h-.393l-.228-.102-.145-.145-.165-.249-.083-.29.021-.372-.021-.413v-.31l-.021-.27.021-.227.124-.725.021-.413.041-.27.104-.289.062-.248.062-.414v-.414l.062-.269.02-.393-.02-.372-.104-.27-.145-.206-.206-.207-.249-.124-.248-.104h-.31l-.269.042-.269.062-.207.124-.248.29-.125.351.083.248.373.021.372-.041.228.103.082.373-.041.413-.083.27v.248l-.165.807v.248l-.104.227-.083.27v.269l-.062.248-.02.248.02.269-.082.269v.393l.041.414v.29l.083.29.041.268.248.497.207.207.125.186.227.186.248.124.269.083.249.062zm-1.159-7.862l-.062-.02.021-.063.082.02-.041.063zm.89.33l-.062.042-.042-.103-.103-.145v-.145l.103.083.062.062.042.083v.124zm-.538.063l-.124-.02v-.146h.124v.166zm-.6 0l-.124-.02v-.125l.124.02v.125zm.951.269h-.165l.021-.145h.144v.145zm5.049.041h-.083l-.041-.103h.124v.103zm-.29.145v.124h-.124v-.124h.124zm-5.193.166l-.041-.124.124-.021.02.124-.103.02zm.31.269l.021-.125.145-.144.083-.104h.124l-.083.145-.041.103-.083.063-.166.062zm5.09-.104l.083.02-.021.084-.103-.021.041-.083zm-5.421.435v-.104l.124.042-.02.082-.104-.02zm.414.248v.083h-.124l.021-.124.103.04zm4.407.083v-.062l.083.041-.021.02h-.062zm.703-.021l-.062.02v-.061h.042l.02.041zm-.31.228v.103l-.124-.02v-.125l.124.042zm-5.11.103h-.104v-.062h.104v.062zm.207.31v-.103h.103v.103h-.103zm4.469.042v-.145h.124l-.021.145h-.103zm.413.29h-.103l.021-.104h.103l-.021.103zm-5.11-.083l.021.041-.062.041-.042-.062.083-.02zm-.269.29l-.021.103h-.082v-.104h.103zm4.986 0h.104v.103h-.104v-.104zm-4.386.04l-.062.104-.062-.02.021-.083h.103zm-.248.29l.041.104.104.145-.062.062-.166-.104-.124-.124.062-.124.145.041zm5.027.145l-.144-.02.02-.145.124.02v.145zm-5.379.27h-.124v-.125h.124v.124zm4.966.04v-.144h.144l-.02.124-.124.02zm-.311.145l.124.021-.02.103h-.124l.02-.124zm-4.489.166l.041-.145.124.041-.021.104h-.144zm4.944.29l-.165.04-.021-.185.186-.021v.165zm-5.234 0l-.021-.083.083-.02.041.102h-.103zm4.759.372l.02-.186.145.02v.166h-.165zm.62-.062v-.124h.124v.124h-.124zm-5.565-.104l.02.104-.144.041-.021-.145h.145zm.476.104v-.104h.103v.104h-.103zm-.228.352h-.083l-.02-.125h.144l-.041.125zm5.152-.125l-.021.145h-.165l.041-.145h.145zm-.745.125l-.021-.104h.083v.083l-.062.02zm.31.29V70.7l.145-.021v.165h-.145zm.642 0l-.021-.104.124-.02v.123h-.103zm-1.283-.021v-.083h.103l-.041.103-.062-.02zm-4.407.041l-.062-.02.021-.084.082.021-.041.083zm.703-.103v.103h-.124v-.103h.124zm-.31.393h-.124v-.124h.124v.124zm.497-.021l-.042-.041v-.042h.062l-.02.083zm4.572-.083v.124h-.124l-.021-.124h.145zm-4.986.517l.062-.082.041-.145.124.02v.104l-.124.062-.103.041-.042.125-.02.082-.124.021.02-.124.083-.062.083-.042zm5.255-.082l-.041-.062h.103l-.021.062h-.041zm-4.738.29l-.103.02v-.103h.103v.082zm5.11-.021l-.02.041-.042-.02.021-.021h.041zm-5.503.227h.124v.145l-.145-.02.021-.125zm5.152 0l-.021.083h-.062v-.083h.083zm2.441.104l.042-.104.082.042v.062h-.124zm-1.862.103l-.062.062-.124.166-.186.02.082-.124.062-.082.042-.063.083-.062.124-.062-.021.145zm.476.145l-.062.103h-.166l.062-.124.104-.062.062.083zm-5.131.041l-.083.042-.021-.083.083-.062.021.103zm-.662.042h-.104v-.083l.083-.02.021.103zm1.262.02l-.104.042-.02-.124.082-.021.042.103zm.621 0l-.063-.02.021-.062.062.02-.02.062zm4.427.042l-.041-.062.021-.062.082.02-.062.104zm-.889.227h-.083v-.082h.083v.082zm-5.132.021h-.041l-.041-.041.082-.021v.062zm.642.041l-.062-.062.041-.041.083.041-.062.063zm.621-.082l.041.041-.062.041-.021-.062.042-.02z" fill="#fff"/><path d="M133.28 68.796l-.31.165-.207.352-.165.207-.104.27-.103.227-.186.227-.125.249-.124.227-.641.807-.207.166-.248.144-.186.124-.414.042-.269-.103-.145-.249-.124-.227-.042-.29-.02-.269.02-.269-.041-.29.021-.248.041-.29v-.248l-.021-.29.083-.538.062-.268-.02-.29.041-.27.062-.268v-.228l.103-.538-.02-.29.041-.268.083-.249-.041-.393-.083-.393-.29-.124-.29-.02-.248.061-.248.31-.083.394-.021.269-.062.248-.062.29.021.248-.062.27-.021.289-.041.248-.042.27-.144.268-.435.145h-.393l-.372.02-.704-.02-.269.02h-.269l-.538.063-.269-.145-.124-.27.062-.268v-.538l.021-.31.041-.249.042-.29-.042-.268.062-.29v-.393l-.165-.29-.269-.103h-.269l-.207.103-.248.27-.145.372-.021.269.021.29-.062.248-.062 1.117-.062.227v.27l.02.289v.29l-.041.269-.021.248-.02.269-.042.29v.248l-.02.269.02.29v.579l-.041.517-.042.248.083.931.207.27.269.103.31-.042.228-.041.166-.331.082-.393v-.248l-.041-.29.041-.58-.02-.558.02-.248.042-.31v-.249l.165-.31.228-.145.289-.041.849-.042.393.02.538-.02h.414l.248-.02.269.144.103.29v.848l.021.29v.269l.083.248.02.31.063.249.165.393.248.33.187.146.248.145.227.082.269.021.414-.041.435-.083.372-.145.31-.186.207-.145.393-.393.331-.414.145-.207.124-.227.187-.249.227-.475.124-.207.269-.497.124-.228.104-.372-.021-.331-.207-.166-.207-.103zm-3.765-2.814l.062.083.062.062.062.124-.124-.041-.083-.083-.083-.062v-.145l.104.062zm-5.214.662h-.083l-.02-.103h.103v.103zm5.131.02l-.083.022v-.104h.062l.021.083zm-4.821.208v.062h-.062v-.083l.062.02zm5.049.083v-.104l.103.041v.083l-.103-.02zm-.518-.042l-.041.062-.062-.041.021-.062.082.041zm-4.841.373l-.103-.021v-.103h.103v.124zm4.841.351h-.103l-.021-.103.124.02v.083zm.331.29h-.144v-.166l.124.021.02.145zm-.641-.083v.104h-.083v-.104h.083zm-4.283.29l.104-.02v.144h-.104v-.124zm4.593.124l-.144-.02v-.125l.124.02.02.125zm.187.145l.144.02-.02.145-.124-.02v-.145zm-4.428.145l-.041-.042.02-.062.062.042-.041.062zm-.683.02v-.103l.124.02-.02.104-.104-.02zm4.511-.02l-.042-.083h.104l.02.062-.082.02zm-4.097.207v.186l-.145-.02.021-.187.124.02zm4.49.103h-.062l-.021-.083.083-.02v.103zm-1.924 0l-.042.02v-.061l.042-.021v.062zm1.324.083l-.145-.02v-.125l.145.02v.125zm-4.552-.062l-.083-.021.021-.041h.062v.062zm1.241-.021v-.041l.042.02-.021.042-.021-.021zm-.269.434l-.186-.04.062-.187.166.041-.042.187zm.621-.103h-.062v-.103h.083l-.021.103zm3.207.042l-.124-.021.041-.124.124.041-.041.104zm-4.469-.042h-.062l.021-.083.041.021v.062zm5.152 0h-.083l-.021-.083h.104v.083zm-1.945-.041l-.021.062-.062-.02v-.063l.083.02zm-2.876.393h-.083l.021-.124.103.041-.041.083zm4.345 0l.021-.124h.144l-.02.144-.145-.02zm-5.028 0h-.082v-.104h.082v.104zm4.78.29v-.125l.103-.02.021.124-.124.02zm-4.531.02v-.124l.124-.02v.144h-.124zm5.193 0l-.062-.041v-.062h.082l-.02.103zm-5.359.352l-.145-.02.021-.125.124.02v.125zm4.986 0l-.02-.104.103-.02v.103l-.083.02zm-4.717.227l-.103.021v-.103h.103v.082zm4.531-.04v.103h-.103v-.125l.103.021zm.29.289l.02.103h-.103l-.021-.103h.104zm-4.531.041v.083h-.042l-.02-.083h.062zm-.331.393l-.021-.041.062-.041.021.082h-.062zm5.151 0h-.082v-.082h.082v.082zm-.579.02l-.103-.02.041-.062h.083l-.021.083zm-4.841.29l-.062-.02v-.062l.062.02v.063zm5.338.311v-.083l.103.02-.021.104-.082-.041zm-.187.228l-.02.124h-.124l.02-.104.124-.02zm.952.33l.021.104h-.104v-.103h.083zm-.6.125h-.103l-.021-.083h.124v.083zm1.862 0l-.082-.021.02-.041.083.02-.021.042zm-1.572.31l-.124.02-.021-.123.124-.021.021.124zm-5.793-.103v.103h-.083v-.103h.083zm6.434.124l-.083-.02v-.084h.083v.104zm.538-.02v-.084h.083v.083h-.083zm10.78.558l.373.02.393-.041.227-.062.269-.103.228-.145.186-.166.228-.124.227-.186.124-.186.187-.228.372-.434.269-.435.248-.455.166-.248.124-.228.083-.269.144-.228.063-.372.02-.372-.248-.166-.248-.041-.269.207-.249.31-.206.517-.125.228-.165.227-.104.249-.165.248-.186.207-.166.248-.165.186-.207.166-.186.186-.187.165-.227.125-.373.041-.351-.041-.228-.124-.207-.207-.145-.187-.145-.248-.165-.207-.041-.248-.125-.248-.082-.249-.124-.227-.166-.517-.124-.497-.021-.29-.103-.227v-.29l-.021-.372.166-.29.144-.186.393-.414.414-.31.228-.207.227-.145.207-.103.911-.332.331-.144.103-.29-.062-.29-.145-.207-.413-.082-.601.082-.351.124-.269.125-.228.124-.248.124-.662.476-.352.372-.207.186-.165.228-.187.186-.703.89-.103.228-.207.227-.145.207-.124.228-.104.124-.103-.166v-.269l.02-.269v-.496l.021-.27-.021-.289v-.269l.042-.269.021-.248.041-.27.021-.268.041-.27v-.247l.041-.29.145-.248.311-.166.248-.02.227-.063.269-.04.29-.042.228-.104.248-.103.248-.083.249-.103.248-.145.476-.393.372-.373.455-.496.124-.228.187-.248.124-.27.103-.247.042-.228.041-.31.021-.27.041-.248-.021-.269-.082-.248-.228-.476-.124-.248-.145-.186-.248-.187-.249-.103-.248-.083-.393-.062h-.393l-.848.187-.228.103-.186.145-.269.145-.186.186-.207.186-.58.745-.434.869-.103.269-.125.248-.062.269-.041.248-.104.27-.082.289-.083.248-.186.228-.29.083-.372-.063-.29.104-.166.248v.228l.249.269.352.207.268.186.104.33-.021.228v.27l-.103.827-.042.248.021.807-.021.27-.062.537.021.249v.558l.062.27-.062.268.083.517-.042.27v.248l.042.269v.29l-.021.247.021.29.062.27-.042.247.021.249.062.641.207.269.248.083.249-.042.289-.124.104-.33.062-.435-.021-.29.042-.248-.042-.455.042-.538.165-.393.145-.27.145-.206.165-.228.104-.248.145-.27.206-.082.145.145.062.31.124.248.104.538.145.29.083.27.124.227.103.29.228.496.165.228.186.206.125.207.186.166.186.186.207.124.269.104.248.062zm-.6-14.235l-.124.02v-.123l.103-.021.021.124zm-.786 0l.021-.104.082.021-.02.083h-.083zm1.345-.02h-.062v-.063h.062v.062zm-1.966.537l.083-.145.062-.082.124-.187.124.083-.062.124-.186.187-.145.02zm1.717-.227l-.144.02v-.144h.124l.02.124zm-.662 0h-.103v-.083h.124l-.021.083zm1.283.041h-.124v-.124l.124.02v.104zm-.952.248l-.124-.02v-.124h.145l-.021.144zm.663.062l-.166.021-.021-.166h.166l.021.145zm.496.042l-.041.082-.145.145-.062.042-.124.02.041-.144.124-.166.083-.062.145-.041-.021.124zm-2.979.082h.145l.041.166h-.145l-.041-.166zm-.538 3.725l-.269-.124-.083-.228.124-.29.062-.29.062-.248.083-.248.166-.269.082-.269.145-.248.166-.372.269-.332.165-.248.166-.165.207-.166.227-.103.435-.021.372.124.186.145.124.227.063.249v.248l-.083.248-.021.29-.145.228-.103.248-.145.186-.228.331-.289.31-.249.145-.227.166-.455.248-.29.083-.228.103-.289.042zm.434-3.393v.124l-.124.02v-.124l.124-.02zm2.938.351l-.02.124-.166.042v-.186l.083-.063.124-.144.186-.124.083.144-.186.083-.104.124zm-.414-.186l-.062-.062.042-.041.062.02-.042.083zm-2.834.207l-.021.103h-.103l.02-.124.104.021zm3.476.414l-.145-.02.021-.166.145.04-.021.146zm-3.807.02l-.124-.04.02-.125.104.041v.125zm3.393.29l-.021-.124.145-.041v.144l-.124.021zm-3.745.02l-.124-.04.021-.125.124.042-.021.124zm.228.27l.041-.062.062.02-.02.063-.083-.021zm3.641.352h-.124v-.125h.124v.124zm-3.869.04l-.103-.02.02-.103.083.02v.104zm-.269.166v.125l-.124.02-.021-.145h.145zm3.89.166l-.145-.02-.021-.125.145-.02.083.123.021.083-.083-.041zm-3.704.248l-.02-.124.124.02.021.125-.125-.02zm3.269 0l-.248.29-.103-.104.145-.144.041-.063.103-.103.062.041v.083zm-3.786 0l-.041.042v-.063l.041-.02v.041zm.31.331l-.103-.02v-.104l.103.02v.104zm2.835.186v.063l-.062-.021v-.041h.062zm-3.145.042v.165h-.165v-.165h.165zm.6.103l-.062-.02.021-.063.062.021-.021.062zm-.848.331l-.186.042-.021-.166.186-.041.021.165zm.579 0l-.145.104-.082.082-.104.166-.062.02-.124-.123.145-.145.062-.083.062-.062.124-.103.103.04.021.104zm2.048.062l.125.083-.021.124-.124-.02v-.166l-.062-.083.082.062zm-1.696.228l-.166.041-.041-.186.186-.02.021.165zm-1.304.02l-.165.021-.021-.165.166-.02.02.165zm1.863-.082l.02.124-.124-.02v-.125l.104.02zm-2.194.476l-.082-.02-.062-.146.124-.083.082.166.104.145.103.02v.145l-.144-.02-.021-.104-.104-.103zm.476-.062v-.187l.166.021v.186l-.166-.02zm.766-.042l-.124.021-.021-.124.103-.02.042.123zm.662-.062v.124l-.124-.02.02-.145.104.041zm.621.083h-.083l.021-.103.082.02-.02.083zm-1.573.373l-.165-.042.02-.186.166.041-.021.187zm.559-.063v-.082h.083v.082h-.083zm-.869.187l.02.186-.186.02v-.186l.166-.02zm.579.165l-.041.083-.207.207-.166.041-.041-.062.083-.145.082-.062.063-.083.082-.062.145-.062v.145zm-.579.476v.145h-.145v-.145h.145zm.558.062v.104h-.062v-.083l.062-.02zm-.227.248v.145l-.166.02v-.144l.166-.02zm4.427.145h-.103v-.103h.124l-.021.103zm-4.924.145l.104.02.062.125-.145.02-.041-.062-.207-.248.02-.083.083.042.042.145.082.041zm4.635.124l-.124.02.02-.123h.125l-.021.103zm-.662.083l-.083-.02v-.084l.103.021-.02.083zm-3.497.165l-.021.125h-.103v-.104l.124-.02zm3.766.083l-.062-.02.02-.063.042.021v.062zm-.455.186l.103.021.021.083-.083.02-.062-.103-.104-.062-.082-.041v-.104l.103.02.021.084.083.082zm-.538.187v-.145l.144.041-.02.124-.124-.02zm-3.228-.021v-.083h.083v.083h-.083zm-.29.33l.021-.123.124.02v.125l-.145-.021zm.724 0h-.103v-.103l.103.021v.083zm2.566-.082v.083h-.083v-.083h.083zm-2.876.435l-.145-.021.021-.145.145.02-.021.146zm2.421-.166l.124.02.021.125-.145-.02v-.125zm-2.09.31l.021.125-.124.02-.021-.144h.124zm-.703.104l-.042-.041.042-.042.041.042-.041.041zm3.207-.041l-.062.02-.021-.062h.062l.021.042zm-.621.082l-.083-.041.042-.062.062.02-.021.083zm-2.214.166l.021.165-.145.021-.021-.145.145-.041zm2.586.165l-.124.021v-.124h.104l.02.103zm-.744.021v-.103h.103v.103h-.103zm-2.132.269h-.124l.021-.145.124.02-.021.125zm.518-.145l.145.02-.042.125-.103-.02v-.125zm2.027.186h-.165v-.165l.145.02.02.145zm-.682.021l-.083-.041.02-.083h.083l-.02.124zm-1.635.228l-.083.02v-.103l.062-.02.021.103zm2.421.041l.041-.103.145-.042v.145l-.083.062-.145.124-.041.104-.062.062h-.083l-.083-.062-.144-.124-.166-.145.124-.145.145.124.062.062.104.02.082.021.104-.103zm-2.483.62l-.021-.123.166-.166.083-.062.165-.083.062.042v.145l-.062.082-.083.062-.062.042-.083.062h-.165zm-.186-.289h-.104v-.124h.124l-.02.124zm1.903 0l-.103-.02.02-.104h.104l-.021.124zm.973.207v.124h-.145v-.124h.145zm-2.256.434l-.144-.02.02-.124h.145l-.021.144zm-.62-.04l-.104.02v-.104h.083l.021.083zm3.145-.084l.02.062h-.082v-.062h.062zm-2.194.414h-.124v-.145l.145.021-.021.124zm1.925-.103v.082h-.083v-.082h.083zm-2.566.165l-.145-.02v-.125l.166.021-.021.124zm.207.27l-.021-.166h.145l.021.145-.145.02zm-.538-.104v.083h-.083v-.083h.083zm.31.414l-.124-.042.042-.124.124.041-.042.125zm.6.02l-.062-.041.021-.083.083.02-.042.104zm-.227.29l-.104.02-.02-.103.103-.041.021.124zm-.331.352l-.124.02-.042-.144h.145l.021.124zm.289.186l.021.145h-.124l-.021-.124.124-.021zm2.856.372h-.042v-.062l.062.02-.02.042zm-3.311.083v-.124h.124v.103l-.124.021zm3.911-.02h-.042l.021-.042h.041l-.02.041zm-3.456.289l-.082-.02.041-.104.083.041-.042.083zm3.125-.083l.103-.02v.103h-.083l-.02-.083zm.682.559l.166-.124.124-.021-.062.103-.062.063-.083.062-.103.041.02-.124zm.683.228l-.124.02-.021-.145h.145v.124zm.538-.063l-.021-.062h.104v.062h-.083zm-.29.228l-.02.062-.062-.02.02-.063.062.021z" fill="#fff"/><path d="M154 68.817l-.29.207-.352.579-.145.228-.103.248-.145.248-.165.248-.393.435-.207.207-.269.227-.538.186-.435.042-.165-.166.02-.269.083-.248.124-.228.145-.227.414-1.076.062-.248.083-.248.041-.31.042-.228.02-.27-.02-.703-.063-.434-.103-.228-.041-.269-.145-.269-.145-.207-.145-.227-.165-.187-.476-.29-.186-.144-.249-.103-.31-.063-.228-.062-.31-.02-.372.062-.704.165-.683.393-.413.31-.228.208-.207.207-.124.227-.228.207-.124.103-.124-.144-.041-.29-.021-.766-.124-.372-.207-.31-.29-.042-.269.042-.227.082-.145.331.041.931.083.29-.021.27.042.268-.021.27v.268l.062.29v.29l.021.248.02.269-.041.269.021.31-.021.517.041.559v.29l-.062.248.021.29-.041.558-.062.248v.31l-.042.27.021.29-.021.248-.062.248.021.29-.104.269-.02.268-.021.31.021.25-.042.289-.062.269.021.248-.041.269-.083.269-.083.828-.083.227.021.27-.021.227v.393l.083.269.228.062.227.041.249-.083.289-.269.124-.62.104-.828.02-.248.063-.29.124-.538-.021-.29.041-.268v-.249l.042-.248.041-.269.042-.29v-.29l.165-.206.31-.103.249.061.248.021.31-.02h.228l.393-.063.683-.144.476-.207.227-.145.249-.166.351-.103.29.02.269.083.31.021.269.041h.393l.414-.082.228-.062.248-.104.497-.31.186-.145.186-.207.165-.207.373-.414.083-.227.186-.249.145-.227.124-.248.145-.228.124-.248.103-.393v-.352l-.186-.186-.31-.062zm-4.862-3.538l.103-.083.062.062-.021.103h-.124l-.083.083-.041.104-.124.124-.103-.062.082-.166.104-.062.145-.103zm.517.33l-.166.021-.041-.144h.165l.042.124zm.621.042h-.145v-.145h.145v.145zm-1.925 0h-.103l.021-.124.082.02v.104zm1.593.145l.021.124h-.145v-.145l.124.02zm-1.262.041l-.041.062-.041-.02v-.062l.082.02zm-3.124 0l-.021.083-.082.02v-.103h.103zm2.442.083h-.083l.021-.083H148v.083zm1.241.02l-.083-.04.042-.063.062.021-.021.083zm1.283-.103l.02.124-.103-.02-.021-.083.104-.02zm-5.318.393l-.082-.02.02-.062h.083l-.021.082zm4.945-.082l.083.02-.021.062h-.062v-.082zm.6.124l.021-.124.124.02-.02.124-.125-.02zm-4.345 5.896l-.206-.186-.104-.31v-.27l.042-.268-.021-.269.021-.29.02-.248-.02-.58.02-.392.104-.394.103-.29.248-.516.145-.228.166-.228.145-.227.186-.248.186-.187.228-.186.165-.207.269-.124.207-.124.269-.103.269-.083.352-.042.372.062.228.083.413.373.104.227.062.228.062.393.041.414v.269l-.041.269-.041.29-.124.496-.021.269-.145.248-.083.27-.248.227-.31.165-.249.166-.186.207-.124.29-.062.351-.186.29-.518.269-.165.082-.248.062-.311.042-.248.041-.538-.041-.228-.042zm1.242-5.958l.041-.042.062.021-.041.041-.062-.02zm3.103.683l-.041-.104.103-.103.083-.063.062-.082.083-.104.103.042-.062.145-.062.062-.041.082-.145.145-.083-.02zm-5.193-.31l-.124-.022v-.103h.124v.124zm4.924-.022v-.103h.104v.103h-.104zm-4.634.228l-.021.124-.145-.041.042-.124.124.041zm-.6-.02v.103h-.104l-.02-.104h.124zm1.862.103h-.104l.021-.104h.104l-.021.104zm4.097.186v.145l-.145.02-.021-.165h.166zm-5.628.165l-.145.021-.021-.165h.166v.145zm.6-.124v.124h-.145v-.144l.145.02zm4.697.249l.082.062.062.145.104.062.083.062-.021.186-.083.062-.248.248-.104-.103.125-.145.062-.083.041-.082-.041-.083-.062-.083-.125-.103.021-.125.104-.02zm-5.007.186h-.166l-.021-.145.166-.02.021.165zm.475.02v-.186h.166l.021.166-.187.02zm-1.117-.04h-.124v-.125h.103l.021.124zm6.228 0l-.083-.021v-.104l.104.02-.021.104zm-5.918.144l.021.145-.165.041-.021-.165.165-.021zm.642.186l-.166-.02v-.145l.166.02v.145zm-.29.104l.021.145-.041.062-.166.02.021-.165.165-.062zm-.641.186h-.124v-.124h.103l.021.124zm1.2-.02l-.083.02-.041-.104.103-.02.021.103zm5.048.02l-.103-.02v-.104l.124.02-.021.104zm-5.917.372h-.186v-.165l.062-.062.145.02-.021.207zm5.628-.02l-.187-.021v-.166l.166.021.021.166zm-5.049 0l-.145-.021.042-.145.145.02-.042.146zm-.289.372l-.083-.02-.104-.083.021-.145.166-.02.082.123v.062l.021.104.083.02.02.083-.082-.02-.021-.063-.103-.041zm-.6-.228v.125l-.125-.021.021-.103h.104zm5.586 0l.124.104.186.186-.103.124-.145-.124-.083-.062-.103-.145.124-.082zm.6.125h-.083v-.083h.083v.083zm-5.897.186l.021.103-.124.02v-.123h.103zm-.352.31l.021.104h-.103v-.083l.082-.02zm.642.124h-.083v-.103h.104l-.021.103zm5.028.021h-.125l.021-.124.124.041-.02.083zm-5.297.331l-.186.02v-.186l.186-.02v.186zm4.986-.041h-.145l.021-.145.124.02v.125zm.579 0h-.082v-.083h.082v.083zm-5.317.351h-.145l.042-.145.124.021-.021.124zm-.683-.062v-.062l.083.02v.042h-.083zm5.711.042l-.104.02-.02-.103.103-.02.021.103zm-5.421.33l-.021-.185h.187v.186h-.166zm5.131-.02h-.145l.021-.145h.145l-.021.145zm-5.421.269l.021-.062h.083l-.021.062h-.083zm.58.041v-.103h.124v.103h-.124zm4.531-.082l-.021.124-.103-.042.02-.103.104.02zm-.724.082l.02-.062h.062v.062h-.082zm.269.31v-.144l.144.041-.02.145-.124-.041zm.62-.02v-.124l.145.02-.021.125-.124-.021zm-4.862-.041v.103h-.124l.021-.103h.103zm4.511.351l-.021-.124h.165l.021.124h-.165zm-4.842-.082v.041l-.062.02-.021-.04.083-.021zm.6 0l.021.103-.145.041-.021-.124.145-.02zm3.662.103v-.103l.145.02v.104l-.145-.02zm-4.096.352v-.166l.062-.041h.145l-.021.186-.186.02zm4.572.02h-.165v-.186l.165.021v.165zm.579-.04l-.124-.022.042-.124h.124l-.042.145zm-1.241.02h-.103v-.124l.124.02-.021.104zm.91.248h-.124v-.124l.145.02-.021.104zm-4.365-.103v.124l-.145.02v-.124l.145-.02zm3.021.02l.124-.02.02.103-.144.02v-.103zm.744.104l-.124-.02.042-.104.124.02-.042.104zm-4.386.02l-.124-.02.021-.104h.124l-.021.124zm5.607-.02h-.103v-.083h.103v.083zm-5.71.455h.103l.104-.124.082-.186h.166l.021.144-.145.145-.124.062-.021.124-.186.042-.083-.166.083-.041zm4.179-.103l-.145.04v-.185l.166-.042-.021.187zm.621-.021l-.124.041-.021-.165.124-.021.021.145zm.6 0l-.104-.02.021-.125.103.02-.02.125zm-4.366-.042h-.083v-.082h.083v.082zm2.504-.082l.02.124-.124.02-.02-.124.124-.02zm2.503.103l-.083.02v-.061l.062-.02.021.061zm-5.338.331h-.145l.021-.145h.124v.145zm.683.02h-.145v-.165l.145.021v.145zm1.096-.02l.021-.145.124.021-.02.124h-.125zm.745-.02l-.144.02v-.145h.144v.124zm.662-.125v.124h-.144v-.124h.144zm-1.613.476l-.125-.082-.062-.063-.062-.082-.082-.062-.083-.083.062-.062.103.041.166.124.062.062.062.083-.041.124zm-1.842 0l-.165-.02.02-.187.166.042-.021.165zm.642-.165l-.042.165-.165-.02.041-.166.166.02zm1.882-.021v.145l-.144.041v-.165l.144-.021zm-.993.414l-.145-.042-.082-.041-.062-.041-.166-.166.062-.103.124.062.083.062.062.062.166.124-.042.083zm1.552-.248l-.083-.021v-.104h.104l-.021.124zm-3.372.972l-.145.02L145 73.7v-.104l-.021-.083v-.207l.021-.124V73.1l.144-.125.145.104v.083l-.207.206v.083l.062.083.104.103.041.063-.02.103zm.579-.662h-.145l.021-.166.145.021-.021.145zm.641 0l-.165-.02.041-.146.145.021-.021.145zm1.138-.062v-.083h.083v.062l-.083.02zm-2.069.372h-.124v-.145l.124.021v.124zm-.041.642l-.124-.042.02-.124.124.02-.02.146zm-.393.103l.103.041v.166l-.145-.02-.041-.104-.083-.124-.083-.042v-.124l.104.02.021.084.124.103zm.413.476h-.062v-.062h.042l.02.062zm-.062.6l-.041.02-.103-.082-.083-.062-.083-.083-.021-.145.145.02.062.104.062.083.083.104-.021.04zm-.538.083l-.124-.021.021-.103.103.02v.104zm.29.269l-.145.02-.02-.124.124-.02.041.124zm-.227.269l.062.062.082.062.062.083.021.124-.062.041L145 76.1l-.083-.063-.104-.082.042-.083.145.02zm-.207.703v-.124h.144v.103l-.144.021zm.372.228l-.021.062-.062-.02.021-.063.062.02zm-.248.372l-.083-.02.041-.083.062.062-.02.041z" fill="#fff"/><path d="M156.127 73.327l.765-.083.29-.062.455-.207.207-.124.414-.33.227-.146.145-.207.207-.207.145-.227.145-.186.124-.104.145.145.186.766.124.207.145.207.29.248.31.186.228.062.393-.02.413-.083.559-.29.373-.228.165-.145.228-.227.144-.207.166-.186.165-.228.125-.227.144-.207.125-.228.144-.228.269-.496.104-.228.145-.227.082-.373-.041-.372-.207-.166-.269-.082-.227.207-.207.33-.187.27-.124.248-.103.227-.186.249-.104.248-.186.207-.165.248-.187.186-.31.435-.269.145-.186.103-.373.083-.351-.083-.207-.207-.062-.29-.062-.227-.042-.269-.02-.269.02-.29-.041-.29v-.392l.041-.373v-.29l-.02-.248.02-.29.083-.558.041-.786.042-.29.062-.558.02-.249-.02-.269-.021-.393-.103-.29-.393-.103-.394.02-.165.208-.228.227-.227-.02-.269-.125-.228-.062-.269-.103-.496-.062-.373-.02-.414.02-.269.041-.269.104-.268.082-.207.104-.58.372-.496.476-.186.228-.145.207-.145.248-.414.724-.103.248-.062.27-.083.227-.062.269-.042.269-.02.29-.083.248-.021.248.042.29-.021.29v.289l.062.248.062.27.103.248.021.29.124.227.104.248.372.455.186.187.207.144.228.124.248.125.269.082.248.042.311.041zm3.889-7.82l-.082-.021.02-.104.083.02-.021.104zm-3.103-.084v.125l-.124-.021v-.124l.124.02zm.6.145h-.124l.021-.103h.103v.103zm.6-.041l-.062.02v-.082h.062v.062zm-.952.331l-.103.02-.021-.144.124-.02v.144zm2.607-.02h-.145l.021-.125h.124v.124zm.58.04l-.125-.02.021-.145.124.02-.02.146zm-1.883-.02l-.104.02-.02-.144h.124v.124zm.538 0l.02-.124h.124l-.041.145-.103-.021zm-2.421-.104v.104h-.104v-.104h.104zm1.241 0v.104h-.103v-.104h.103zm-1.034.373l-.021-.124h.124v.103l-.103.021zm2.648-.103v.165l-.145-.02v-.166l.145.02zm-.703 0h.082v.062h-.082v-.063zm1.262.165h-.145l.021-.145h.144l-.02.145zm-3.766-.103l.021.082h-.083l-.021-.082h.083zm.786 5.876l-.372.082-.393.062-.29-.041-.207-.103-.227-.166-.207-.186-.124-.228-.104-.269-.083-.248-.041-.269-.021-.538-.041-.269.103-.517.042-.27.165-.496.104-.248.352-.765.186-.187.145-.248.207-.166.206-.186.187-.145.269-.144.289-.104.393-.062.621.02.517.146.249.082.227.228.104.352-.042.248v.538l-.062.29-.021.248-.331 1.572-.103.27-.103.248-.435.682-.207.207-.165.207-.228.124-.248.124-.311.124zm-1.22-5.504l-.021-.124h.145v.124h-.124zm3.972.02h-.145l.021-.144h.145l-.021.145zm.58 0l-.125-.02.021-.124h.124l-.02.145zm-5.132-.02v-.083h.083v.083h-.083zm4.883.352l-.145.02-.041-.165.166-.02.02.165zm-5.172-.021v-.083l.062.021v.083l-.062-.021zm5.4.207l-.021.062-.062-.041.021-.042.062.02zm-5.028.083h-.103l-.021-.083h.103l.021.083zm4.345.02v-.062l.062-.02v.062l-.062.02zm.435.207l.062.083.041.083.124.124-.103.083-.228-.145-.103-.145.062-.124.145.041zm-5.132.083h-.041v-.041h.041v.041zm4.656.373l.02-.166h.145l-.021.145-.144.02zm-4.945-.021l-.104.02v-.124l.104-.02v.124zm5.421.269l-.125.02v-.103l.104-.02.021.103zm-5.752-.062l.02.082-.103.021v-.103h.083zm.62.103h-.082l.02-.103h.062v.103zm4.759.331l-.124-.02.041-.104.124.02-.041.104zm-5.048-.083l.02.042-.082.02-.021-.04.083-.022zm4.676.393l.02-.103h.083v.103h-.103zm.62 0v-.103l.104.02-.021.084h-.083zm-5.338.145v-.145l.125-.02v.145l-.125.02zm5.152.042v.124l-.124.02-.021-.124.145-.02zm-.31.476h-.124v-.145l.124.02v.125zm.6-.145l.021.124-.145.02v-.144h.124zm-.311.31l-.02.145-.145-.041v-.125l.165.021zm-5.089.104l-.083-.021.021-.062h.082l-.02.083zm4.614.372l.02-.186h.166l-.021.165-.165.021zm.807-.165l-.021.165h-.166l.021-.165h.166zm-.29.455l-.186.02-.021-.186h.186l.021.166zm-5.731-.021l-.124.02-.021-.123.124-.021.021.124zm5.069.02h-.124v-.144l.124.02v.125zm.331.311l-.166-.02v-.145l.145.02.021.145zm.6-.103l-.042.124h-.124l.042-.145.124.02zm-1.2.103l.124.083.083.041.082.062-.041.145-.145-.02-.062-.063-.062-.103-.041-.124.062-.021zm.91.331h-.186v-.186h.186v.186zm-5.586-.103l-.104.041v-.083l.083-.02.021.062zm5.255.413l-.145.021v-.145l.145-.02v.144zm.455-.02l.021-.124.124.02-.021.124-.124-.02zm3.311-.021h-.083v-.083h.103l-.02.083zm-4.552.083v-.104l.103-.02v.103l-.103.02zm4.221.227l-.124-.02v-.145l.124.041v.124zm-3.104.124l-.062-.02-.124-.124.103-.104.104.104.041.082.104.104.124.062v.124h-.124l-.062-.165-.104-.063zm-1.303-.103l-.062-.041.02-.042.042.021v.062zm1.758 0l.021-.062.083.02-.021.042h-.083zm-5.482.269v-.124l.124-.02v.123l-.124.021zm-.373.062h-.103v-.124h.103v.124zm8.173 0l-.083-.041.021-.062.082.02-.02.083zm-4.469 0v-.083l.062.021-.042.062h-.02zm-2.773.352h-.165v-.166h.165v.166zm4.676.227l.062-.144.083-.063.062-.082.124-.104.083.062-.062.145-.042.062-.103.083-.062.041h-.145zm2.297-.393v.104l-.083.02v-.082l.083-.042zm-7.614.187h-.124l-.021-.145.124-.021.021.166zm3.165-.021l-.103-.02v-.104h.103v.124zm3.125.02h-.063v-.082l.083.02-.02.063zm-.394.29l-.02-.165.165-.021.021.165-.166.021zm-5.607-.062h-.082v-.083h.082v.083zm6.394.083l-.145-.02v-.146l.145.021v.145zm-4.428-.124l-.021.124-.103-.041v-.104l.124.02zm-1.262.124l-.166.02v-.144h.145l.021.124zm.579-.124v.062l-.041.02-.021-.082h.062zm1.262.062h-.082l.02-.062h.083l-.021.062zm-1.634.31l-.021-.124h.124v.124h-.103zm1.345.02l-.125-.02v-.124l.125.02v.125zm3.807-.02l-.145.041.02-.165h.145l-.02.124zm-5.711-.083v.083l-.083-.02.021-.083.062.02zm5.049.083h-.083l-.021-.103h.104v.103zm-3.787.041h-.145v-.103l.145-.02v.124z" fill="#fff"/><path d="M171.861 68.817l-.29.186-.476.765-.124.249-.186.269-.145.207-.414.413-.207.145-.393.393-.227.145-.207.124-.269.104-.207.124-.331.083-.228.062-.538.082-.393.021-.579-.062-.372-.145-.228-.124-.207-.145-.207-.186-.145-.248-.145-.186-.103-.249-.145-.29-.02-.227-.083-.29-.021-.703.021-.373.083-.29.062-.516.103-.29.083-.228.124-.248.103-.227.166-.249.414-.372.186-.166.248-.124.248-.083.228-.062.414.062.393.083.248.145.104.207.082.269.042.269.062.393.083.29.248.082.269-.041.248-.041.228-.29.083-.393.02-.249-.041-.31-.042-.269-.082-.248-.104-.228-.289-.413-.207-.166-.269-.124-.269-.104-.269-.082-.352-.062-.972.062-.187.082-.248.083-.29.104-.206.103-.269.145-.166.165-.227.145-.187.186-.186.207-.124.207-.166.228-.144.248-.249.476-.207.476v.248l-.124.517-.02.249-.062.269v.827l.02.27.083.31.041.248.021.29.124.248.104.227.124.27.124.206.145.228.186.248.186.186.186.145.269.166.476.207.538.165.269.062.642.02.703-.02.269-.041.228-.062.289-.083.269-.062.517-.228.228-.124.207-.145.248-.124.166-.165.455-.373.186-.165.166-.249.207-.206.165-.207.372-.538.187-.373.144-.227.083-.249.145-.351-.021-.373-.248-.186-.248-.041zm-4.407-3.642v.083h-.062l-.021-.062.083-.02zm-.517.559l-.042.124-.145.02.021-.124.124-.062.042-.124-.062-.186-.021-.145.124.104.166.124.041.124-.166.062-.082.083zm1.158-.393l-.041-.02v-.063l.062.02-.021.063zm-.289.124v.124l-.125.02-.02-.144h.145zm-1.262.124l-.104-.02.021-.083h.103l-.02.103zm1.882-.02h-.082l-.021-.063h.103v.062zm-2.462-.042l-.021.103-.082-.02.02-.083h.083zm2.793.434l-.165-.04.021-.187.165.02-.021.207zm-2.524-.165v.124l-.124-.02v-.104h.124zm1.242 0v.103h-.104v-.103h.104zm.682 0l-.02.165-.145-.02.041-.145h.124zm.311.414l-.124.02v-.144l.124-.021v.145zm-3.187.02l-.082-.041v-.083h.082v.124zm.538-.041v-.083h.062v.083h-.062zm3.249.02l-.104.021v-.103l.104-.02v.103zm-3.456.29h-.144l.02-.144h.145l-.021.144zm3.042.063v-.125l.083-.02.02.124-.103.02zm-3.683 0l-.103-.021v-.083l.103.02v.084zm4.076.227l-.103.041-.042-.124.145-.041v.124zm-3.848.041l.02-.103.042.062-.062.041zm-.662.063l.041-.125h.103l-.062.104-.082.02zm.413.227h-.124l-.02-.103.124-.021.02.124zm-.6.683h-.124v-.145h.145l-.021.145zm.538-.041v-.083h.083v.082h-.083zm-.558.682l-.145-.02.041-.125.124.021-.02.124zm.351.331h-.124v-.145l.124.021v.124zm-.62.414l.02.145-.144.041-.021-.144.145-.042zm.6.104l-.021.124-.103-.021v-.124l.124.02zm-.083 1.137v.166l-.186-.02v-.166l.186.02zm-.579.414l-.062-.062.041-.062.062.041-.041.083zm.951.083l-.103-.02.021-.104.082.02v.104zm-.248.228v.144l-.145-.02-.02-.124h.165zm.166.434l-.042-.124h.124l.021.103-.103.021zm.434.31h-.145l-.02-.144h.144l.021.145zm-.641 0l-.104-.02.021-.083h.124l-.041.103zm.931.27h-.124l-.021-.125h.124l.021.124zm-.6.082l-.124-.02.041-.145.103.062-.02.103zm4.365-.062h-.062v-.062h.062v.062zm-4.096.29l-.104-.02.021-.104h.103l-.02.124zm.682.041h-.144v-.165h.124l.02.165zm3.145-.103l-.02.103-.083-.02v-.104l.103.02zm-2.565.103h-.083v-.062l.062-.02.021.082zm1.841.02l-.02-.103h.103v.083l-.083.02zm-2.11.29h-.124v-.124h.124v.124zm.621.021h-.145l.02-.145.145.021-.02.124zm.641-.124v.145l-.124-.02-.021-.146.145.021zm.579.103l-.062-.02.021-.062h.062l-.021.082zm-.91.207v.083l-.104.02.021-.103h.083zm.621.021l-.021.083-.062-.02v-.063h.083z" fill="#fff"/><path d="M180.878 69.086l-.166-.187-.248-.082-.331.186-.269.352-.083.248-.103.248-.166.228-.248.455-.186.207-.145.248-.207.166-.228.165-.331.166-.434.041-.166-.124.021-.27.104-.227.124-.269.041-.269.269-.806.021-.27.062-.413.041-.414.021-.29-.042-.269-.02-.29.02-.248-.227-.806-.104-.27-.144-.227-.145-.207-.186-.207-.228-.186-.228-.124-.475-.248-.559-.083-.414-.042-.559.042-.413.062-.249.082-.269.063-.269.103-.434.269-.248.186-.373.373-.124.227-.165.228-.187.227-.082.249-.187.227-.082.27-.124.289-.042.228-.083.29-.041.248-.021.29-.103.827-.042.269.063.269-.042.29.083.248.062.29.021.268.145.27.082.227.166.227.145.249.186.207.227.144.187.207.248.124.538.228.248.02.373.042.434-.02.248-.021.228-.062.269-.083.331-.145.6-.352.31-.103h.331l.311.062.227.041.786-.02.249-.062.207-.125.269-.124.207-.145.206-.186.187-.165.248-.29.207-.31.269-.497.186-.207.083-.248.103-.228.186-.248.083-.352-.041-.351zm-5.855-3.87l.062.021-.042.062-.041-.041.021-.041zm1.241.042l.062.02-.021.063-.041-.02v-.063zm-2.255.248h.082v.083h-.082v-.083zm.662.02l.083-.02v.083h-.083v-.062zm1.903 0h.062v.063h-.062v-.062zm-1.179.042v.062l-.103.021-.021-.083h.124zm.538 0l.103.021v.083l-.124-.02.021-.084zm-2.131.249l.021.144h-.145l-.021-.124.145-.02zm.517.02l.104.021-.021.124h-.104l.021-.145zm1.945 0h.083v.104l-.083.02v-.124zm.579.021h.124v.103l-.124.021v-.124zm-.145.248l-.02.124h-.062v-.103l.082-.02zm-3.331.042l.104-.021-.021.124-.083-.02v-.083zm3.787.02l.165-.02v.186h-.165v-.166zm-.435 3.559l-.083.248-.248.228-.31.207-.186.207-.125.227-.165.621-.166.31-.351.186-.414.125-.766-.021-.269-.124-.207-.145-.186-.207-.124-.186-.165-.27-.083-.289-.104-.538.042-.269-.021-.248.041-.414.166-.683.021-.268.207-.497.041-.228.29-.496.124-.207.393-.372.227-.145.249-.145.331-.124.517-.042.455.062.228.083.227.124.207.166.166.207.103.269.062.248.062.559.062.29-.02.268-.042.393-.103.621-.083.269zm.662-2.98l-.02.063-.083.145-.104-.042v-.145l.104-.082.124-.145.021-.083h.165l-.041.166-.083.02-.083.104zm-4.324-.248l.083-.02.02.103-.103.02V66.5zm3.931.104h-.083v-.104h.124l-.041.104zm-3.31-.041l.062.02-.021.042h-.062l.021-.063zm-.207.227l-.021.062h-.062l.021-.062h.062zm-.6.02l.02.125-.124.041-.02-.145.124-.02zm.248.27l.021.062-.083.02-.021-.062.083-.02zm-.683.041h.083l.021.062h-.104v-.062zm5.193.02l-.02.084h-.104v-.104l.124.02zm-4.882.311l.041-.02.021.082-.062.02v-.082zm5.048.02l.103-.02.021.124-.124.021v-.124zm-.641.022h.082l-.02.082-.083-.02.021-.063zm-4.635.269l.021.124-.104.02-.02-.124.103-.02zm5.007.124l.021-.104.082.02v.104l-.103-.02zm.269.124h.083l.041.145h-.124v-.145zm-5.71.041h.144l-.02.145h-.124v-.145zm.662 0l.124.02-.021.146h-.103v-.166zm4.448.166v-.124l.083-.021.02.124-.103.02zm-4.655.145l.02.124-.103.02-.041-.124.124-.02zm5.069.062l-.021.082-.083-.02v-.104l.104.042zm-5.524.268h.103v.083h-.103v-.083zm.475.394h-.144l.041-.124h.124l-.021.124zm5.028-.042l.021.124h-.145v-.124h.124zm-5.814.02h.104v.063l-.104.02v-.082zm.476.394h-.165l.02-.165.145.02v.145zm5.028-.041h-.062v-.083l.082.02-.02.063zm.6.041l-.042-.02.021-.063.021.021v.062zm-.249.331l-.165-.041.041-.166.145.042-.021.165zm-5.731-.165v.103h-.103v-.103h.103zm.538.186l-.02-.104.082-.02.021.124h-.083zm-.351.124l.082-.02.021.103-.103.02v-.103zm5.213.083l-.02.124-.083-.02v-.125l.103.02zm-5.4.372h-.103v-.124h.124l-.021.124zm.497-.083l.083-.02.02.124-.103.02v-.124zm4.593 0v.104l-.124.02.021-.124h.103zm.6.083h-.083v-.083h.083v.083zm-5.545.393v-.186l.186-.041.021.186-.207.041zm5.255-.041h-.165l.062-.145.145.02-.042.125zm-.744.041v-.145h.124v.145h-.124zm-4.056.228h-.103l.021-.104.103.021-.021.083zm-.662 0h-.062l.021-.062.062.02-.021.042zm5.193.062h-.165l.021-.124h.144v.124zm-.765 0l-.021-.062.083-.02.021.061-.083.02zm-4.2.29v-.125l.103-.02.021.124-.124.02zm4.593-.104l-.021.145h-.124v-.166l.145.021zm-3.89.02l.042.021-.021.063-.021-.021v-.062zm3.187.125l-.062-.104.124-.02.041.124h-.103zm1.22-.02l.021-.104.103.02-.02.104-.104-.02zm-.31.31l-.021-.187h.166l.02.166-.165.02zm-4.366 0l-.062-.021.021-.083.041.02v.084zm3.745 0v-.083h.083v.103l-.083-.02zm1.345.062l-.124-.021.021-.124.124.02-.021.125zm-1.593.269l-.124-.063.041-.144.145.041-.062.166zm-3.269-.166l.062-.02.041.082-.082.02-.021-.082zm3.828.186l-.021-.186.145-.02.02.186-.144.02zm-4.366-.124h-.062v-.062h.062v.062zm5.152.166l-.166-.021-.02-.207.186.02v.208zm.558-.021h-.103l.021-.165.103.02-.021.145zm.683-.02l-.083-.021.021-.104.062.02v.104zm-5.421.268l-.124-.02.021-.125.124.021-.021.124zm-.662-.02h-.062v-.104l.062.02v.084zm3.766 0v-.104h.062l.021.062-.083.042zm.683.02l-.062-.041.02-.062.062.02-.02.083zm-1.987.021l-.02-.103h.124l.021.124-.125-.021zm.725-.041h-.062l-.021-.063h.083v.063zm-1.014.33l-.021.042-.021-.062v-.083l.104-.062.041.124-.103.042zm-1.324 0l-.021-.124h.165l.021.125h-.165zm2.048-.04h-.103v-.084h.103v.083zm-2.545.02l-.083-.02v-.063h.083v.083zm1.2.041h-.083l.021-.062h.083l-.021.062zm-.227.31h-.125v-.123l.125.02v.104zm.6 0h-.104v-.103l.104-.02v.124z" fill="#fff"/><path d="M185.326 73.286l.372.02.393-.041.228-.062.269-.103.227-.145.186-.166.228-.124.228-.186.124-.186.186-.228.372-.434.269-.435.249-.455.165-.248.124-.228.083-.269.145-.228.062-.372.021-.372-.249-.166-.248-.041-.269.207-.248.31-.207.517-.124.228-.166.227-.103.249-.166.248-.186.207-.165.248-.166.186-.207.166-.186.186-.186.165-.228.125-.372.041-.352-.041-.228-.124-.207-.207-.144-.187-.145-.248-.166-.207-.041-.248-.124-.248-.083-.249-.124-.227-.166-.517-.124-.497-.02-.29-.104-.227v-.29l-.021-.372.166-.29.145-.186.393-.414.414-.31.227-.207.228-.145.207-.103.91-.332.331-.144.104-.29-.063-.29-.144-.207-.414-.082-.6.082-.352.124-.269.125-.227.124-.249.124-.662.476-.352.372-.206.186-.166.228-.186.186-.704.89-.103.228-.207.227-.145.207-.124.228-.103.124-.104-.166v-.269l.021-.269v-.496l.021-.27-.021-.289v-.269l.041-.269.021-.248.041-.27.021-.268.041-.27v-.247l.042-.29.145-.248.31-.166.248-.02.228-.063.269-.04.289-.042.228-.104.248-.103.249-.083.248-.103.248-.145.476-.393.372-.373.456-.496.124-.228.186-.248.124-.27.104-.247.041-.228.041-.31.021-.27.041-.248-.02-.269-.083-.248-.228-.476-.124-.248-.145-.186-.248-.187-.248-.103-.248-.083-.394-.062h-.393l-.848.187-.228.103-.186.145-.269.145-.186.186-.207.186-.579.745-.435.869-.103.269-.124.248-.062.269-.042.248-.103.27-.083.289-.083.248-.186.228-.29.083-.372-.063-.29.104-.165.248v.228l.248.269.352.207.269.186.103.33-.02.228v.27l-.104.827-.041.248.02.807-.02.27-.062.537.02.249v.558l.062.27-.062.268.083.517-.041.27v.248l.041.269v.29l-.021.247.021.29.062.27-.041.247.021.249.062.641.206.269.249.083.248-.042.29-.124.103-.33.062-.435-.02-.29.041-.248-.041-.455.041-.538.165-.393.145-.27.145-.206.166-.228.103-.248.145-.27.207-.082.145.145.062.31.124.248.103.538.145.29.083.27.124.227.103.29.228.496.166.228.186.206.124.207.186.166.186.186.207.124.269.104.249.062zm-.601-14.235l-.124.02v-.123l.104-.021.02.124zm-.786 0l.021-.104.083.021-.021.083h-.083zm1.345-.02h-.062v-.063h.062v.062zm-1.965.537l.082-.145.062-.082.125-.187.124.083-.062.124-.187.187-.144.02zm1.717-.227l-.145.02v-.144h.124l.021.124zm-.662 0h-.104v-.083h.124l-.02.083zm1.283.041h-.125v-.124l.125.02v.104zm-.952.248l-.124-.02v-.124h.144l-.02.144zm.662.062l-.166.021-.02-.166h.165l.021.145zm.496.042l-.041.082-.145.145-.062.042-.124.02.041-.144.125-.166.082-.062.145-.041-.021.124zm-2.979.082h.145l.041.166h-.145l-.041-.166zm-.538 3.725l-.269-.124-.083-.228.125-.29.062-.29.062-.248.082-.248.166-.269.083-.269.145-.248.165-.372.269-.332.166-.248.165-.165.207-.166.228-.103.434-.021.372.124.187.145.124.227.062.249v.248l-.083.248-.021.29-.144.228-.104.248-.145.186-.227.331-.29.31-.248.145-.228.166-.455.248-.29.083-.227.103-.29.042zm.435-3.393v.124l-.125.02v-.124l.125-.02zm2.938.351l-.021.124-.166.042v-.186l.083-.063.124-.144.187-.124.082.144-.186.083-.103.124zm-.414-.186l-.062-.062.041-.041.062.02-.041.083zm-2.835.207l-.02.103h-.104l.021-.124.103.021zm3.476.414l-.145-.02.021-.166.145.04-.021.146zm-3.807.02l-.124-.04.021-.125.103.041v.125zm3.393.29l-.02-.124.145-.041v.144l-.125.021zm-3.744.02l-.125-.04.021-.125.124.042-.02.124zm.227.27l.041-.062.063.02-.021.063-.083-.021zm3.642.352h-.125v-.125h.125v.124zm-3.869.04l-.104-.02.021-.103.083.02v.104zm-.269.166v.125l-.125.02-.02-.145h.145zm3.889.166l-.145-.02-.02-.125.145-.02.082.123.021.083-.083-.041zm-3.703.248l-.021-.124.124.02.021.125-.124-.02zm3.269 0l-.249.29-.103-.104.145-.144.041-.063.104-.103.062.041v.083zm-3.786 0l-.042.042v-.063l.042-.02v.041zm.31.331l-.104-.02v-.104l.104.02v.104zm2.834.186v.063l-.062-.021v-.041h.062zm-3.144.042v.165h-.166v-.165h.166zm.6.103l-.063-.02.021-.063.062.021-.02.062zm-.849.331l-.186.042-.021-.166.187-.041.02.165zm.58 0l-.145.104-.083.082-.103.166-.063.02-.124-.123.145-.145.062-.083.062-.062.124-.103.104.04.021.104zm2.048.062l.124.083-.021.124-.124-.02v-.166l-.062-.083.083.062zm-1.697.228l-.165.041-.042-.186.187-.02.02.165zm-1.303.02l-.166.021-.02-.165.165-.02.021.165zm1.862-.082l.021.124-.125-.02v-.125l.104.02zm-2.193.476l-.083-.02-.062-.146.124-.083.083.166.103.145.104.02v.145l-.145-.02-.021-.104-.103-.103zm.476-.062v-.187l.165.021v.186l-.165-.02zm.765-.042l-.124.021-.021-.124.104-.02.041.123zm.662-.062v.124l-.124-.02.021-.145.103.041zm.621.083h-.083l.021-.103.083.02-.021.083zm-1.572.373l-.166-.042.021-.186.165.041-.02.187zm.558-.063v-.082h.083v.082h-.083zm-.869.187l.021.186-.186.02v-.186l.165-.02zm.579.165l-.041.083-.207.207-.165.041-.042-.062.083-.145.083-.062.062-.083.083-.062.144-.062v.145zm-.579.476v.145h-.145v-.145h.145zm.559.062v.104h-.062v-.083l.062-.02zm-.228.248v.145l-.165.02v-.144l.165-.02zm4.428.145h-.104v-.103h.125l-.021.103zm-4.924.145l.103.02.062.125-.145.02-.041-.062-.207-.248.021-.083.082.042.042.145.083.041zm4.634.124l-.124.02.021-.123h.124l-.021.103zm-.662.083l-.083-.02v-.084l.104.021-.021.083zm-3.496.165l-.021.125h-.104v-.104l.125-.02zm3.765.083l-.062-.02.021-.063.041.021v.062zm-.455.186l.103.021.021.083-.083.02-.062-.103-.103-.062-.083-.041v-.104l.103.02.021.084.083.082zm-.538.187v-.145l.145.041-.021.124-.124-.02zm-3.228-.021v-.083h.083v.083h-.083zm-.289.33l.02-.123.124.02v.125l-.144-.021zm.724 0h-.104v-.103l.104.021v.083zm2.565-.082v.083h-.082v-.083h.082zm-2.876.435l-.144-.021.02-.145.145.02-.021.146zm2.421-.166l.124.02.021.125-.145-.02v-.125zm-2.089.31l.02.125-.124.02-.021-.144h.125zm-.704.104l-.041-.041.041-.042.041.042-.041.041zm3.207-.041l-.062.02-.021-.062h.062l.021.042zm-.621.082l-.082-.041.041-.062.062.02-.021.083zm-2.214.166l.021.165-.145.021-.02-.145.144-.041zm2.587.165l-.124.021v-.124h.103l.021.103zm-.745.021v-.103h.103v.103h-.103zm-2.131.269h-.124l.02-.145.124.02-.02.125zm.517-.145l.145.02-.041.125-.104-.02v-.125zm2.028.186h-.166v-.165l.145.02.021.145zm-.683.021l-.083-.041.021-.083h.083l-.021.124zm-1.635.228l-.082.02v-.103l.062-.02.02.103zm2.421.041l.042-.103.144-.042v.145l-.082.062-.145.124-.042.104-.062.062h-.082l-.083-.062-.145-.124-.166-.145.125-.145.144.124.062.062.104.02.083.021.103-.103zm-2.483.62l-.02-.123.165-.166.083-.062.165-.083.063.042v.145l-.063.082-.082.062-.062.042-.083.062h-.166zm-.186-.289h-.103v-.124h.124l-.021.124zm1.904 0l-.104-.02.021-.104h.103l-.02.124zm.972.207v.124h-.145v-.124h.145zm-2.255.434l-.145-.02.021-.124h.145l-.021.144zm-.621-.04l-.103.02v-.104h.082l.021.083zm3.145-.084l.021.062h-.083v-.062h.062zm-2.193.414h-.124v-.145l.145.021-.021.124zm1.924-.103v.082h-.083v-.082h.083zm-2.566.165l-.144-.02v-.125l.165.021-.021.124zm.207.27l-.02-.166h.145l.02.145-.145.02zm-.538-.104v.083h-.082v-.083h.082zm.311.414l-.124-.042.041-.124.124.041-.041.125zm.6.02l-.062-.041.02-.083.083.02-.041.104zm-.228.29l-.103.02-.021-.103.104-.041.02.124zm-.331.352l-.124.02-.041-.144h.144l.021.124zm.29.186l.021.145h-.125l-.02-.124.124-.021zm2.855.372h-.041v-.062l.062.02-.021.042zm-3.31.083v-.124h.124v.103l-.124.021zm3.91-.02h-.041l.02-.042h.042l-.021.041zm-3.455.289l-.083-.02.041-.104.083.041-.041.083zm3.124-.083l.103-.02v.103h-.082l-.021-.083zm.683.559l.165-.124.124-.021-.062.103-.062.063-.082.062-.104.041.021-.124zm.683.228l-.125.02-.02-.145h.145v.124zm.537-.063l-.02-.062h.103v.062h-.083zm-.289.228l-.021.062-.062-.02.021-.063.062.021zM66.626 41.479c0-3 .59-5.586 1.771-7.755 1.194-2.181 2.838-3.838 4.935-4.97 2.11-1.134 4.513-1.7 7.213-1.7 1 0 1.97.048 2.91.145.94.096 2.067.229 3.38.397.53.073 1.037.139 1.519.2.482.047.855.072 1.12.072l-.488 9.074h-4.681l-1.41-6.2c-.483-.507-1.368-.76-2.658-.76-1.639 0-2.91.91-3.814 2.73-.904 1.808-1.356 4.537-1.356 8.188 0 2.326.2 4.345.597 6.056.398 1.7.988 3.019 1.772 3.959.795.928 1.765 1.392 2.91 1.392.855 0 1.5-.09 1.934-.272a3.39 3.39 0 001.12-.795l1.772-4.157 4.23.361-.597 6.399c-.433.048-.85.114-1.247.199-.385.084-.874.205-1.464.361a29.13 29.13 0 01-2.91.633c-.892.157-2 .235-3.326.235-2.94 0-5.399-.56-7.375-1.681-1.965-1.133-3.435-2.73-4.41-4.79-.965-2.061-1.447-4.501-1.447-7.321zm48.95 10.213l3.525.416v2.747h-14.822v-2.747l3.922-.434-.018-20.842h-6.308v2.314c0 4.085-.193 7.845-.579 11.28-.373 3.434-.982 6.007-1.826 7.718-.988 1.988-2.476 2.982-4.464 2.982-1.266 0-2.32-.084-3.164-.253l-.47-3.796a34.957 34.957 0 002.947.127c.518 0 .952-.109 1.301-.325.35-.23.669-.67.958-1.32.627-1.398 1.12-3.44 1.482-6.128.374-2.7.56-6.501.56-11.406v-1.193l-4.753-.56v-2.929h25.089v2.929l-3.38.56v20.86zM120.24 41.1c0-2.857.512-5.345 1.536-7.466 1.037-2.133 2.519-3.778 4.447-4.935 1.94-1.157 4.23-1.735 6.869-1.735 4.411 0 7.616 1.175 9.617 3.525 2.012 2.337 3.018 5.7 3.018 10.086 0 2.868-.524 5.41-1.572 7.628-1.037 2.218-2.525 3.947-4.465 5.188-1.94 1.241-4.224 1.868-6.851 1.88-4.374.012-7.568-1.223-9.58-3.706-2.013-2.494-3.019-5.983-3.019-10.466zm8.225-.037c0 4.073.379 7.008 1.138 8.803.772 1.784 1.886 2.675 3.344 2.675 1.459 0 2.579-1.024 3.363-3.072.783-2.05 1.175-5.008 1.175-8.876 0-2.735-.181-4.905-.543-6.507-.349-1.603-.849-2.736-1.5-3.399-.651-.662-1.464-.994-2.44-.994-1.483 0-2.609.94-3.381 2.82-.771 1.88-1.156 4.73-1.156 8.55zm21.908 10.629V30.796l-2.513-.524v-2.929h12.943v2.929l-2.947.524v8.333h8.731v-8.315l-2.711-.542v-2.929h12.834v2.929l-2.639.524v20.896l2.639.416v2.747h-12.816v-2.747l2.693-.434v-9.002h-8.731v9.02l2.947.416v2.747h-12.979v-2.747l2.549-.416z" fill="#fff"/></svg>