<svg width="200" height="88" fill="none" xmlns="http://www.w3.org/2000/svg"><path fill-rule="evenodd" clip-rule="evenodd" d="M27.886 6.355c1.074.432 2.96 1.536 6.773.06.261-.883-2.448-1.695-3.642-1.575a5.85 5.85 0 00-2.81 1.274l-.321.241zm-6.191 4.355v-.2.2zm0-.692V8.543l-.1-.512c0 .662.05 1.335.07 2.007l.03-.02zm3.793 58.632l.08-1.576c-2.549-1.344-9.974 5.329-13.808 12.282-3.833 6.954.853-13.677 13.216-15.272l.522-2.428C6.262 65.378 11.8 80.37 3.01 83.35a7.023 7.023 0 01-3.01 0 17.29 17.29 0 01.733-3.863c.33-1.184.722-2.348 1.073-3.532l3.07-10.185 1.506-4.255c.642-1.806 1.505-3.512 2.187-5.318.258-.642.553-1.269.884-1.877.25-.471.511-.943.782-1.404.271-.462.422-.683.652-1.004a41.977 41.977 0 012.76-3.743l.923-1.003c.281-.301.552-.582.843-.863a27.484 27.484 0 003.422-4.154c.222.046.427.154.592.31.234.228.497.424.782.582l.462.282 2.8 1.625.13.09 1.385.733.16.07 4.335 1.816a9.25 9.25 0 002.007.442c1.004.13 2.007.21 3.01.24 1.315 0 3.864 0 5.018-.661 1.545-1.004 1.927-3.101 1.646-4.677a14.26 14.26 0 00-.713-2.478 8.448 8.448 0 00-.712-1.525l-1.606-.402h-.2c-.382 0-.402.301-.332.552l.06.251c.08.291.161.582.231.873.472 1.957 1.295 3.01-.421 4.154-3.663 2.338-11.971-1.214-15.052-3.923-3.582-2.6 0-.552-.29-5.168 0-.873-.131-1.736-.131-2.609a8.21 8.21 0 012.338-5.94l.752-.793c.07-.093.15-.178.241-.251l1.194-.923a1.91 1.91 0 01.321-.16c2.007-1.054 4.205-1.616 6.121-2.77 3.523-2.117 4.496-7.205 3.683-10.968l-.09-.381h-.703c-3.722-1.004-8.218-.632-9.553.542 0 2.006-.12 4.706-.37 5.017-.342.722-3.242.722-3.663.612-.422-.11-.904-.632-.924-1.134.06.07.12.1.161.09-.321-.27-.572-.25-1.194-.24-2.59.266-5.195.35-7.797.25 9.894-.752-3.01-1.073 7.024-1.374-2.217.451-7.144-1.064-.642-.833-.15 0-10.245-.602-.732-1.004-10.236.07-3.482-1.294 1.344-1.174-6.312-.25-12.995-1.655-.24-1.334-11.801-.462-6.874-1.505-.402-1.526-4.586.161-11.38-.642-1.505-1.003-3.432 0-9.543-.943-.412-1.756-3.472-.492-9.813-1.485.693-1.425-4.275-.371-8.63-1.244.883-1.003-12.493-1.004.08-1.766-2.248-1.606.351.05 4.365-.27 4.285-.17C19.778.303 25.257-.87 25.257.926c.27.29.431 2.378.702 4.214a8.69 8.69 0 013.352-2.228l.401-.17a8.57 8.57 0 012.67-.412 10.315 10.315 0 017.345 3.272c1.926.168 3.808.674 5.559 1.495a.552.552 0 010 1.003 35.36 35.36 0 01-2.559 1.164c.626.965 1.186 1.97 1.676 3.01.395.898.711 1.828.943 2.78.361 1.285.311 5.369.542 7.356.11.875.17 1.756.18 2.639v.37l1.636-.33.15-.512c.894-2.68 1.155-5.7 2.86-7.857 1.465 3.853 1.275 10.697-1.394 12.383l-1.696 2.288a23.71 23.71 0 00-2.86 9.332 85.298 85.298 0 00.391 14.39 82.28 82.28 0 002.439 13.335c.873 3.17 2.187 7.024 4.164 9.693.316.638.67 1.254 1.064 1.847.481.742 1.003 1.465 1.475 2.207.11.18.592 1.004.542 1.174-.311.512-1.847.632-2.358.663a29.098 29.098 0 01-4.677-.191 57.43 57.43 0 01-3.913-.582 20.689 20.689 0 01-2.67-.652 12.4 12.4 0 01-2.217-1.114c-.843-.492-1.655-1.004-2.518-1.455a14.24 14.24 0 00-7.185-1.716 16.97 16.97 0 00-5.429 1.294c-2.007.743-3.913 1.616-5.89 2.368-9.954 3.764 2.087-6.422 10.797-8.549l-.24-1.947c-6.533.683-9.383 4.014-13.537 6.804-2.499 1.676 6.893-10.055 10.486-9.643zM21.404 4.017c0-.722-.09-1.294-.14-1.635 0-.532-.111-1.104.24-1.004a6.432 6.432 0 002.579-.06c.28-.12.31.05.592.13.374 1.469.592 2.972.652 4.486-.12.18-.722.512-.843.692a28.69 28.69 0 00-.522-4.485 6.304 6.304 0 00-.913.09c-.602.09-.34 0-.682.07 0 0 0 .663.26 6.292 0 .512-.722 1.003-.702 1.435 0 0-.21-.743-.25-.743-.07-1.736-.06-3.01-.261-5.228l-.01-.04zm4.134 6.302v.19h-.703v3.322c0 .612.733.803.723.09V10.34l-.02-.02zm-3.01.23c.09 2.83.2 4.346.13 4.797 0 .18-.933.16-.933.06.06-1.103.05-2.749 0-4.836h.823l-.02-.02zm3.01 4.727c.09-.11 0-.642-.06-.532-.703.15-1.42.213-2.138.19-.411 0-.391.794-.15.764.692 0 2.007 0 2.348-.422zm15.744-7.094a1.325 1.325 0 001.194-.15 1.125 1.125 0 00-.15-1.004 1.344 1.344 0 00-1.205.12 1.093 1.093 0 00.161 1.074v-.04zm-7.024 18.714c-1.475-.793-3.693 1.686-3.512 2.348.26 1.003 2.428 2.9 3.582 2.298-.562-.963-.441-3.592-.11-4.646h.04z" fill="#fff"/><path fill-rule="evenodd" clip-rule="evenodd" d="M28.368 6.385a10.637 10.637 0 00-1.907 2.328 7.479 7.479 0 00-.602 1.917l-.07.311h-.321a1.667 1.667 0 01-.622-.15c-.13-.07-.211-.171-.322-.241a.642.642 0 00-.471 0 3.07 3.07 0 00-.582.27 3.315 3.315 0 01-.392.221.873.873 0 01-.551.08 2.58 2.58 0 01-1.004-.3.852.852 0 01-.512-.572.141.141 0 010-.09.523.523 0 01.181-.402c.32-.236.68-.41 1.064-.512.24 0 .14-.18.34-.33.201-.151.232-.141.352-.332a33.628 33.628 0 012.91-4.696l.13 1.254 1.927 1.214.452.03z" fill="#fff"/><path fill-rule="evenodd" clip-rule="evenodd" d="M25.959 5.141a26.797 26.797 0 00-2.519 4.074c-.131.24-.308.451-.522.622a1.515 1.515 0 01-1.003.19 1.556 1.556 0 00-.532 0 .5.5 0 000 .131c0 .11.241.251.321.301.276.142.575.23.883.261a.643.643 0 00.362-.05c.12-.06.25-.15.37-.22.21-.131.436-.232.673-.302a.904.904 0 01.773 0c.09.083.187.157.29.221.152.07.316.107.483.11a8.027 8.027 0 01.632-2.006 9.151 9.151 0 011.756-2.178l-1.967-1.154zM13.728 17.062l.14-.25s.07 0 .07-.111c0-.11 0-.08.08-.12 3.382 8.328.472 10.516-.742 9.693-1.214-.823-2.137-.903.452-9.212zm5.879-1.585l-.17-.16s-.07 0-.09-.061c-.02-.06-.061 0-.091-.07.14 1.535.431 5.418.602 6.642.421 3.01 2.147 2.339 2.428 1.054.281-1.284-2.458-6.07-2.679-7.405zm-1.254 2.368c1.787 3.873-2.007 4.877-2.147-.823l.05-.24.17-1.376a5.62 5.62 0 011.927 2.439zm-.29 9.673c-1.094.19-1.375-1.746-1.325-2.629l.321-2.358c3.261 3.392 2.198 4.345 1.003 4.987zm-3.232-11.71c1.084.25 1.224-.873 1.224-1.756l-.2-2.378c-.462 1.214-3.462 3.13-1.024 4.134zm3.051 20.52c2.74.763 2.498-2.197-.331-5.107-.311 1.646-.793 3.602.33 5.107zm2.88-4.916c-2.489 0-1.857-1.917-1.907-3.01 1.385-.483 3.773 1.424 1.907 3.01zm-4.134 7.455c-.08-.461-1.004-2.358-1.114-2.84-3.472 7.446 3.2 6.593 1.114 2.84z" fill="#fff"/><path d="M73.402 75.115c.172 1.224.794 1.31 1.052 1.31 1.138 0 .601-1.975.408-2.813l-.322-1.438c-.258-1.138-.322-1.224-.666-2.706-.193-.923-.322-1.588-.493-2.168l-.215-.73c-.086-.279-.258-.408-.558-.408-.58 0-.559.451-.88 1.288l-.43 1.138c-.15.408-.43 1.16-1.803 5.089-1.482-3.715-1.482-5.26-1.74-6.12l-.257-.88c-.193-.687-.408-.6-.601-.6-.559 0-.988-.28-1.417 1.33l-.365 1.396c-.365 1.374-.58 3.156-.945 6.312l-.086.752c-.107.88.3.966.515.966.365 0 .902-.194.924-.687l.021-.816c.065-2.512-.021-4.251.902-6.591.3 1.245.987 3.8 1.395 5.023l.322.967c.301.923.43 1.03.752 1.03.644 0 .537-.365 3.199-7.214.279.924.708 2.577.816 3.371l.472 3.2zm11.322-.494c.751-.257 1.675-.644 1.675-1.159 0-.258-.258-.472-.494-.472-.28 0-.859.322-1.117.536V69.19c0-1.46.043-3.907-2.812-3.907-1.954 0-4.981 1.18-4.981 1.975 0 .687.708.344 1.073.15 1.374-.751 2.577-1.009 3.307-1.009 1.567 0 1.91.88 1.91 1.954v1.91c-3.392-.815-7.17 1.31-7.17 3.994 0 1.782 1.953 2.19 2.92 2.19 1.502 0 2.855-.537 4.122-1.374-.365.687-.387 1.89.536 1.89 1.117 0 1.031-.902 1.031-1.697v-.644zm-1.546-.493c-1.267.73-3.027 1.159-3.95 1.159-1.203 0-1.525-.966-1.525-1.482 0-1.266 1.825-2.576 3.414-2.576 2.233 0 2.061 1.567 2.061 2.233v.665zm12.11-9.275c.064-.022.086-.172.086-.237 0-.086-.022-.193-.086-.193-.537 0-4.66.837-6.978 1.825l-1.01.43c-.493.214-.922.386-.922.987 0 .537.58.28.708.215l.795-.365.107 2.963c.107 3.242-.365 7.17 1.03 7.17.666 0 .623-1.073.623-3.048 0-1.589-.107-3.865-.515-7.472 1.717-.751 3.8-1.546 5.475-2.06l.687-.215z" fill="#fff"/><path d="M101.665 74.621c.752-.257 1.675-.644 1.675-1.159 0-.258-.258-.472-.494-.472-.279 0-.859.322-1.116.536V69.19c0-1.46.042-3.907-2.813-3.907-1.954 0-4.981 1.18-4.981 1.975 0 .687.708.344 1.073.15 1.374-.751 2.577-1.009 3.307-1.009 1.567 0 1.911.88 1.911 1.954v1.91c-3.393-.815-7.171 1.31-7.171 3.994 0 1.782 1.953 2.19 2.92 2.19 1.502 0 2.855-.537 4.122-1.374-.365.687-.387 1.89.537 1.89 1.116 0 1.03-.902 1.03-1.697v-.644zm-1.546-.493c-1.266.73-3.027 1.159-3.95 1.159-1.203 0-1.525-.966-1.525-1.482 0-1.266 1.825-2.576 3.414-2.576 2.233 0 2.061 1.567 2.061 2.233v.665z" fill="#fff"/><path d="M103.984 67.085c-.257.13-.708.344-.708.773 0 .58.794.451 1.138.215l.708-.472c.601-.408 1.396-.752 2.018-.752 1.289 0 1.31.945 1.31 1.288 0 .687-.558 1.396-1.911 2.684l-.88.838c-.215.214-.429.322-.429.665 0 .344.343.558.708.365l.816-.43c.537-.278 1.481-.579 2.126-.579 1.588 0 2.447 1.202 2.447 2.791 0 2.018-1.632 4.638-7.643 5.99l-1.439.322c-.128.022-.408.13-.408.215 0 .129.151.064.28.043l.708-.064c7.257-.666 10.112-4.273 10.112-7.215 0-3.821-3.478-3.67-5.711-2.64 1.246-.795 2.749-2.405 2.749-3.736 0-1.052-.73-1.632-1.933-1.632-1.417 0-1.954.365-3.07.88l-.988.451zm17.818 6.463c-.408-1.653-.386-3.435-.386-4.058v-1.846c0-.86-.086-1.482-.709-1.482-.837 0-.837.988-.816 1.868l.043 1.782c.043 1.632.193 5.174-2.039 5.174-2.019 0-1.933-2.576-1.933-3.757v-2.984c0-2.276-.171-2.233-.773-2.233-.193 0-.923-.043-.901 1.89l.021 2.747c.022 3.393.43 5.84 2.577 5.84 1.309 0 2.662-1.267 3.349-2.576.021 1.803.58 3.027 1.159 3.027 1.396 0 .773-1.89.666-2.319l-.258-1.073zm3.657-2.298c-.021-1.975 0-2.554.022-2.984.043-.622.086-1.03.086-1.739 0-.708-.344-.88-.559-.88-.773 0-.858 1.116-.858 2.018 0 .45-.022 1.074.021 3.993-.687.28-1.052.323-1.052 1.031 0 .129.043.365.322.365.129 0 .687-.129.988-.215.086 2.727.171 2.534.171 3.006v.623c0 .472.086.816.666.816.301 0 .859-.13.859-.816 0-1.331-.408-2.684-.515-4.037 2.877-1.631 3.091-1.953 4.487-2.555.257 1.095.129 1.525.15 2.105l.129 3.263c.043 1.202.687 1.46.945 1.46 1.159 0 .73-1.675.622-2.813l-.129-1.481c-.107-1.31-.322-1.696-.429-5.239-.043-1.417.129-1.288.129-1.717 0-.516-.344-.623-.623-.623-.687 0-.837.816-.751 3.972-1.095.837-1.718 1.052-2.77 1.546l-1.911.902zm20.267-3.95c-1.46 2.083-3.929 3.264-5.239 3.779-.15-2.899-.129-3.307-.193-4.101-.065-.794-.344-.73-.752-.73-.343 0-.601.086-.601 1.095v.129c0 .558.043 1.116.086 1.675.086 1.395.107 3.22.15 5.689.043 1.847 0 2.147.816 2.147.945 0 1.031-.644 1.031-1.116 0-.773-.322-2.942-.408-3.436 3.585-.837 5.904 1.76 6.248 3.822.064.344.085.601.558.601.751 0 .773-.58.773-.837 0-2.684-2.727-5.625-7.193-4.487 4.144-1.246 6.484-3.972 6.484-5.325 0-.558-.73-.365-1.095.15l-.665.945zm4.302 12.517c.086 2.49.15 3.5.15 4.423 0 .515-.064 1.052-.064 1.567 0 .666.301 1.288.794 1.288.58 0 1.546-.923 1.203-2.147l-.193-.687c-.43-1.545-.645-7.686-.666-9.94.88-1.997 3.07-5.132 4.53-6.312l.666-.537c1.073-.859 2.018-.215 2.018 1.46 0 1.589-.43 4.272-3.714 6.097l-1.31.73c-.236.13-.408.473-.408.73 0 .215.129.236.322.236 2.856 0 6.742-3.821 6.742-8.244 0-2.168-1.503-2.662-2.62-2.662-2.254 0-4.873 3.542-6.248 6.269-.064-3.478.151-4.273.151-5.926 0-.988-.193-1.202-.773-1.202-.945 0-1.052.623-.945 3.864l.365 10.993zm19.758-5.196c.752-.257 1.675-.644 1.675-1.159 0-.258-.258-.472-.494-.472-.279 0-.859.322-1.116.536V69.19c0-1.46.043-3.907-2.813-3.907-1.954 0-4.981 1.18-4.981 1.975 0 .687.709.344 1.074.15 1.374-.751 2.576-1.009 3.306-1.009 1.567 0 1.911.88 1.911 1.954v1.91c-3.392-.815-7.171 1.31-7.171 3.994 0 1.782 1.954 2.19 2.92 2.19 1.503 0 2.855-.537 4.122-1.374-.365.687-.387 1.89.537 1.89 1.116 0 1.03-.902 1.03-1.697v-.644zm-1.546-.493c-1.266.73-3.027 1.159-3.95 1.159-1.202 0-1.524-.966-1.524-1.482 0-1.266 1.825-2.576 3.413-2.576 2.233 0 2.061 1.567 2.061 2.233v.665zm11.766 1.073c.151-.129.344-.236.344-.45 0-.151-.064-.13-.193-.13-.279 0-.43.15-.752.322-.558.322-1.245.666-2.19.666-1.76 0-3.714-1.052-3.714-3.628 0-2.405 1.761-5.024 4.358-5.024.237 0 .473.021.688.15.128.086.236.193.386.193.193 0 .172-.15.172-.279 0-.494-.322-1.374-1.568-1.374-2.275 0-5.625 2.834-5.625 6.591 0 2.297 1.503 4.466 3.951 4.466 2.254 0 3.65-1.116 4.143-1.503zm5.334-8.609c1.846.236 2.727 2.168 2.727 4.057 0 2.77-1.353 4.53-2.834 4.53-1.138 0-3.178-1.137-3.178-3.907 0-1.331.344-2.405 1.074-3.392l.3-.408c.065-.065.086-.15.172-.215l.021-.021c0-.065-.343-.473-.429-.494-.043-.022-.107 0-.15 0-1.074.215-2.448 3.22-2.448 5.045 0 2.62 2.04 4.81 4.165 4.81 2.319 0 4.294-2.62 4.294-5.948 0-2.877-1.503-4.766-3.049-4.766-.772 0-1.867.558-1.18.644l.515.065zm11.964.708c-1.46 2.083-3.929 3.264-5.239 3.779-.15-2.899-.129-3.307-.193-4.101s-.344-.73-.751-.73c-.344 0-.602.086-.602 1.095v.129c0 .558.043 1.116.086 1.675.086 1.395.108 3.22.151 5.689.043 1.847 0 2.147.815 2.147.945 0 1.031-.644 1.031-1.116 0-.773-.322-2.942-.408-3.436 3.586-.837 5.904 1.76 6.248 3.822.064.344.086.601.558.601.752 0 .773-.58.773-.837 0-2.684-2.727-5.625-7.192-4.487 4.143-1.246 6.483-3.972 6.483-5.325 0-.558-.73-.365-1.095.15l-.665.945zM64.345 39.19c0-3.344.658-6.225 1.974-8.643 1.33-2.43 3.163-4.277 5.5-5.54 2.35-1.263 5.03-1.894 8.038-1.894 1.115 0 2.197.054 3.244.161 1.048.108 2.303.256 3.767.444.592.08 1.156.154 1.693.221.537.054.953.08 1.249.08l-.544 10.114h-5.218l-1.571-6.91c-.538-.564-1.525-.846-2.962-.846-1.827 0-3.244 1.014-4.25 3.042-1.008 2.015-1.512 5.057-1.512 9.126 0 2.593.222 4.842.665 6.75.443 1.893 1.101 3.364 1.974 4.412.887 1.034 1.968 1.55 3.244 1.55.954 0 1.672-.1 2.156-.301.483-.215.9-.51 1.249-.887l1.974-4.634 4.714.403-.665 7.132c-.483.054-.946.128-1.39.222-.43.094-.973.228-1.632.403a32.465 32.465 0 01-3.243.705c-.994.175-2.23.262-3.707.262-3.277 0-6.017-.625-8.22-1.874-2.19-1.262-3.828-3.042-4.916-5.339-1.074-2.296-1.611-5.016-1.611-8.159zm54.556 11.383l3.929.463V54.1h-16.52v-3.063l4.372-.483-.021-23.23h-7.031v2.58c0 4.553-.215 8.743-.644 12.571-.417 3.828-1.095 6.695-2.035 8.603-1.101 2.216-2.76 3.324-4.976 3.324-1.41 0-2.586-.094-3.526-.282l-.524-4.231c.121.013.497.04 1.129.08.644.04 1.363.06 2.155.06.578 0 1.061-.12 1.45-.362.39-.255.746-.745 1.068-1.47.699-1.558 1.25-3.835 1.652-6.83.417-3.009.625-7.246.625-12.712v-1.33l-5.299-.625v-3.263h27.964V26.7l-3.768.625v23.249zm5.198-11.806c0-3.183.571-5.957 1.713-8.32 1.155-2.378 2.807-4.211 4.956-5.5 2.162-1.29 4.714-1.934 7.655-1.934 4.916 0 8.489 1.309 10.718 3.928 2.243 2.606 3.365 6.353 3.365 11.242 0 3.196-.585 6.03-1.753 8.502-1.155 2.47-2.814 4.398-4.976 5.782-2.163 1.383-4.708 2.081-7.636 2.095-4.875.013-8.434-1.363-10.677-4.13-2.243-2.78-3.365-6.669-3.365-11.665zm9.167-.04c0 4.54.423 7.81 1.269 9.811.86 1.988 2.102 2.982 3.727 2.982s2.874-1.142 3.747-3.425c.873-2.283 1.31-5.58 1.31-9.892 0-3.049-.202-5.467-.604-7.253-.39-1.786-.947-3.049-1.673-3.787-.725-.739-1.631-1.108-2.719-1.108-1.652 0-2.908 1.047-3.768 3.143-.859 2.095-1.289 5.271-1.289 9.529zm24.417 11.846v-23.29l-2.8-.584v-3.263h14.425v3.263l-3.284.584v9.288h9.731v-9.267l-3.022-.605v-3.263h14.304v3.263l-2.942.584v23.29l2.942.463V54.1h-14.284v-3.063l3.002-.483V40.52h-9.731v10.053l3.284.463V54.1h-14.465v-3.063l2.84-.463z" fill="#fff"/></svg>