<svg width="55" height="71" fill="none" xmlns="http://www.w3.org/2000/svg"><path d="M27.5 70.305a87.207 87.207 0 01-.79-.78 131.8 131.8 0 01-3.005-3.108c-2.488-2.657-5.805-6.396-9.12-10.73-3.317-4.335-6.625-9.255-9.101-14.274-2.48-5.024-4.109-10.11-4.109-14.788a26.125 26.125 0 1152.25 0c0 4.678-1.629 9.764-4.108 14.788-2.477 5.019-5.785 9.94-9.102 14.275-3.315 4.333-6.632 8.072-9.12 10.729a131.8 131.8 0 01-3.004 3.108c-.333.332-.6.594-.791.78zm0-29.868a13.812 13.812 0 100-27.624 13.812 13.812 0 000 27.624z" fill="#F5DF4D" stroke="#000"/></svg>