<svg width="51" height="51" fill="none" xmlns="http://www.w3.org/2000/svg"><g clip-path="url(#clip0)" fill="#F5DF4D"><path d="M50.792 21.75l-8.536-11.088a1 1 0 00-1.329-.234l-5.511 3.505h-7.188a.99.99 0 00-.275.046l-5.573 1.605-5.783-1.582-5.619-3.574a1 1 0 00-1.315.216L.222 22.339a1 1 0 00.126 1.386l4.948 4.258 4.44 5.983a3.538 3.538 0 00.078 4.916c.599.599 1.36.937 2.143 1.016a3.51 3.51 0 00.994 3.04 3.511 3.511 0 002.5 1.034h.037l-.001.071c0 .944.367 1.831 1.035 2.5a3.513 3.513 0 003.05.991 3.516 3.516 0 001.017 2.152 3.521 3.521 0 002.499 1.033c.905 0 1.81-.344 2.499-1.033l.54-.54.227.182a3.52 3.52 0 002.458.993 3.52 3.52 0 002.498-1.034 3.524 3.524 0 001.034-2.554 3.527 3.527 0 003.587-3.586 3.514 3.514 0 002.554-1.034 3.524 3.524 0 001.033-2.555 3.525 3.525 0 002.555-1.033 3.54 3.54 0 00.464-4.424l3.242-6.789 4.873-4.194a1 1 0 00.14-1.368zm-40.134-9.155l4.04 2.57L5.91 25.872l-3.522-3.031 8.271-10.246zm.57 22.703l1.22-1.219a1.53 1.53 0 01.949-.443l.025-.001a1.525 1.525 0 011.225.475c.566.597.535 1.573-.067 2.176l-1.182 1.182a1.536 1.536 0 01-2.17 0 1.536 1.536 0 010-2.17zm3.138 6.224a1.52 1.52 0 01-.45-1.084c0-.41.16-.795.45-1.085l2.364-2.364a1.55 1.55 0 011.744-.301c.597.284.933.932.845 1.584a1.618 1.618 0 01-.457.924l-2.327 2.327c-.29.29-.675.449-1.085.449-.41 0-.794-.16-1.084-.45zm3.57 3.605a1.52 1.52 0 01-.45-1.084c0-.41.16-.795.45-1.085l2.364-2.364a1.551 1.551 0 011.855-.244c.541.316.825.934.732 1.55a1.621 1.621 0 01-.455.9l-2.326 2.328c-.29.29-.676.449-1.085.449-.41 0-.795-.16-1.085-.45zm4.067 3.144a1.536 1.536 0 010-2.169l1.22-1.22c.036-.036.075-.07.114-.104.002 0 .002-.001.003-.002.199-.161.432-.269.68-.316l.018-.002c.043-.008.086-.014.13-.018.017-.002.035-.002.053-.003.035-.002.07-.004.107-.004a1.524 1.524 0 011.193.597c.46.601.398 1.494-.173 2.066l-1.176 1.176a1.536 1.536 0 01-2.17 0zm18.655-11.16a1.535 1.535 0 01-2.169 0 .905.905 0 00-.068-.061l-6.43-6.498a1 1 0 00-1.422 1.407l6.5 6.567.002.003a1.536 1.536 0 01-1.085 2.619c-.41 0-.795-.16-1.084-.45l-4.349-4.393a1 1 0 10-1.421 1.407l4.282 4.326a.94.94 0 00.07.078 1.536 1.536 0 010 2.17 1.537 1.537 0 01-2.17 0l-2.373-2.399a1 1 0 00-1.422 1.407l2.307 2.33a.883.883 0 00.07.08 1.535 1.535 0 01-2.17 2.17c-.068-.07-.149-.123-.226-.182-.065-.05-.082-.084-.05-.164.033-.08.083-.153.116-.234.036-.09.066-.183.095-.277a3.605 3.605 0 00.13-1.538 3.519 3.519 0 00-1.494-2.434 3.51 3.51 0 00-1.488-.577c.258-1.136-.052-2.368-.856-3.218a3.508 3.508 0 00-2.625-1.105 3.53 3.53 0 00-.945-2.5 3.509 3.509 0 00-2.52-1.105 3.596 3.596 0 00-.853.09 3.508 3.508 0 00-1.169-2.143 3.506 3.506 0 00-2.26-.857 3.542 3.542 0 00-2.414.908L7.3 27.328l9.248-11.266 2.948.806-3.85 6.793a3.51 3.51 0 00-.33 2.684 3.51 3.51 0 001.819 2.216l.012.006a3.51 3.51 0 002.517.242 3.512 3.512 0 002.132-1.663l2.502-4.415 4.466.317 11.894 11.893a1.537 1.537 0 010 2.17zm.415-4.584L29.915 21.37a1.001 1.001 0 00-.636-.29l-5.469-.388a1.016 1.016 0 00-.94.504l-2.813 4.964c-.202.356-.53.613-.926.722a1.52 1.52 0 01-1.165-.144 1.524 1.524 0 01-.722-.926 1.522 1.522 0 01.144-1.165l3.754-6.626 1.521-.438.03-.01 5.679-1.64h6.86l8.565 10.888-2.724 5.706zm4.034-7.276l-7.92-10.074 4.042-2.57 7.401 9.613-3.523 3.032z"/><path d="M30.897 12.056a.997.997 0 00.708-.293l6.83-6.831a1 1 0 10-1.413-1.414l-6.831 6.83a1 1 0 00.706 1.708zm-11.502-.293a.997.997 0 001.415 0 1 1 0 000-1.414l-6.831-6.831a1 1 0 10-1.414 1.414l6.83 6.831zm6.105.293a1 1 0 001-1V5.403a1 1 0 00-2 0v5.653a1 1 0 001 1zm-.923-10.278c.16.385.555.638.972.616.413-.022.775-.3.903-.693a1.008 1.008 0 00-.343-1.099 1.01 1.01 0 00-1.164-.038c-.394.26-.547.78-.368 1.214z"/></g><defs><clipPath id="clip0"><path fill="#fff" d="M0 0h51v51H0z"/></clipPath></defs></svg>