<svg width="51" height="51" fill="none" xmlns="http://www.w3.org/2000/svg"><g clip-path="url(#clip0)" fill="#F5DF4D"><path d="M4.951 40.351a5.703 5.703 0 005.697 5.698 5.704 5.704 0 005.698-5.698 5.704 5.704 0 00-5.698-5.697 5.704 5.704 0 00-5.697 5.697zm9.9 0a4.208 4.208 0 01-4.203 4.203 4.208 4.208 0 01-4.203-4.203 4.208 4.208 0 014.203-4.203 4.208 4.208 0 014.204 4.203z"/><path d="M9.901 37.877v.197a2.401 2.401 0 00-1.65 2.278 2.4 2.4 0 002.397 2.397 2.4 2.4 0 002.398-2.398 2.401 2.401 0 00-1.65-2.277v-.197a.747.747 0 10-1.495 0zm.747 3.378a.904.904 0 010-1.807.904.904 0 010 1.807zm7.349-10.805V4.048a.747.747 0 00-.747-.747H4.048a.747.747 0 00-.747.747v26.404c0 .412.334.747.747.747H17.25a.747.747 0 00.747-.747zM4.795 13.596h11.708v7.307H4.795v-7.307zm11.708-8.8V12.1H4.795V4.794h11.708zM4.795 29.702v-7.306h11.708v7.306H4.795z"/><path d="M46.953 29.703H36.355l7.494-7.493a4.02 4.02 0 001.185-2.862 4.02 4.02 0 00-1.185-2.862l-9.335-9.334a4.052 4.052 0 00-5.724 0l-7.493 7.493v-4.632a.747.747 0 00-1.495 0v30.339c0 5.037-4.09 9.137-9.123 9.154h-.037c-5.045-.004-9.148-4.109-9.148-9.154V4.047a2.556 2.556 0 012.554-2.553h13.2a2.556 2.556 0 012.554 2.553v2.904a.747.747 0 101.495 0V4.047A4.052 4.052 0 0017.249 0H4.048A4.052 4.052 0 000 4.047v36.305C0 46.223 4.777 51 10.648 51h36.305A4.052 4.052 0 0051 46.952V33.751a4.052 4.052 0 00-4.047-4.048zM29.847 8.208a2.556 2.556 0 013.61 0l9.335 9.335c.482.482.748 1.123.748 1.805 0 .682-.266 1.323-.748 1.805L20.969 42.977c.214-.84.328-1.72.328-2.625v-2.298l.492.492a.744.744 0 001.056 0l6.223-6.223 6.223-6.223h.001l6.223-6.224a.747.747 0 000-1.056L32.18 9.485a.747.747 0 00-1.057 0l-9.827 9.827v-2.554l8.55-8.55zm16.358 26.29v11.708H38.9V34.498h7.306zm-8.8 11.708h-7.307V35.96l1.463-1.463h5.843v11.708zm-16.108 0v-1.444l7.306-7.306v8.75h-7.306zm13.467-21.691l-8.279-8.278 5.167-5.167 8.278 8.278-5.166 5.167zm-9.336-7.222l8.279 8.279-5.167 5.166-7.243-7.244v-2.069l4.131-4.132zm2.056 14.502l-5.167 5.166-1.02-1.02V25.607l6.187 6.188zm22.022 15.157a2.556 2.556 0 01-2.553 2.553h-30.87a10.72 10.72 0 002.027-1.564.744.744 0 00.067-.06l1.625-1.624v.695c0 .413.335.747.747.747h26.404a.747.747 0 00.747-.747V33.751a.747.747 0 00-.747-.747H33.055l1.806-1.807h12.092a2.556 2.556 0 012.553 2.554v13.201z"/></g><defs><clipPath id="clip0"><path fill="#fff" d="M0 0h51v51H0z"/></clipPath></defs></svg>