<svg width="51" height="51" fill="none" xmlns="http://www.w3.org/2000/svg"><g clip-path="url(#clip0)" fill="#F5DF4D"><path d="M50.274 13.392l-.002-.001-3.292-.47a.846.846 0 01-.388-1.515l2.66-1.995a.847.847 0 00.17-1.185l-3.047-4.062a.846.846 0 00-1.185-.17L42.53 5.99a.846.846 0 01-1.348-.796l.47-3.292a.846.846 0 00-.717-.958h-.001L35.91.226a.846.846 0 00-.957.718l-.471 3.292a.846.846 0 01-1.515.388l-1.994-2.66a.846.846 0 00-1.185-.17l-2.543 1.909a16.374 16.374 0 00-3.461 0A16.079 16.079 0 009.607 18.12c-.023.24-.032.478-.044.715H9.31a.846.846 0 00-.828.677l-.585 2.781-2.342-1.615a.846.846 0 00-1.08.098l-2.538 2.539a.846.846 0 00-.098 1.078l1.608 2.338-2.782.585a.846.846 0 00-.665.828v3.385c0 .4.28.746.672.829l2.782.584-1.608 2.339a.846.846 0 00.098 1.078l2.539 2.538a.846.846 0 001.079.099L7.9 37.383l.584 2.782c.08.393.427.676.828.677h3.385c.4 0 .746-.28.829-.672l.584-2.782 2.338 1.608c.337.232.79.19 1.079-.098l1.314-1.318v2.412a3.374 3.374 0 001.692 2.914v4.702a3.385 3.385 0 003.385 3.385h3.385a3.385 3.385 0 003.385-3.385v-4.702a3.374 3.374 0 001.693-2.914v-3.35c.023-1.41.76-2.71 1.957-3.454a16.232 16.232 0 001.992-1.524l-1.129-1.26c-.558.5-1.154.956-1.783 1.363a5.829 5.829 0 00-2.73 4.875v3.35c0 .934-.758 1.692-1.692 1.692h-6.77a1.692 1.692 0 01-1.693-1.692v-3.42a5.694 5.694 0 00-2.684-4.776c-6.707-4.215-8.728-13.069-4.514-19.776A14.343 14.343 0 0125.43 5.308a.915.915 0 00-.033.092.847.847 0 00.161.627l1.995 2.66a.83.83 0 01.05.94.841.841 0 01-.845.407l-3.292-.47a.846.846 0 00-.958.717l-.719 5.026a.846.846 0 00.718.958l3.293.47a.846.846 0 01.388 1.516l-2.66 1.994a.846.846 0 00-.169 1.185l3.046 4.062a.847.847 0 001.185.17l2.66-1.995a.846.846 0 011.346.796l-.47 3.292a.846.846 0 00.717.958l5.027.718a.846.846 0 00.958-.718l.47-3.292a.846.846 0 011.515-.389l1.995 2.66c.28.374.81.45 1.185.17l4.062-3.047c.374-.28.45-.81.169-1.185l-1.995-2.66a.832.832 0 01-.05-.939.822.822 0 01.846-.406l3.292.47a.846.846 0 00.958-.718l.717-5.027a.846.846 0 00-.717-.958zM22.226 43.376h6.77v1.693h-6.77v-1.693zm0 3.386h6.77v.846c0 .934-.758 1.692-1.693 1.692h-3.385a1.692 1.692 0 01-1.692-1.692v-.846zm-6.737-14.594c.462.378.945.73 1.446 1.054.8.505 1.402 1.27 1.705 2.165L16.825 37.2l-1.758-1.212a1.693 1.693 0 00-2.616 1.045l-.444 2.113H9.996l-.444-2.11a1.693 1.693 0 00-2.616-1.044L5.177 37.2l-1.542-1.539 1.211-1.756a1.692 1.692 0 00-1.044-2.618l-2.11-.444v-2.01l2.11-.445a1.693 1.693 0 001.045-2.612l-1.212-1.762 1.542-1.539 1.76 1.212a1.693 1.693 0 002.615-1.046l.149-.704c.135.975.36 1.936.67 2.87a5.077 5.077 0 105.118 7.362zm-1.314-1.192A3.38 3.38 0 1111 26.452h.032a16.028 16.028 0 003.142 4.524zm34.538-12.679l-2.454-.35a2.539 2.539 0 00-2.39 4.036l1.487 1.983-2.708 2.031-1.488-1.982a2.539 2.539 0 00-4.544 1.164l-.343 2.457-3.35-.479.35-2.454a2.539 2.539 0 00-4.036-2.39l-1.983 1.486-2.03-2.707 1.981-1.488a2.539 2.539 0 00-1.163-4.544l-2.455-.35.48-3.351 2.453.35a2.539 2.539 0 002.391-4.036L27.42 5.688l2.708-2.03 1.488 1.982a2.539 2.539 0 004.544-1.164l.35-2.454 3.35.478-.35 2.454a2.539 2.539 0 004.037 2.39l1.983-1.487 2.03 2.708-1.982 1.488a2.539 2.539 0 001.164 4.544l2.454.35-.482 3.35z"/><path d="M36.388 8.058a6.77 6.77 0 106.77 6.77 6.778 6.778 0 00-6.77-6.77zm0 11.847a5.077 5.077 0 110-10.155 5.077 5.077 0 010 10.155zm-9.931 17.548h-1.692v2.538h1.692v-2.538zm-4.548-8.311a10.155 10.155 0 01-1.714-18.053l-.905-1.432c-5.536 3.487-7.197 10.803-3.71 16.339a11.848 11.848 0 005.715 4.72 5.404 5.404 0 013.47 5.044h1.692a7.08 7.08 0 00-4.548-6.618zm25.704 2.387H41.69v1.692h5.923V31.53zm-6.228 4.427l-1.083 1.3 5.078 4.23 1.083-1.3-5.078-4.23zm-3.08 2.343h-1.693v5.923h1.693V38.3zM7.634 12.937l-6.77 1.692.41 1.641 6.77-1.692-.41-1.641zM3.253 4.608L2.27 5.984l5.923 4.231.983-1.376-5.923-4.231zM11.16.007l-1.64.42 1.731 6.769 1.64-.42-1.73-6.769z"/></g><defs><clipPath id="clip0"><path fill="#fff" d="M0 0h51v51H0z"/></clipPath></defs></svg>