<svg width="51" height="51" fill="none" xmlns="http://www.w3.org/2000/svg"><path d="M50.908 41.289A4.31 4.31 0 0049 38.517a4.311 4.311 0 00-3.313-.577l-5.316 1.217v-2.173a20.999 20.999 0 002.965-3.514 20.601 20.601 0 002.912-6.858c.652-2.913.666-5.997.04-8.92a.996.996 0 10-1.948.417 18.997 18.997 0 01-.036 8.068 18.62 18.62 0 01-2.631 6.197c-.371.563-.82 1.153-1.302 1.718V23.05a.996.996 0 00-.996-.997h-7.88V11.417a.996.996 0 00-.993-.996l-8.875-.03h-.003a.994.994 0 00-.997.996v5.534h-7.88a.996.996 0 00-.996.996v9.864h-2.22v-1.353a.996.996 0 00-.996-.996H7.514a18.834 18.834 0 01-.298-2.901 18.712 18.712 0 011.738-8.385.997.997 0 00-1.805-.84 20.71 20.71 0 00-1.924 9.274c.023.954.114 1.909.268 2.852H.996a.996.996 0 00-.996.996v17.509c0 .55.446.996.996.996h7.54c.55 0 .996-.446.996-.996v-.947h3.747l15.178 5.953a12.007 12.007 0 007.372.461l11.897-3.024a4.334 4.334 0 003.182-5.091zM38.38 24.047v15.566l-2.663.61a10.11 10.11 0 01-4.207.06c-.005 0-.01-.002-.014-.003v-1.51c.76-1.133 1.011-2.57.613-3.881a4.47 4.47 0 00-.611-1.262l-.002-.003v-9.578h6.884zm-15.76-11.66l6.884.023v19.632l-3.847-1.592-3.036-1.257V12.387zm-8.876 6.526h6.883v9.454l-1.235-.51a.995.995 0 00-.381-.077h-5.267v-8.867zM7.54 42.94H1.992V27.424H7.54V42.94zm39.696 1.509l-11.897 3.023a10.011 10.011 0 01-6.154-.384L13.83 41.066a.995.995 0 00-.364-.068H9.532V29.773h9.28l6.446 2.668 3.526 1.46c1.248.517 1.846 1.98 1.334 3.227-.103.25-.23.488-.399.7a2.568 2.568 0 01-2.61.9l-.024-.005a2.501 2.501 0 01-.172-.05l-6.702-2.576c-.054-.022-.083-.032-.083-.032a.996.996 0 10-.715 1.86s3.779 1.452 6.66 2.563c.058.023.116.044.174.063l2.213.851c.669.258 1.334.514 2.03.691a12.033 12.033 0 005.672.072l3.436-.787c.004 0 .007-.002.01-.003l6.524-1.493a2.332 2.332 0 011.793.312c.537.344.903.877 1.032 1.5a2.345 2.345 0 01-1.721 2.756zM12.738 8.38a.992.992 0 00.667-.257 18.935 18.935 0 016.139-3.704 18.974 18.974 0 017.691-1.092c1.865.123 3.692.52 5.431 1.183a.996.996 0 10.709-1.861 20.67 20.67 0 00-6.009-1.31c-2.88-.189-5.821.23-8.505 1.21a20.945 20.945 0 00-6.791 4.095.996.996 0 00.668 1.736z" fill="#F5DF4D"/><path d="M35.35 15.489a.995.995 0 001.405-.098l8.196-9.435a.996.996 0 10-1.503-1.306l-8.196 9.433a.996.996 0 00.099 1.405zm7.344-4.259a2.503 2.503 0 00-2.5 2.5 2.503 2.503 0 002.5 2.502 2.502 2.502 0 000-5.002zm0 3.01a.509.509 0 11.001-1.019.509.509 0 010 1.018zm-5.531-5.228c1.379 0 2.5-1.122 2.5-2.5a2.502 2.502 0 00-2.5-2.501 2.504 2.504 0 00-2.5 2.5c0 1.38 1.12 2.501 2.5 2.501zm0-3.01a.51.51 0 11-.002 1.02.51.51 0 01.002-1.02zM9.196 10.72c.16.383.553.636.969.614.41-.021.771-.3.898-.69a1.004 1.004 0 00-.34-1.095 1.007 1.007 0 00-1.16-.038c-.39.26-.547.777-.367 1.21z" fill="#F5DF4D"/></svg>