<svg width="164" height="52" fill="none" xmlns="http://www.w3.org/2000/svg"><path d="M22.248 51V.6H.504v9.36h10.08V51h11.664zM63.98 23.784c-3.36-2.832-8.593-4.248-15.697-4.248H44.18l.792-9.576h21.024V.6H35.251L32.66 28.968h12.888c4.32 0 7.344.552 9.072 1.656 1.776 1.104 2.664 2.736 2.664 4.896 0 2.064-.84 3.672-2.52 4.824-1.68 1.152-3.984 1.728-6.912 1.728-2.64 0-5.208-.384-7.704-1.152-2.496-.816-4.704-1.944-6.624-3.384l-4.608 8.928c2.4 1.728 5.304 3.072 8.712 4.032a41.03 41.03 0 0010.512 1.368c4.608 0 8.472-.744 11.592-2.232 3.168-1.536 5.52-3.552 7.056-6.048 1.536-2.544 2.304-5.352 2.304-8.424 0-4.752-1.704-8.544-5.112-11.376zM87.088 20v-9.468h-6.93l-.162 3.384a39.899 39.899 0 01-.216 2.664c-.084.672-.252 1.236-.504 1.692-.252.456-.624.684-1.116.684a2.48 2.48 0 01-.45-.072l-.09 1.098c.36.096.666.144.918.144.924 0 1.566-.528 1.926-1.584.36-1.056.588-2.568.684-4.536l.126-2.34h4.536V20h1.278z" fill="#F5DF4D"/><path fill-rule="evenodd" clip-rule="evenodd" d="M91.081 15.662h7.92l.018-.396c0-.936-.198-1.764-.594-2.484a4.323 4.323 0 00-1.638-1.71c-.696-.408-1.482-.612-2.358-.612-.876 0-1.668.204-2.376.612a4.45 4.45 0 00-1.656 1.71c-.396.732-.594 1.56-.594 2.484 0 .924.21 1.752.63 2.484a4.558 4.558 0 001.746 1.728c.756.408 1.62.612 2.592.612a5.26 5.26 0 002.07-.396 4.041 4.041 0 001.584-1.152l-.72-.828c-.36.408-.786.72-1.278.936a4.19 4.19 0 01-1.62.306c-1.044 0-1.908-.3-2.592-.9-.684-.612-1.062-1.41-1.134-2.394zm1.044-3.222c.624-.588 1.392-.882 2.304-.882.924 0 1.692.294 2.304.882.624.576.978 1.332 1.062 2.268h-6.714c.084-.936.432-1.692 1.044-2.268z" fill="#F5DF4D"/><path d="M104.504 11.666h3.582v-1.134h-8.442v1.134h3.582V20h1.278v-8.334zM80.626 32.532h-1.278V42h1.278v-4.176h5.958V42h1.278v-9.468h-1.278v4.194h-5.958v-4.194z" fill="#F5DF4D"/><path fill-rule="evenodd" clip-rule="evenodd" d="M97.597 33.396c-.66-.624-1.608-.936-2.844-.936-.744 0-1.452.114-2.124.342a4.99 4.99 0 00-1.728.936l.576.954c.396-.348.87-.618 1.422-.81a4.945 4.945 0 011.728-.306c.876 0 1.542.216 1.998.648.456.42.684 1.038.684 1.854v.576h-3.006c-1.272 0-2.202.246-2.79.738-.576.492-.864 1.14-.864 1.944 0 .828.312 1.494.936 1.998.624.504 1.464.756 2.52.756.768 0 1.428-.138 1.98-.414.564-.276.99-.66 1.278-1.152V42h1.224v-5.868c0-1.212-.33-2.124-.99-2.736zm-1.44 7.2c-.516.324-1.134.486-1.854.486-.756 0-1.344-.156-1.764-.468-.42-.324-.63-.762-.63-1.314 0-1.128.81-1.692 2.43-1.692h2.97v1.548c-.252.624-.636 1.104-1.152 1.44zm17.833-7.524c-.72-.408-1.524-.612-2.412-.612-.792 0-1.506.168-2.142.504a3.955 3.955 0 00-1.512 1.44v-1.872H106.7v12.96h1.278v-5.274c.396.612.9 1.08 1.512 1.404.624.312 1.32.468 2.088.468.9 0 1.704-.198 2.412-.594a4.374 4.374 0 001.692-1.71c.408-.732.612-1.572.612-2.52 0-.936-.204-1.77-.612-2.502a4.251 4.251 0 00-1.692-1.692zm-.702 7.434c-.54.3-1.14.45-1.8.45a3.68 3.68 0 01-1.818-.45 3.406 3.406 0 01-1.26-1.314c-.3-.564-.45-1.206-.45-1.926s.15-1.356.45-1.908a3.406 3.406 0 011.26-1.314 3.567 3.567 0 011.818-.468c.66 0 1.26.156 1.8.468.54.312.96.75 1.26 1.314.312.552.468 1.188.468 1.908s-.156 1.362-.468 1.926c-.3.564-.72 1.002-1.26 1.314zm12.448-3.834c-.624-.516-1.53-.78-2.718-.792l-2.7-.036v-3.312h-1.278V42l3.744.018c1.248.012 2.208-.252 2.88-.792.672-.54 1.008-1.314 1.008-2.322 0-.972-.312-1.716-.936-2.232zm-1.044 3.852c-.444.36-1.104.534-1.98.522l-2.394-.036v-4.212l2.394.036c.888.012 1.554.186 1.998.522.444.336.666.852.666 1.548 0 .708-.228 1.248-.684 1.62z" fill="#F5DF4D"/><path d="M129.534 32.532h-1.278V42h1.278v-9.468zm4.916 0h-1.278V42h1.278v-4.176h5.958V42h1.278v-9.468h-1.278v4.194h-5.958v-4.194zm12.147 5.256h2.16L152.249 42h1.512l-3.996-4.878 3.726-4.59h-1.386l-3.33 4.158h-2.178v-4.158h-1.278V42h1.278v-4.212z" fill="#F5DF4D"/><path fill-rule="evenodd" clip-rule="evenodd" d="M155.804 37.662h7.92l.018-.396c0-.936-.198-1.764-.594-2.484a4.323 4.323 0 00-1.638-1.71c-.696-.408-1.482-.612-2.358-.612-.876 0-1.668.204-2.376.612a4.45 4.45 0 00-1.656 1.71c-.396.732-.594 1.56-.594 2.484 0 .924.21 1.752.63 2.484a4.558 4.558 0 001.746 1.728c.756.408 1.62.612 2.592.612a5.26 5.26 0 002.07-.396 4.041 4.041 0 001.584-1.152l-.72-.828c-.36.408-.786.72-1.278.936a4.19 4.19 0 01-1.62.306c-1.044 0-1.908-.3-2.592-.9-.684-.612-1.062-1.41-1.134-2.394zm1.044-3.222c.624-.588 1.392-.882 2.304-.882.924 0 1.692.294 2.304.882.624.576.978 1.332 1.062 2.268h-6.714c.084-.936.432-1.692 1.044-2.268z" fill="#F5DF4D"/></svg>