<svg width="240" height="57" fill="none" xmlns="http://www.w3.org/2000/svg"><path d="M71.96 45.416h-8.208V56H52.376V45.416H25.232v-7.848L48.992 5.6h12.24L39.2 35.912h13.536V26.48h11.016v9.432h8.208v9.504zm25.088 11.448c-4.176 0-7.896-1.032-11.16-3.096-3.264-2.064-5.832-5.04-7.704-8.928-1.824-3.936-2.736-8.616-2.736-14.04 0-5.424.912-10.08 2.736-13.968 1.872-3.936 4.44-6.936 7.704-9 3.264-2.064 6.984-3.096 11.16-3.096s7.896 1.032 11.16 3.096c3.264 2.064 5.808 5.064 7.632 9 1.872 3.888 2.808 8.544 2.808 13.968 0 5.424-.936 10.104-2.808 14.04-1.824 3.888-4.368 6.864-7.632 8.928-3.264 2.064-6.984 3.096-11.16 3.096zm0-9.864c3.072 0 5.472-1.32 7.2-3.96 1.776-2.64 2.664-6.72 2.664-12.24 0-5.52-.888-9.6-2.664-12.24-1.728-2.64-4.128-3.96-7.2-3.96-3.024 0-5.424 1.32-7.2 3.96-1.728 2.64-2.592 6.72-2.592 12.24 0 5.52.864 9.6 2.592 12.24 1.776 2.64 4.176 3.96 7.2 3.96zm48.868 9.864c-4.176 0-7.896-1.032-11.16-3.096-3.264-2.064-5.832-5.04-7.704-8.928-1.824-3.936-2.736-8.616-2.736-14.04 0-5.424.912-10.08 2.736-13.968 1.872-3.936 4.44-6.936 7.704-9 3.264-2.064 6.984-3.096 11.16-3.096s7.896 1.032 11.16 3.096c3.264 2.064 5.808 5.064 7.632 9 1.872 3.888 2.808 8.544 2.808 13.968 0 5.424-.936 10.104-2.808 14.04-1.824 3.888-4.368 6.864-7.632 8.928-3.264 2.064-6.984 3.096-11.16 3.096zm0-9.864c3.072 0 5.472-1.32 7.2-3.96 1.776-2.64 2.664-6.72 2.664-12.24 0-5.52-.888-9.6-2.664-12.24-1.728-2.64-4.128-3.96-7.2-3.96-3.024 0-5.424 1.32-7.2 3.96-1.728 2.64-2.592 6.72-2.592 12.24 0 5.52.864 9.6 2.592 12.24 1.776 2.64 4.176 3.96 7.2 3.96zm42.332-.752c0 1.476-.486 2.634-1.458 3.474-.972.84-2.346 1.296-4.122 1.368v3.402h-1.242v-3.384c-1.764-.072-3.132-.528-4.104-1.368-.96-.852-1.44-2.016-1.44-3.492 0-1.464.48-2.61 1.44-3.438.972-.828 2.34-1.278 4.104-1.35v-3.816h1.242v3.816c1.776.084 3.15.54 4.122 1.368.972.828 1.458 1.968 1.458 3.42zm-11.106 0c0 1.128.36 2.01 1.08 2.646.732.636 1.8.996 3.204 1.08v-7.38c-1.392.072-2.454.426-3.186 1.062-.732.624-1.098 1.488-1.098 2.592zm5.526 3.726c1.404-.072 2.472-.426 3.204-1.062.744-.636 1.116-1.524 1.116-2.664 0-1.116-.372-1.986-1.116-2.61-.732-.624-1.8-.972-3.204-1.044v7.38zm11.488-8.514c1.236 0 2.184.312 2.844.936.66.612.99 1.524.99 2.736V51h-1.224v-1.476c-.288.492-.714.876-1.278 1.152-.552.276-1.212.414-1.98.414-1.056 0-1.896-.252-2.52-.756-.624-.504-.936-1.17-.936-1.998 0-.804.288-1.452.864-1.944.588-.492 1.518-.738 2.79-.738h3.006v-.576c0-.816-.228-1.434-.684-1.854-.456-.432-1.122-.648-1.998-.648-.6 0-1.176.102-1.728.306a4.233 4.233 0 00-1.422.81l-.576-.954a4.99 4.99 0 011.728-.936 6.566 6.566 0 012.124-.342zm-.45 8.622c.72 0 1.338-.162 1.854-.486.516-.336.9-.816 1.152-1.44v-1.548h-2.97c-1.62 0-2.43.564-2.43 1.692 0 .552.21.99.63 1.314.42.312 1.008.468 1.764.468zm11.124-3.294h-2.16V51h-1.278v-9.468h1.278v4.158h2.178l3.33-4.158h1.386l-3.726 4.59L209.834 51h-1.512l-3.492-4.212zm13.488-4.122h-3.582V51h-1.278v-8.334h-3.582v-1.134h8.442v1.134zm9.929-1.134l-4.734 10.602c-.384.888-.828 1.518-1.332 1.89-.504.372-1.11.558-1.818.558-.456 0-.882-.072-1.278-.216a2.77 2.77 0 01-1.026-.648l.594-.954c.48.48 1.056.72 1.728.72.432 0 .798-.12 1.098-.36.312-.24.6-.648.864-1.224l.414-.918-4.23-9.45h1.332l3.564 8.046 3.564-8.046h1.26zm6.869-.072c.888 0 1.692.204 2.412.612.72.396 1.284.96 1.692 1.692.408.732.612 1.566.612 2.502 0 .948-.204 1.788-.612 2.52a4.374 4.374 0 01-1.692 1.71c-.708.396-1.512.594-2.412.594-.768 0-1.464-.156-2.088-.468a4.03 4.03 0 01-1.512-1.404v5.274h-1.278v-12.96h1.224v1.872a3.955 3.955 0 011.512-1.44c.636-.336 1.35-.504 2.142-.504zm-.09 8.496c.66 0 1.26-.15 1.8-.45.54-.312.96-.75 1.26-1.314.312-.564.468-1.206.468-1.926s-.156-1.356-.468-1.908a3.243 3.243 0 00-1.26-1.314 3.533 3.533 0 00-1.8-.468c-.672 0-1.278.156-1.818.468-.528.312-.948.75-1.26 1.314-.3.552-.45 1.188-.45 1.908s.15 1.362.45 1.926a3.406 3.406 0 001.26 1.314c.54.3 1.146.45 1.818.45zm-230.26-.364c0-.876.198-1.656.594-2.34a4.019 4.019 0 011.638-1.62c.696-.384 1.494-.576 2.394-.576.924 0 1.746.204 2.466.612.708.396 1.26.954 1.656 1.674.396.72.594 1.548.594 2.484 0 1.572-.552 2.79-1.656 3.654-1.104.864-2.628 1.296-4.572 1.296-2.028 0-3.582-.384-4.662-1.152-1.08-.78-1.812-1.992-2.196-3.636L.05 45.74l1.17-.216.918 3.996c.3 1.356.834 2.352 1.602 2.988.756.636 1.878.984 3.366 1.044a4.237 4.237 0 01-1.71-1.602c-.42-.684-.63-1.47-.63-2.358zm8.28.198c0-.66-.15-1.248-.45-1.764a3.186 3.186 0 00-1.296-1.224c-.552-.3-1.176-.45-1.872-.45-.696 0-1.308.144-1.836.432a3.006 3.006 0 00-1.224 1.224c-.3.516-.45 1.11-.45 1.782 0 .672.15 1.272.45 1.8.288.516.696.924 1.224 1.224.528.288 1.14.432 1.836.432.696 0 1.32-.144 1.872-.432a3.31 3.31 0 001.296-1.242c.3-.528.45-1.122.45-1.782zm1.044-11.38c0 .913-.204 1.735-.612 2.467a4.594 4.594 0 01-1.728 1.728c-.732.42-1.56.63-2.484.63-.924 0-1.752-.21-2.484-.63a4.464 4.464 0 01-1.71-1.728c-.408-.732-.612-1.554-.612-2.466 0-.912.204-1.734.612-2.466a4.34 4.34 0 011.71-1.71c.732-.42 1.56-.63 2.484-.63.924 0 1.752.21 2.484.63a4.465 4.465 0 011.728 1.71c.408.732.612 1.554.612 2.466zm-1.134 0c0-.671-.15-1.271-.45-1.8-.312-.54-.75-.96-1.314-1.26-.564-.3-1.206-.45-1.926-.45s-1.362.15-1.926.45c-.564.3-.996.72-1.296 1.26-.312.529-.468 1.129-.468 1.8 0 .673.156 1.279.468 1.819.3.528.732.948 1.296 1.26.564.3 1.206.45 1.926.45s1.362-.15 1.926-.45a3.406 3.406 0 001.314-1.26c.3-.54.45-1.146.45-1.818zM4.532 23.186H14v1.278H5.666V29l2.34.126c1.968.096 3.48.324 4.536.684 1.056.36 1.584 1.002 1.584 1.926 0 .252-.048.558-.144.918l-1.098-.09a2.48 2.48 0 00.072-.45c0-.492-.228-.864-.684-1.116-.456-.252-1.02-.42-1.692-.504a39.898 39.898 0 00-2.664-.216l-3.384-.162v-6.93zm5.13-11.913v7.92c.984-.072 1.782-.45 2.394-1.134.6-.684.9-1.548.9-2.592a4.19 4.19 0 00-.306-1.62 3.635 3.635 0 00-.936-1.278l.828-.72c.504.42.888.948 1.152 1.584a5.26 5.26 0 01.396 2.07c0 .972-.204 1.836-.612 2.592a4.558 4.558 0 01-1.728 1.746c-.732.42-1.56.63-2.484.63-.924 0-1.752-.198-2.484-.594a4.45 4.45 0 01-1.71-1.656c-.408-.708-.612-1.5-.612-2.376 0-.876.204-1.662.612-2.358a4.323 4.323 0 011.71-1.638c.72-.396 1.548-.594 2.484-.594l.396.018zm-4.104 4.572c0 .912.294 1.68.882 2.304.576.612 1.332.96 2.268 1.044v-6.714c-.936.084-1.692.438-2.268 1.062-.588.612-.882 1.38-.882 2.304zM9.662.146v7.92c.984-.072 1.782-.45 2.394-1.134.6-.684.9-1.548.9-2.592a4.19 4.19 0 00-.306-1.62 3.635 3.635 0 00-.936-1.278l.828-.72c.504.42.888.948 1.152 1.584a5.26 5.26 0 01.396 2.07c0 .972-.204 1.836-.612 2.592a4.558 4.558 0 01-1.728 1.746c-.732.42-1.56.63-2.484.63-.924 0-1.752-.198-2.484-.594a4.45 4.45 0 01-1.71-1.656c-.408-.708-.612-1.5-.612-2.376 0-.876.204-1.662.612-2.358A4.323 4.323 0 016.782.722C7.502.326 8.33.128 9.266.128l.396.018zM5.558 4.718c0 .912.294 1.68.882 2.304.576.612 1.332.96 2.268 1.044V1.352c-.936.084-1.692.438-2.268 1.062-.588.612-.882 1.38-.882 2.304z" fill="#F5DF4D"/></svg>