<svg width="216" height="51" fill="none" xmlns="http://www.w3.org/2000/svg"><path d="M46.96 40.416h-8.21V51H27.375V40.416H.231v-7.848L23.991.6h12.24L14.2 30.912h13.536V21.48h11.016v9.432h8.208v9.504zm15.517-23.75h-3.582V25h-1.278v-8.334h-3.582v-1.134h8.442v1.134zm5.315 8.424c-.912 0-1.734-.204-2.466-.612a4.594 4.594 0 01-1.728-1.728c-.42-.732-.63-1.56-.63-2.484 0-.924.21-1.752.63-2.484a4.465 4.465 0 011.728-1.71c.732-.408 1.554-.612 2.466-.612.912 0 1.734.204 2.466.612a4.34 4.34 0 011.71 1.71c.42.732.63 1.56.63 2.484 0 .924-.21 1.752-.63 2.484a4.465 4.465 0 01-1.71 1.728c-.732.408-1.554.612-2.466.612zm0-1.134c.672 0 1.272-.15 1.8-.45.54-.312.96-.75 1.26-1.314.3-.564.45-1.206.45-1.926s-.15-1.362-.45-1.926c-.3-.564-.72-.996-1.26-1.296-.528-.312-1.128-.468-1.8-.468-.672 0-1.278.156-1.818.468-.528.3-.948.732-1.26 1.296-.3.564-.45 1.206-.45 1.926s.15 1.362.45 1.926a3.406 3.406 0 001.26 1.314c.54.3 1.146.45 1.818.45zm14.683-8.424V25h-1.278v-3.942c-1.092.48-2.166.72-3.222.72-1.14 0-2.028-.258-2.664-.774-.636-.528-.954-1.314-.954-2.358v-3.114h1.278v3.042c0 .708.228 1.248.684 1.62.456.36 1.086.54 1.89.54.888 0 1.884-.234 2.988-.702v-4.5h1.278zm7.068 5.256h-2.16V25h-1.278v-9.468h1.278v4.158h2.178l3.33-4.158h1.386l-3.726 4.59L94.547 25h-1.512l-3.492-4.212zm7.021-5.256h1.278v7.524l6.318-7.524h1.134V25h-1.278v-7.524L97.716 25h-1.152v-9.468zm-32.251 22V47h-1.278v-8.334h-5.94V47h-1.278v-9.468h8.496zm8.511-.072c.888 0 1.692.204 2.412.612.72.396 1.284.96 1.692 1.692.408.732.612 1.566.612 2.502 0 .948-.204 1.788-.612 2.52a4.374 4.374 0 01-1.692 1.71c-.708.396-1.512.594-2.412.594-.768 0-1.464-.156-2.088-.468a4.031 4.031 0 01-1.512-1.404v5.274h-1.278v-12.96h1.224v1.872a3.955 3.955 0 011.512-1.44c.636-.336 1.35-.504 2.142-.504zm-.09 8.496c.66 0 1.26-.15 1.8-.45.54-.312.96-.75 1.26-1.314.312-.564.468-1.206.468-1.926s-.156-1.356-.468-1.908a3.243 3.243 0 00-1.26-1.314 3.533 3.533 0 00-1.8-.468c-.672 0-1.278.156-1.818.468-.528.312-.948.75-1.26 1.314-.3.552-.45 1.188-.45 1.908s.15 1.362.45 1.926a3.406 3.406 0 001.26 1.314c.54.3 1.146.45 1.818.45zm11.458 1.134c-.912 0-1.734-.204-2.466-.612a4.594 4.594 0 01-1.728-1.728c-.42-.732-.63-1.56-.63-2.484 0-.924.21-1.752.63-2.484a4.465 4.465 0 011.728-1.71c.732-.408 1.554-.612 2.466-.612.912 0 1.734.204 2.466.612a4.34 4.34 0 011.71 1.71c.42.732.63 1.56.63 2.484 0 .924-.21 1.752-.63 2.484a4.465 4.465 0 01-1.71 1.728c-.732.408-1.554.612-2.466.612zm0-1.134c.672 0 1.272-.15 1.8-.45.54-.312.96-.75 1.26-1.314.3-.564.45-1.206.45-1.926s-.15-1.362-.45-1.926c-.3-.564-.72-.996-1.26-1.296-.528-.312-1.128-.468-1.8-.468-.672 0-1.278.156-1.818.468-.528.3-.948.732-1.26 1.296-.3.564-.45 1.206-.45 1.926s.15 1.362.45 1.926a3.406 3.406 0 001.26 1.314c.54.3 1.146.45 1.818.45zm16.719-.072v3.402h-1.206V47h-8.478v2.286H90.02v-3.402h.54c.636-.036 1.068-.504 1.296-1.404.228-.9.384-2.16.468-3.78l.126-3.168h6.984v8.352h1.476zm-7.416-5.112c-.06 1.344-.174 2.454-.342 3.33-.168.864-.468 1.458-.9 1.782h5.904v-7.218h-4.554l-.108 2.106zm13.164-3.312c1.236 0 2.184.312 2.844.936.66.612.99 1.524.99 2.736V47h-1.224v-1.476c-.288.492-.714.876-1.278 1.152-.552.276-1.212.414-1.98.414-1.056 0-1.896-.252-2.52-.756-.624-.504-.936-1.17-.936-1.998 0-.804.288-1.452.864-1.944.588-.492 1.518-.738 2.79-.738h3.006v-.576c0-.816-.228-1.434-.684-1.854-.456-.432-1.122-.648-1.998-.648-.6 0-1.176.102-1.728.306a4.233 4.233 0 00-1.422.81l-.576-.954a4.99 4.99 0 011.728-.936 6.566 6.566 0 012.124-.342zm-.45 8.622c.72 0 1.338-.162 1.854-.486.516-.336.9-.816 1.152-1.44v-1.548h-2.97c-1.62 0-2.43.564-2.43 1.692 0 .552.21.99.63 1.314.42.312 1.008.468 1.764.468zm15.985-3.294h-2.052V47h-1.278v-4.212h-2.052L113.914 47h-1.53l3.402-4.878-3.132-4.59h1.386l2.772 4.158h2.052v-4.158h1.278v4.158h2.052l2.79-4.158h1.386l-3.132 4.608L126.64 47h-1.53l-2.916-4.212zm15.19 4.302c-.912 0-1.734-.204-2.466-.612a4.594 4.594 0 01-1.728-1.728c-.42-.732-.63-1.56-.63-2.484 0-.924.21-1.752.63-2.484a4.465 4.465 0 011.728-1.71c.732-.408 1.554-.612 2.466-.612.912 0 1.734.204 2.466.612a4.34 4.34 0 011.71 1.71c.42.732.63 1.56.63 2.484 0 .924-.21 1.752-.63 2.484a4.465 4.465 0 01-1.71 1.728c-.732.408-1.554.612-2.466.612zm0-1.134c.672 0 1.272-.15 1.8-.45.54-.312.96-.75 1.26-1.314.3-.564.45-1.206.45-1.926s-.15-1.362-.45-1.926c-.3-.564-.72-.996-1.26-1.296-.528-.312-1.128-.468-1.8-.468-.672 0-1.278.156-1.818.468-.528.3-.948.732-1.26 1.296-.3.564-.45 1.206-.45 1.926s.15 1.362.45 1.926a3.406 3.406 0 001.26 1.314c.54.3 1.146.45 1.818.45zm18.967-3.708c0 1.476-.486 2.634-1.458 3.474-.972.84-2.346 1.296-4.122 1.368v3.402h-1.242v-3.384c-1.764-.072-3.132-.528-4.104-1.368-.96-.852-1.44-2.016-1.44-3.492 0-1.464.48-2.61 1.44-3.438.972-.828 2.34-1.278 4.104-1.35v-3.816h1.242v3.816c1.776.084 3.15.54 4.122 1.368.972.828 1.458 1.968 1.458 3.42zm-11.106 0c0 1.128.36 2.01 1.08 2.646.732.636 1.8.996 3.204 1.08v-7.38c-1.392.072-2.454.426-3.186 1.062-.732.624-1.098 1.488-1.098 2.592zm5.526 3.726c1.404-.072 2.472-.426 3.204-1.062.744-.636 1.116-1.524 1.116-2.664 0-1.116-.372-1.986-1.116-2.61-.732-.624-1.8-.972-3.204-1.044v7.38zm19.713-3.726c0 1.476-.486 2.634-1.458 3.474-.972.84-2.346 1.296-4.122 1.368v3.402h-1.242v-3.384c-1.764-.072-3.132-.528-4.104-1.368-.96-.852-1.44-2.016-1.44-3.492 0-1.464.48-2.61 1.44-3.438.972-.828 2.34-1.278 4.104-1.35v-3.816h1.242v3.816c1.776.084 3.15.54 4.122 1.368.972.828 1.458 1.968 1.458 3.42zm-11.106 0c0 1.128.36 2.01 1.08 2.646.732.636 1.8.996 3.204 1.08v-7.38c-1.392.072-2.454.426-3.186 1.062-.732.624-1.098 1.488-1.098 2.592zm5.526 3.726c1.404-.072 2.472-.426 3.204-1.062.744-.636 1.116-1.524 1.116-2.664 0-1.116-.372-1.986-1.116-2.61-.732-.624-1.8-.972-3.204-1.044v7.38zm15.97-8.442V47h-1.278v-8.334h-4.536l-.126 2.34c-.096 1.968-.324 3.48-.684 4.536-.36 1.056-1.002 1.584-1.926 1.584-.252 0-.558-.048-.918-.144l.09-1.098c.216.048.366.072.45.072.492 0 .864-.228 1.116-.684.252-.456.42-1.02.504-1.692.084-.672.156-1.56.216-2.664l.162-3.384h6.93zm6.891-.072c1.236 0 2.184.312 2.844.936.66.612.99 1.524.99 2.736V47h-1.224v-1.476c-.288.492-.714.876-1.278 1.152-.552.276-1.212.414-1.98.414-1.056 0-1.896-.252-2.52-.756-.624-.504-.936-1.17-.936-1.998 0-.804.288-1.452.864-1.944.588-.492 1.518-.738 2.79-.738h3.006v-.576c0-.816-.228-1.434-.684-1.854-.456-.432-1.122-.648-1.998-.648-.6 0-1.176.102-1.728.306a4.233 4.233 0 00-1.422.81l-.576-.954a4.99 4.99 0 011.728-.936 6.566 6.566 0 012.124-.342zm-.45 8.622c.72 0 1.338-.162 1.854-.486.516-.336.9-.816 1.152-1.44v-1.548h-2.97c-1.62 0-2.43.564-2.43 1.692 0 .552.21.99.63 1.314.42.312 1.008.468 1.764.468zm7.686-8.55h1.278v7.524l6.318-7.524h1.134V47h-1.278v-7.524l-6.3 7.524h-1.152v-9.468zm4.302-1.368c-.816 0-1.464-.204-1.944-.612-.48-.408-.726-.984-.738-1.728h.918c.012.468.18.846.504 1.134.324.276.744.414 1.26.414s.936-.138 1.26-.414c.336-.288.51-.666.522-1.134h.918c-.012.744-.264 1.32-.756 1.728-.48.408-1.128.612-1.944.612zm8.091 1.368h1.278v4.194h5.958v-4.194h1.278V47h-1.278v-4.176h-5.958V47h-1.278v-9.468z" fill="#F5DF4D"/></svg>