<svg width="34" height="23" fill="none" xmlns="http://www.w3.org/2000/svg"><path d="M.102 3.16c0-1.138.647-1.752 1.942-1.84l4.988.033c.335 0 .558.167.67.502.513 1.674 1.088 3.12 1.724 4.336.636 1.216 1.468 2.617 2.495 4.202.089.2.234.301.435.301.156 0 .279-.078.368-.234l.1-.369.034-5.792c0-.402-.095-.67-.284-.803-.19-.134-.542-.235-1.055-.302-.402-.067-.603-.312-.603-.736 0-.09.011-.157.034-.201C11.419.806 12.758.08 14.968.08l1.875-.033c.848 0 1.551.212 2.109.636.558.424.837 1.094.837 2.009v7.6c.156.112.301.168.435.168.335 0 .625-.201.87-.603C23.55 6.42 24.879 4.121 25.08 2.96a.59.59 0 01.067-.168c.156-.334.413-.625.77-.87.357-.246.67-.413.938-.502a.664.664 0 01.301-.067h5.19l.335.033c.446 0 .792.212 1.038.636.089.134.15.28.184.436.033.156.056.312.067.468.01.157.017.246.017.268v.235c-.157.915-.553 1.891-1.19 2.93-.635 1.037-1.444 2.159-2.427 3.364-.982 1.206-1.596 1.998-1.841 2.377-.201.268-.301.514-.301.737 0 .179.089.38.267.603l4.889 6.16c.268.358.402.748.402 1.172 0 .514-.201.938-.603 1.273a2.5 2.5 0 01-1.44.569l-.569.033h-5.09c-.022 0-.066.006-.133.017a1.036 1.036 0 01-.134.017c-.491 0-.949-.212-1.373-.636-.156-.179-1.205-1.496-3.147-3.951a1.776 1.776 0 00-.469-.436c-.09.358-.207.871-.352 1.54-.145.67-.25 1.15-.318 1.44l-.1.57c-.223.78-.692 1.25-1.406 1.406l-.47.033h-3.28c-1.853 0-3.7-.848-5.542-2.544-1.841-1.697-3.499-3.89-4.972-6.58-1.473-2.69-2.846-5.82-4.118-9.391a2.686 2.686 0 01-.167-.971zm20.122 8.673a2.22 2.22 0 01-1.272-.386c-.38-.256-.57-.608-.57-1.054V2.692c0-.446-.11-.765-.334-.954-.223-.19-.614-.285-1.172-.285l-1.908.067c-.96 0-1.686.167-2.177.502.982.47 1.473 1.228 1.473 2.277v5.893a2.038 2.038 0 01-.67 1.39c-.4.368-.847.552-1.338.552-.67 0-1.184-.324-1.54-.971-1.742-2.634-3.036-5.134-3.885-7.5l-.3-.87-4.454-.034c-.29 0-.452.017-.485.05-.034.034-.05.128-.05.285 0 .2.022.413.066.636l.703 1.875c1.875 4.844 3.912 8.66 6.11 11.45 2.2 2.791 4.36 4.186 6.48 4.186h3.348c.134 0 .234-.039.301-.117.067-.078.123-.229.168-.452l.067-.335.636-2.946c.178-.402.335-.67.469-.804a1.19 1.19 0 01.87-.368c.536 0 1.083.323 1.64.97l2.847 3.617c.178.29.368.435.569.435h5.524c.67 0 1.005-.167 1.005-.502a.646.646 0 00-.1-.335l-4.855-6.06c-.38-.469-.57-.971-.57-1.507 0-.536.179-1.05.536-1.54.29-.447.854-1.189 1.69-2.227a49.8 49.8 0 002.194-2.913c.625-.904 1.038-1.724 1.239-2.46l.1-.436a.52.52 0 01-.033-.217c0-.1-.011-.185-.034-.252h-5.256a1.828 1.828 0 00-.804.603l-.2.636c-.559 1.54-2.021 3.918-4.387 7.132-.469.446-1.016.67-1.64.67z" fill="#fff"/></svg>